<svg width="208" height="190" viewBox="0 0 208 190" fill="none" xmlns="http://www.w3.org/2000/svg"><ellipse cx="90.5" cy="182.5" rx="90.5" ry="7.5" fill="#000" fill-opacity=".2"/><path d="M154.517 2.19c3.227 1.604 4.559 5.58 4.661 8.685.04 1.226-1.23 1.918-2.336 1.389-11.344-5.43-7.199-12.494-2.325-10.073z" fill="#725D41" stroke="#000"/><path d="M169.517 121.191c.5-2.5 1.2-8.4 0-12-1.2-3.6-10.5-4.5-15-4.5" stroke="#000" stroke-width="3"/><path d="M119.017 165.191c-6.938 1.927-11.5-4.5-25.5-21-1.198-1.839-4.546-5.778-7.04-8.643-1.136-1.304-.504-4.521.94-5.472 8.8-5.788 29.717-21.756 43.227-26.207 1.211-.399 2.396.528 2.406 1.803.197 25.049-3.794 40.645.467 44.519 5.5 5 10 5 10 8.5s-15.5 4-24.5 6.5z" fill="#725D41" stroke="#000"/><path d="M178.515 20.69c4.021 2.925 13.912 3.845 19.531 3.982.875.021 1.665.607 1.858 1.461 4.745 20.999-36.651 19.831-48.389 32.058-11.999 12.5 3.355 30.274 13.001 32.5 13.001 3 12 16.5 4 16-7.578-.474-23.48-1.748-33.357-3.592-1.664-.311-3.231 1.488-2.982 3.161.765 5.165-.453 12.655-8.662 18.431-13.5 9.5-45.998 15-67.998.5-22-14.5 2.946-67.448 12.498-77 18-18 67.469-38 83.5-38 25.5 0 21.5 6.5 27 10.5z" fill="#725D41" stroke="#000"/><path d="M180.55 21.817c4.705 2.043 12.674 2.737 17.496 2.855.875.021 1.66.592 1.854 1.446 2.206 9.72-5.468 14.693-15.516 18.442-.549.205-1.163.16-1.649-.168-4.235-2.861-9.935-10.31-5.21-21.584.474-1.13 1.901-1.479 3.025-.99z" fill="#B5966E" stroke="#000"/><path d="M173.017 20.19s.5 3.5-8-.5" stroke="#000" stroke-width="2" stroke-linecap="round"/><path d="M40.017 123.691c.34 6.45 9.226 4.713 14.556 2.613 1.247-.491 1.49-2.066.543-3.014l-4.797-4.797a1.844 1.844 0 0 0-.704-.447c-3.598-1.234-9.984-1.674-9.598 5.645z" fill="#725D41" stroke="#000"/><path d="M200.517 26.69c0 1.658-1.791 3-4 3s-1.5-1.342-1.5-3c0-1.656-.709-3 1.5-3s4 1.344 4 3z" fill="#000"/><path d="M200.517 158.691h-44m44 0c0-5.846-2.281-11.16-6-15.1m6 15.1a21.92 21.92 0 0 1-5.907 15m-16.093 7v-44m0 44a21.94 21.94 0 0 1-16.094-7m16.094 7a21.939 21.939 0 0 0 16.093-7m-38.093-15c0 5.797 2.242 11.07 5.906 15m-5.906-15c0-5.846 2.28-11.16 6-15.1m16-6.9a21.937 21.937 0 0 1 16 6.9m-16-6.9a21.935 21.935 0 0 0-16 6.9m32 0-32.094 30.1m.094-30.1 32.093 30.1" stroke="#000"/><path d="M178.517 144.191c4.155 0 7.893 1.738 10.546 4.549a14.422 14.422 0 0 1 3.954 9.951c0 3.824-1.471 7.289-3.892 9.885a14.44 14.44 0 0 1-10.608 4.615 14.443 14.443 0 0 1-10.609-4.615 14.422 14.422 0 0 1-3.891-9.885c0-3.857 1.495-7.348 3.953-9.951a14.437 14.437 0 0 1 10.547-4.549zm16.459 29.841a22.425 22.425 0 0 0 6.041-15.341 22.423 22.423 0 0 0-6.137-15.443 22.435 22.435 0 0 0-16.363-7.057 22.437 22.437 0 0 0-16.364 7.057 22.422 22.422 0 0 0-6.136 15.443 22.425 22.425 0 0 0 6.04 15.341 22.442 22.442 0 0 0 16.46 7.159 22.441 22.441 0 0 0 16.459-7.159z" fill="#858585" stroke="#000"/><path d="M98.517 158.691h-44m44 0c0-5.846-2.28-11.16-6-15.1m6 15.1a21.92 21.92 0 0 1-5.907 15m-16.093 7v-44m0 44a21.94 21.94 0 0 1-16.094-7m16.094 7a21.94 21.94 0 0 0 16.093-7m-38.093-15c0 5.797 2.242 11.07 5.906 15m-5.906-15c0-5.846 2.28-11.16 6-15.1m16-6.9a21.937 21.937 0 0 1 16 6.9m-16-6.9a21.937 21.937 0 0 0-16 6.9m32 0-32.094 30.1m.094-30.1 32.093 30.1" stroke="#000"/><path d="M91.017 158.691c0 8.008-6.492 14.5-14.5 14.5s-14.5-6.492-14.5-14.5 6.491-14.5 14.5-14.5c8.008 0 14.5 6.492 14.5 14.5zm-14.5 22.5c12.426 0 22.5-10.074 22.5-22.5 0-12.427-10.074-22.5-22.5-22.5-12.427 0-22.5 10.073-22.5 22.5 0 12.426 10.073 22.5 22.5 22.5z" fill="#858585" stroke="#000"/><path d="M159.517 158.422c0-10.368 8.329-18.731 18.551-18.731 3.264 0 6.323.848 8.983 2.338a3 3 0 0 0 2.932-5.235 24.321 24.321 0 0 0-11.915-3.103c-13.583 0-24.551 11.096-24.551 24.731 0 2.061.25 4.068.725 5.988a3 3 0 1 0 5.825-1.439 18.94 18.94 0 0 1-.55-4.549z" fill="#EBF479" stroke="#000" stroke-linecap="round"/><circle cx="123.517" cy="156.691" r="7" fill="#3D405A" stroke="#1E1E1E" stroke-width="4"/><path d="M138.017 4.69c4.26-1.965 9.034 1.527 11.904 4.595.873.933.487 2.406-.724 2.812-11.903 3.993-17.296-4.583-11.18-7.406z" fill="#725D41" stroke="#000"/><path d="M172.752 23.256a3.325 3.325 0 1 1-6.472-1.527c.422-1.788 1.449-.422 3.237 0 1.787.422 3.657-.26 3.235 1.527z" fill="#000"/><path d="M34.032 160.365s-5.65.759-13.018-.73m18.533-4.914s-5.65.759-13.018-.73" stroke="#000" stroke-linecap="round"/><path d="M172.677 121.752c0-2.308-1.965-4.263-4.424-3.939-5.586.736-21.123 3.111-38.619 8.671-16.779 5.333-35.577 13.662-49.077 26.46a6.5 6.5 0 1 0 2.95 8.273c12.415.45 23.037.756 32.876-1.049 10.431-1.914 19.943-6.185 29.953-14.974 11.029-9.685 18.083-14.257 22.37-16.163.132 6.382.714 12.156 1.749 17.01.863 4.046 2.066 7.577 3.674 10.3a4.764 4.764 0 1 0 3.181-2.496c-1.171-2.137-2.174-5.032-2.943-8.638-1.111-5.211-1.69-11.689-1.69-19.016v-4.439zm-57.016 34.481c-9.297 1.706-19.411 1.441-31.81.994a6.454 6.454 0 0 0-.505-1.415c12.847-12.163 30.949-20.256 47.5-25.516 17.087-5.43 32.291-7.771 37.831-8.504v2.938c-4.898 1.783-12.725 6.697-24.98 17.458-9.478 8.322-18.331 12.265-28.036 14.045z" fill="#EBF479" stroke="#000"/><path d="M57.447 154.664c1.866-8.538 9.567-14.973 18.819-14.973 10.664 0 19.25 8.538 19.25 19a3 3 0 1 0 6.001 0c0-13.84-11.338-25-25.251-25-12.087 0-22.216 8.413-24.68 19.693a3 3 0 0 0 5.861 1.28z" fill="#EBF479" stroke="#000" stroke-linecap="round"/><path d="M138.517 118.691c1.05-10.765-3.356-13.863-7.372-14.431a1.819 1.819 0 0 0-1.173.252l-46.367 27.357c-1.349.796-1.316 2.784.036 3.575 10.907 6.382 31.614 20.385 41.376 20.747 13.5.5 23.5-9.5 25-13s-5.5-4.5-9-4.5-4.5.5-2.5-20z" fill="#725D41"/><path d="M130.517 104.191c4.166.333 9.105 3.17 8 14.5-2 20.5-1 20 2.5 20s10.5 1 9 4.5-11.5 13.5-25 13c-10.8-.4-35-17.5-44.5-22.5m106.983.978c2.271.166 4.498.231 6.5.241m-6.5-.241 2-25.317m-2 25.317c-2.372-.173-4.69-.511-6.75-.891m-8.415-18.278-.184-4.114a3 3 0 0 1 3.228-3.125l5.371.415m-8.415 6.824 33.387 2.5m-33.387-2.5.367 8.219m33.02-5.719.869-3.892a3 3 0 0 0-2.697-3.645l-5.394-.416m7.222 7.953-1.861 8.334m-31.159-2.615.273 6.121c.057 1.26.894 2.348 2.113 2.67 1.374.362 3.356.842 5.662 1.268m-8.048-10.059 31.159 2.615m0 0-1.378 6.17c-.287 1.286-1.38 2.232-2.697 2.291-1.429.065-3.454.127-5.786.115m4.5-24.863L194 134.91m4.5-24.863-9-.695m0 0-8.75-.676m0 0v25.102" stroke="#000"/></svg>