<svg width="112" height="112" viewBox="0 0 112 112" fill="none" xmlns="http://www.w3.org/2000/svg"><circle cx="56.306" cy="55.614" r="54.114" fill="#EB8939" stroke="#000" stroke-width="3"/><path d="M73.706 67.107v-4.162c2.575-.876 4.437-3.615 4.437-6.846 0-3.232-1.862-5.97-4.437-6.846V45.09c2.41-.822 4.218-3.286 4.382-6.299h-2.903v1.26c0 .986-.602 1.862-1.479 2.246v-.493c0-.877-.766-1.589-1.698-1.589h-.164c-.93 0-1.698.712-1.698 1.589v.602c-.876-.438-1.478-1.26-1.478-2.245V38.9h-2.903c.219 2.958 1.971 5.477 4.381 6.299v4.162c-2.574.876-4.436 3.615-4.436 6.846 0 3.232 1.862 5.97 4.436 6.846v4.163c-2.41.822-4.217 3.286-4.381 6.299h2.903v-1.26c0-.986.602-1.862 1.478-2.246v.603c0 .876.767 1.588 1.698 1.588h.165c.93 0 1.697-.712 1.697-1.588v-.603c.877.438 1.48 1.26 1.48 2.246v1.26h2.902c-.164-3.122-1.972-5.587-4.382-6.409zm-5.038-9.2V54.29c0-.985.602-1.862 1.478-2.245v.602c0 .877.767 1.589 1.698 1.589h.165c.93 0 1.697-.712 1.697-1.589v-.602c.877.438 1.48 1.26 1.48 2.245v3.615c0 .986-.603 1.862-1.48 2.246v-.603c0-.876-.766-1.588-1.698-1.588h-.164c-.93 0-1.698.712-1.698 1.588v.603a2.466 2.466 0 0 1-1.478-2.246zm23.002.383v-4.437c2.575-.876 4.437-3.615 4.437-6.846s-1.862-5.97-4.436-6.846v-1.37h-3.505v1.37c-2.575.876-4.437 3.614-4.437 6.846 0 3.231 1.862 5.97 4.437 6.846v4.436c-2.575.877-4.437 3.615-4.437 6.847 0 3.231 1.862 5.97 4.437 6.846v1.37h3.505v-1.37c2.574-.876 4.436-3.615 4.436-6.846 0-3.232-1.862-5.97-4.436-6.846zm-4.983-9.42v-3.616c0-.985.602-1.862 1.479-2.245v.602c0 .877.766 1.589 1.698 1.589h.164c.93 0 1.698-.712 1.698-1.589v-.602c.876.438 1.478 1.26 1.478 2.245v3.615c0 .986-.602 1.862-1.478 2.246v-.548c0-.876-.767-1.588-1.698-1.588h-.165c-.93 0-1.697.712-1.697 1.588v.602c-.877-.438-1.48-1.314-1.48-2.3zm6.463 18.073c0 .986-.603 1.862-1.48 2.246v-.877c0-.876-.766-1.588-1.697-1.588h-.164c-.931 0-1.698.712-1.698 1.588v.877c-.877-.438-1.479-1.26-1.479-2.246v-3.615c0-.986.602-1.862 1.479-2.245v.328c0 .877.767 1.589 1.698 1.589h.164c.931 0 1.698-.712 1.698-1.589v-.328c.876.438 1.479 1.26 1.479 2.245v3.615zm-39.709-14.35c-.054-.165-.054-.329-.164-.493 0-.055 5.532-7.175.438-11.556-5.093-4.382-11.009 1.314-11.063 1.369-.931-.274-1.917-.438-2.848-.548-1.917-.274-4.656 0-4.656 0-.93.055-1.862.22-2.793.493-.055-.055-5.97-5.75-11.063-1.37-5.094 4.382.383 11.502.438 11.557l-.165.493c-.547 3.067-4.272 3.998-4.272 9.31 0 5.423 3.889 9.695 11.885 9.695h3.287s1.26 1.698 3.888 1.807c0 0 .603.055 1.972 0 2.793 0 4.108-1.752 4.108-1.807h3.286c7.996 0 11.885-4.272 11.885-9.694.164-5.258-3.615-6.244-4.163-9.256z" fill="#000"/></svg>