<svg width="117" height="109" viewBox="0 0 117 109" fill="none" xmlns="http://www.w3.org/2000/svg"><path d="M8.943 65.788V54.062c0-.552-.446-1.044-.987-1.153a34.16 34.16 0 0 1-1.513-.347c-2-.5-2-7 .5-9.5 1.38-1.38 2.838-2.045 3.884-2.326.58-.155 1.048-.703 1.052-1.304.013-2.366.877-4.868 1.597-6.438.237-.517.133-1.281-.04-1.823-.26-.811-.493-2.244-.493-4.609 0-5 1.5-9.5 7-9.5 4.4 0 5.833 3 6 4.5 0-.167.9-.7 4.5-1.5.44-.098.83-.167 1.174-.211.982-.127 4.373.133 5.282-.258 10.01-4.3 22.627-3.577 29.359-2.37.756.136 1.41-.578 1.235-1.325-.505-2.145-.797-4.648.45-4.336.748.187 3.104-.504 3.211-1.268.421-3.002 1.483-5.744 3.789-5.232 1.137.253 1.805 1.443 2.187 2.954.29 1.142 3.303 1.81 4.103.945.576-.622 1.161-.99 1.71-.899 2.175.363 2.871 4.038 2.983 6.337.018.366.48.682.793.872.599.363 2.652.775 3.342.653.522-.091 1.147-.072 1.882.138 2.06.589 2.623 3.922 2.842 6.372.076.845 1.025 1.16 1.737.699.645-.418 1.365-.626 1.92-.071 1.093 1.092.611 4.752.139 6.908-.08.365.038.747.318.994l7.705 6.8a1 1 0 0 1 .339.75V42.7c0 .234.082.46.231.64l4.537 5.444c.15.18.232.406.232.64v9.445a1 1 0 0 1-.649.936l-6.872 2.577a1.001 1.001 0 0 0-.614.674l-2.799 10.262a.988.988 0 0 1-.241.427L90.525 84.476a1 1 0 0 1-.182.15l-28.901 18.615a1 1 0 0 1-1.02.037L17.184 79.694a1 1 0 0 1-.381-.368l-7.72-13.028a1 1 0 0 1-.14-.51z" fill="#A75" stroke="#fff" stroke-width="10" stroke-linecap="round" stroke-linejoin="round"/><path d="M8.943 65.788V54.062c0-.552-.446-1.044-.987-1.153a34.16 34.16 0 0 1-1.513-.347c-2-.5-2-7 .5-9.5 1.38-1.38 2.838-2.045 3.884-2.326.58-.155 1.048-.703 1.052-1.304.013-2.366.877-4.868 1.597-6.438.237-.517.133-1.281-.04-1.823-.26-.811-.493-2.244-.493-4.609 0-5 1.5-9.5 7-9.5 4.4 0 5.833 3 6 4.5 0-.167.9-.7 4.5-1.5.44-.098.83-.167 1.174-.211.982-.127 4.373.133 5.282-.258 10.01-4.3 22.627-3.577 29.359-2.37.756.136 1.41-.578 1.235-1.325-.505-2.145-.797-4.648.45-4.336.748.187 3.104-.504 3.211-1.268.421-3.002 1.483-5.744 3.789-5.232 1.137.253 1.805 1.443 2.187 2.954.29 1.142 3.303 1.81 4.103.945.576-.622 1.161-.99 1.71-.899 2.175.363 2.871 4.038 2.983 6.337.018.366.48.682.793.872.599.363 2.652.775 3.342.653.522-.091 1.147-.072 1.882.138 2.06.589 2.623 3.922 2.842 6.372.076.845 1.025 1.16 1.737.699.645-.418 1.365-.626 1.92-.071 1.093 1.092.611 4.752.139 6.908-.08.365.038.747.318.994l7.705 6.8a1 1 0 0 1 .339.75V42.7c0 .234.082.46.231.64l4.537 5.444c.15.18.232.406.232.64v9.445a1 1 0 0 1-.649.936l-6.872 2.577a1.001 1.001 0 0 0-.614.674l-2.799 10.262a.988.988 0 0 1-.241.427L90.525 84.476a1 1 0 0 1-.182.15l-28.901 18.615a1 1 0 0 1-1.02.037L17.184 79.694a1 1 0 0 1-.381-.368l-7.72-13.028a1 1 0 0 1-.14-.51z" fill="#A75" stroke="#000" stroke-width="3" stroke-linecap="round" stroke-linejoin="round"/><ellipse cx="55.756" cy="61.832" rx="46.5" ry="30.206" transform="rotate(2.582 55.756 61.832)" fill="#642" stroke="#000"/><path d="M101.71 55.838c-.366 8.107-5.76 15.286-14.322 20.315-8.557 5.025-20.224 7.863-32.97 7.288-12.745-.574-24.11-4.45-32.18-10.226-8.075-5.779-12.8-13.414-12.435-21.521.366-8.108 5.759-15.287 14.322-20.315 8.557-5.026 20.224-7.864 32.97-7.289 12.745.575 24.109 4.45 32.18 10.226 8.075 5.78 12.8 13.414 12.435 21.522z" fill="#3DD" stroke="#000"/><ellipse cx="27.5" cy="64" rx="5.5" ry="3" fill="#BEE"/><ellipse cx="19.5" cy="58" rx="3.5" ry="2" fill="#BEE"/><ellipse cx="76.5" cy="72" rx="5.5" ry="3" fill="#BEE"/><path d="M70.684 23.788C54.55 21.322 36.06 22.562 30.06 27.062c-2 5.5-1.875 10.726 5.125 12.726 5.6 1.6 10.333-.666 12-2 .833 1 3.7 3.2 8.5 4 4.8.8 8.333-1 9.5-2 14 7.5 37 13 40 7s0-17.726-34.5-23z" fill="#975" stroke="#000"/><path d="M71.06 18.788c-15.6-4.8-32.5-1-38.5 3.5-5 4.5-4 10.5 3 12.5 5.6 1.6 10.332-.666 12-2 .832 1 3.7 3.2 8.5 4 4.8.8 8.332-1 9.5-2 14 7.5 36.999 13 39.999 7s-15-17-34.5-23z" fill="#BE2" stroke="#000"/><path d="M68.443 12.062c-1.492-.746-.781 3.088-.138 5.501a.98.98 0 0 0 .627.67L83.77 23.42c.151.052.313.065.473.06 1.025-.03 1.714.54 3.2-3.918 1.386-4.158-.13-4.614-1.427-4.228-.363.108-.559.182-.567-.197-.03-1.531-.346-5.958-2.506-6.575-2.8-.8-4.434 3.036-4.5 3.5-.066.464-.4-6.9-4-6.5-3.6.4-3.834 6.833-3.5 10-.167-.833-.9-2.7-2.5-3.5z" fill="#AE2" stroke="#000" stroke-linejoin="round"/><path d="M90.443 16.062c-3.774 0-4.827 4.154-4.934 7.424a.967.967 0 0 0 .49.865l10.391 6.007c.564.326 1.297.039 1.45-.594.178-.733.353-1.706.603-3.702.4-3.2-1.834-3.667-3-3.5 0-2.167-1-6.5-5-6.5z" fill="#AE2"/><path d="M95.443 22.562c0-2.167-1-6.5-5-6.5-3.774 0-4.827 4.154-4.934 7.424a.967.967 0 0 0 .49.865l10.391 6.007c.564.326 1.297.039 1.45-.594.178-.733.353-1.706.603-3.702.4-3.2-1.834-3.667-3-3.5zm0 0-.5 1.5" stroke="#000" stroke-linecap="round" stroke-linejoin="round"/><path d="M18.71 17.583c-6 .4-6.167 8.5-5.5 12 1.17 4.68 14.159 2.77 20.987 1.126a.92.92 0 0 0 .678-.63c.601-2.04 1.037-5.927-1.165-8.496-1.964-2.29-4.507-.944-6.372.26-.564.364-1.34.092-1.659-.499-.845-1.568-2.843-4.036-6.97-3.76z" fill="#483" stroke="#000" stroke-linecap="round" stroke-linejoin="round"/><path d="M19.14 49.338c-.111 2.45-3.902 4.349-7.673 4.179-3.771-.17-5.438-1.73-5.328-4.179 0-6 2.729-8.67 6.5-8.5 3.771.17 6.61 6.05 6.5 8.5z" fill="#7B9" stroke="#000"/><path d="M37.425 40.262c-.15 3.332-7.45 5.819-14.765 5.49-7.316-.33-10.589-2.497-10.439-5.829-.156-8.168 5.064-11.732 12.38-11.402 7.316.33 12.974 8.41 12.824 11.741z" fill="#7B9" stroke="#000"/><path d="M111.944 53.562c-.15 3.332-2.968 8.262-10.283 7.932-5.717-.258-8.868-3.6-8.718-6.932-.156-8.168 3.343-10.628 10.659-10.298 7.316.33 8.492 5.966 8.342 9.298z" fill="#642" stroke="#000"/><ellipse cx="12.696" cy="43.77" rx="4.623" ry="3.003" transform="rotate(2.582 12.696 43.77)" fill="#AE2" stroke="#000"/><ellipse cx="23.443" cy="33.062" rx="8.244" ry="5.877" transform="rotate(2.582 23.443 33.062)" fill="#AE2" stroke="#000"/><ellipse cx="102.443" cy="48.804" rx="8.244" ry="5.877" transform="rotate(2.582 102.443 48.804)" fill="#AE2" stroke="#000"/><path d="m62.443 38.062-1-9h9v8c-.5 2.5-7 3-8 1zm-28 24.5-1-19.5h9l-1 19.5c-.5 2.5-6 2-7 0z" fill="#A62" stroke="#000"/><path d="M70.443 28.562c0 .584-.397 1.198-1.222 1.693-.815.488-1.972.807-3.278.807s-2.464-.319-3.278-.807c-.825-.495-1.222-1.11-1.222-1.693 0-.584.397-1.198 1.222-1.693.814-.488 1.972-.807 3.278-.807s2.463.319 3.278.807c.825.495 1.222 1.11 1.222 1.693zm-28 14c0 .584-.397 1.198-1.222 1.693-.815.488-1.972.807-3.278.807s-2.464-.319-3.278-.807c-.825-.495-1.222-1.11-1.222-1.693 0-.584.397-1.198 1.222-1.693.814-.488 1.972-.807 3.278-.807s2.463.319 3.278.807c.825.495 1.222 1.11 1.222 1.693z" fill="#FE6" stroke="#000"/><path d="m49.982 41.222-9.184 3.195a1 1 0 0 0-.242 1.765l15.805 10.976a1 1 0 0 0 1.156-.01l7.239-5.229a1 1 0 0 0-.043-1.65l-13.86-8.942a1 1 0 0 0-.87-.105z" fill="#DA4" stroke="#000" stroke-linejoin="round"/><path d="m56.76 66.982-6.29-.74c-.718-.085-1.109-.876-.694-1.469 6.81-9.736 24.325-18.128 33.744-21.687.673-.255 1.37.279 1.322.997l-.276 4.14c-.053.791-1.081 1.383-1.874 1.364-1.579-.037-4.368.535-9.25 2.975-9.445 4.723-13.686 10.339-15.673 13.896a1.023 1.023 0 0 1-1.01.524z" fill="#532" stroke="#000" stroke-linejoin="round"/><path d="m69.05 34.686-6.833 2.158c-.846.267-.951 1.42-.168 1.837l13.531 7.188a1 1 0 0 0 .757.075l7.233-2.17c.861-.258.97-1.435.17-1.847l-13.93-7.176a1 1 0 0 0-.76-.065z" fill="#DA4" stroke="#000" stroke-linejoin="round"/><path d="m60.03 37.707-7.621 2.667a1 1 0 0 0-.2 1.792l13.758 8.599a1 1 0 0 0 .978.046l7.763-3.882a1 1 0 0 0 .022-1.777l-13.9-7.385a1 1 0 0 0-.8-.06zm-21.508 7.981-8.389 2.517a1 1 0 0 0-.587 1.443l4.253 7.655a1 1 0 0 0 .405.398l14.648 7.781a1 1 0 0 0 1.43-.608l.584-2.042a1 1 0 0 1 .283-.46l5.309-4.9a1 1 0 0 0-.167-1.595l-16.97-10.09a1 1 0 0 0-.799-.099z" fill="#DA4" stroke="#000" stroke-linejoin="round"/><path d="m49.457 60.77-17.14-10.284c-.618-.37-1.32.332-.95.95a.69.69 0 0 0 .196.21l16.805 11.81a1 1 0 0 0 1.575-.819v-1.009a1 1 0 0 0-.486-.857z" fill="#FE6"/><path d="m82.443 58.562-1-19.5h9v18.5c-.5 2.5-7 3-8 1zm-29 16-1-19.5h9v18.5c-.5 2.5-7 3-8 1z" fill="#A62" stroke="#000"/><path d="M90.443 38.562c0 .584-.397 1.198-1.222 1.693-.815.488-1.972.807-3.278.807s-2.464-.319-3.278-.807c-.825-.495-1.222-1.11-1.222-1.693 0-.584.397-1.198 1.222-1.693.814-.488 1.972-.807 3.278-.807s2.463.319 3.278.807c.825.495 1.222 1.11 1.222 1.693zm-29 16c0 .584-.397 1.198-1.222 1.693-.815.488-1.972.807-3.278.807s-2.464-.319-3.278-.807c-.825-.495-1.222-1.11-1.222-1.693 0-.584.397-1.198 1.222-1.693.814-.488 1.972-.807 3.278-.807s2.463.319 3.278.807c.825.495 1.222 1.11 1.222 1.693z" fill="#FE6" stroke="#000"/></svg>