<svg width="1544" height="362" viewBox="0 0 1544 362" fill="none" xmlns="http://www.w3.org/2000/svg"><path d="M522.5 201.275c8.667-18.5 28.207-48.305 47-54 16.5-5 25.5 10 25.5 10 8.5-14 25.925-18.445 40-10 9.29 5.574 3.908 17.191-1.714 20.816 7.573-3.85 21.439-7.885 25.214 2.684 3.451 9.662-2.277 17.289-6.911 21.021 6.5-4.289 18.483-9.663 27.411-5.021 10 5.2 8.5 11.833 6.5 14.5 13.667-8.333 42.5-17 48.5 15H522.5v-15z" fill="#719243" stroke="#000"/><path fill="url(#a)" stroke="#000" d="M511.5 215.5h521v298h-521z"/><path fill="#95BDFF" d="M507 241h543v43H507z"/><path d="M584.853 241.975c-36.413 0-53.207-6.421-61.853-17.22V216h211c-5.986 18.678-34.751 13.62-48.385 8.755 1.995 1.557 3.491 5.429-6.485 8.464s-23.777-1.265-29.43-3.794c-13.967 10.74-49.051 12.841-64.847 12.55z" fill="#95BDFF"/><path d="M0 205.5h-.5v298h552.479l.021-.479c4.001-93.539-3.877-167.825-12.757-218.732-4.441-25.453-9.132-45.062-12.713-58.31-1.791-6.624-3.305-11.658-4.372-15.038a201.193 201.193 0 0 0-1.243-3.82 99.629 99.629 0 0 0-.33-.964l-.085-.243-.022-.062-.005-.015-.002-.004c0-.001 0-.002-.471.167l.471-.169-.119-.331H0zm1551.12 0h.5v298h-544.1l-.02-.479c-4-93.531 1.78-167.811 8.56-218.712 3.39-25.451 7.04-45.057 9.83-58.303 1.4-6.623 2.58-11.656 3.42-15.034.42-1.69.75-2.965.98-3.819.11-.427.2-.749.25-.964.03-.108.06-.188.07-.243l.02-.061v-.02c0-.001.01-.001.49.135l-.48-.136.1-.364h520.38z" fill="#A7CC55" stroke="#000"/><rect x="-21.5" y="128.5" width="560" height="79" rx="8.5" fill="#B6DF5D" stroke="#000"/><rect x=".5" y="-.5" width="560" height="79" rx="8.5" transform="matrix(-1 0 0 1 1573.12 129)" fill="#B6DF5D" stroke="#000"/><path d="m1055.69 118.934-12.72 10.866c-.78.672-.16 1.951.86 1.739l4.74-.993a.38.38 0 0 1 .39.59c-.2.275.04.649.37.592l4.97-.845c.18-.031.29.203.15.322-.16.126-.03.372.16.317l2.7-.77c.27-.078.56.064.67.328.08.217.29.357.52.349 2.19-.074 13.01-.46 13.43-.802.85-.696 4.45-3.3 7.25-5.66.79-.672.16-1.621-.8-1.22l-7.77 3.232c-.8.337-1.62-.454-1.32-1.273l1.56-4.157c.27-.723-.34-1.45-1.09-1.262-3.59.902-8.53 2.804-11.79 4.163a1.013 1.013 0 0 1-1.38-1.145l.73-3.4c.2-.935-.9-1.592-1.63-.971z" fill="#16643C"/><path d="m1040 132.339 15.69-13.405c.73-.621 1.83.036 1.63.971l-.73 3.4c-.17.797.63 1.459 1.38 1.145 3.26-1.359 8.2-3.261 11.79-4.163.75-.188 1.36.539 1.09 1.262l-1.56 4.157c-.3.819.52 1.61 1.32 1.273l7.77-3.232c.96-.401 1.59.548.8 1.22-2.8 2.36-6.4 4.964-7.25 5.66" stroke="#000" stroke-linecap="round" stroke-linejoin="round"/><path d="m610.356 110-12.528 4.85 12.528 5.657 11.316-5.657-11.316-4.85z" fill="#BC9549" stroke="#000" stroke-linejoin="round"/><path d="m621 130-10.644 4.041v-13.534l11.316-5.657L621 130z" fill="#76500D" stroke="#000" stroke-linejoin="round"/><path d="m598.5 130.5 11.856 3.042v-13.035l-12.528-5.657.672 15.65z" fill="#7A4A12" stroke="#000" stroke-linejoin="round"/><path d="m950.356 109-12.528 4.85 12.528 5.657 11.316-5.657-11.316-4.85z" fill="#BC9549" stroke="#000" stroke-linejoin="round"/><path d="m961 129-10.644 4.041v-13.534l11.316-5.657L961 129z" fill="#76500D" stroke="#000" stroke-linejoin="round"/><path d="m938.5 129.5 11.856 3.042v-13.035l-12.528-5.657.672 15.65z" fill="#7A4A12" stroke="#000" stroke-linejoin="round"/><path d="M612.5 130.413H610l8 62.467 3 .302 7.5-.302H655l-10.5-64.607-16 2.14H625l-4.5-2.14h-8v2.14z" fill="#BC9549"/><path d="M620.5 128.273h-8v2.14H610l8 62.467 3 .302 7.5-.302m-8-64.607 4.5 2.14h3.5l16-2.14L655 192.88h-26.5m-8-64.607c1.5 3.804 2 4.909 2 10.045s5.833 35.367 7 39.409m-1 15.153s-3.1-14.083-3.5-19.789m16-39.409c1.667 12.725 7 47.529 7 52.367" stroke="#000"/><path d="M511 125.182h11l.5-.773h5.5l.5-.773h10l3 2.318 2.5 61.818h-12l-1.5-3.09v3.09H515l1.5-8.5-4.5 10.046h-10c2.5-12.364 7.5-38.636 7.5-44.818 0-6.182 1-15.455 1.5-19.318z" fill="#BC9549"/><path d="M538 187.772h6l-2.5-61.818-3-2.318H537m1 64.136h-6l-1.5-3.09v3.09H515l1.5-8.5-4.5 10.046h-10c2.5-12.364 7.5-38.636 7.5-44.818 0-6.182 1-15.455 1.5-19.318h11l.5-.773h5.5l.5-.773h8.5m1 64.136c-.833-11.333-2.4-36.781-2-47.909.4-11.127.833-15.454 1-16.227" stroke="#000"/><path d="M522 198.591h-18l-2-9.273h10l4.5-10.045-1.5 8.5h15.5v-3.091l1.5 3.091h12l.5 9.272H529l-1 .773h-5.5l-.5.773z" fill="#76500D"/><path d="M518.5 187.773h12v-3.091l1.5 3.091h12l.5 9.272H529l-1 .773h-5.5l-.5.773h-18l-2-9.273h7m9.5-1.545H515l1.5-8.5-4.5 10.045h-3m9.5-1.545c1.167-9.273 3.8-29.982 5-38.637M509 189.318l13.5-56.409v-8.5" stroke="#000"/><path d="M544.5 200.909v-12.364l38 3.864v8.5h-24l-2.5 1.546-11.5-1.546zm38-.773v-12.363l36.5 4.636v9.273h-8.5l-12.5 1.545-4-1.545-11.5-1.546zm36.5 1.7v-8.654h36v8.654h-21.205l-1.48 2.164L619 201.836z" fill="#76500D" stroke="#000"/><path d="M544.5 128.273H542l2.5 60.272 2.5 5.409 7.5-.326 28-1.219-8.5-64.136h-17l-4.5-2.319h-8v2.319z" fill="#BC9549"/><path d="M552.5 125.954h-8v2.319H542l2.5 60.272 2.5 5.409 7.5-.326m-2-67.674 4.5 2.319h17l8.5 64.136-28 1.219m-2-67.674c1.5 4.122 4.5 13.755 4.5 19.319 0 5.563 2.333 15.712 3.5 20.09m-6 28.265c-1.333-15.861-4.1-49.128-4.5-55.31m19 0c1.667 13.786 5 42.668 5 47.909" stroke="#000"/><path d="M576.5 125.182H574l8.5 62.591 2.5 5.409 7.5-.327H619l-10.5-69.991-16 2.318H589l-4.5-2.318h-8v2.318z" fill="#BC9549"/><path d="M584.5 122.864h-8v2.318H574l8.5 62.591 2.5 5.409 7.5-.327m-8-69.991 4.5 2.318h3.5l16-2.318 10.5 69.991h-26.5m-8-69.991c1.5 4.121 4.5 13.754 4.5 19.318 0 5.563 8.333 18.03 9.5 22.409m-6 28.264c-1.333-15.861-10.1-51.446-10.5-57.628m19 0c1.667 13.786 11 44.986 11 50.228" stroke="#000"/><path d="M743.5 130.413H741l8 62.467 3 .302 7.5-.302H786l-10.5-64.607-16 2.14H756l-4.5-2.14h-8v2.14z" fill="#BC9549"/><path d="M751.5 128.273h-8v2.14H741l8 62.467 3 .302 7.5-.302m-8-64.607 4.5 2.14h3.5l16-2.14L786 192.88h-26.5m-8-64.607c1.5 3.804 2 4.909 2 10.045s5.833 35.367 7 39.409m-1 15.153s-3.1-14.083-3.5-19.789m16-39.409c1.667 12.725 7 47.529 7 52.367" stroke="#000"/><path d="M642 125.182h11l.5-.773h5.5l.5-.773h10l3 2.318 2.5 61.818h-12l-1.5-3.09v3.09H646l1.5-8.5-4.5 10.046h-10c2.5-12.364 7.5-38.636 7.5-44.818 0-6.182 1-15.455 1.5-19.318z" fill="#BC9549"/><path d="M669 187.772h6l-2.5-61.818-3-2.318H668m1 64.136h-6l-1.5-3.09v3.09H646l1.5-8.5-4.5 10.046h-10c2.5-12.364 7.5-38.636 7.5-44.818 0-6.182 1-15.455 1.5-19.318h11l.5-.773h5.5l.5-.773h8.5m1 64.136c-.833-11.333-2.4-36.781-2-47.909.4-11.127.833-15.454 1-16.227" stroke="#000"/><path d="M653 198.591h-18l-2-9.273h10l4.5-10.045-1.5 8.5h15.5v-3.091l1.5 3.091h12l.5 9.272H660l-1 .773h-5.5l-.5.773z" fill="#76500D"/><path d="M649.5 187.773h12v-3.091l1.5 3.091h12l.5 9.272H660l-1 .773h-5.5l-.5.773h-18l-2-9.273h7m9.5-1.545H646l1.5-8.5-4.5 10.045h-3m9.5-1.545c1.167-9.273 3.8-29.982 5-38.637M640 189.318l13.5-56.409v-8.5" stroke="#000"/><path d="M675.5 200.909v-12.364l38 3.864v8.5h-24l-2.5 1.546-11.5-1.546zm38-.773v-12.363l36.5 4.636v9.273h-8.5l-12.5 1.545-4-1.545-11.5-1.546zm36.5 1.7v-8.654h36v8.654h-21.205l-1.48 2.164L750 201.836z" fill="#76500D" stroke="#000"/><path d="M675.5 128.273H673l2.5 60.272 2.5 5.409 7.5-.326 28-1.219-8.5-64.136h-17l-4.5-2.319h-8v2.319z" fill="#BC9549"/><path d="M683.5 125.954h-8v2.319H673l2.5 60.272 2.5 5.409 7.5-.326m-2-67.674 4.5 2.319h17l8.5 64.136-28 1.219m-2-67.674c1.5 4.122 4.5 13.755 4.5 19.319 0 5.563 2.333 15.712 3.5 20.09m-6 28.265c-1.333-15.861-4.1-49.128-4.5-55.31m19 0c1.667 13.786 5 42.668 5 47.909" stroke="#000"/><path d="M707.5 125.182H705l8.5 62.591 2.5 5.409 7.5-.327H750l-10.5-69.991-16 2.318H720l-4.5-2.318h-8v2.318z" fill="#BC9549"/><path d="M715.5 122.864h-8v2.318H705l8.5 62.591 2.5 5.409 7.5-.327m-8-69.991 4.5 2.318h3.5l16-2.318 10.5 69.991h-26.5m-8-69.991c1.5 4.121 4.5 13.754 4.5 19.318 0 5.563 8.333 18.03 9.5 22.409m-6 28.264c-1.333-15.861-10.1-51.446-10.5-57.628m19 0c1.667 13.786 11 44.986 11 50.228" stroke="#000"/><path d="M872.5 130.413H870l8 62.467 3 .302 7.5-.302H915l-10.5-64.607-16 2.14H885l-4.5-2.14h-8v2.14z" fill="#BC9549"/><path d="M880.5 128.273h-8v2.14H870l8 62.467 3 .302 7.5-.302m-8-64.607 4.5 2.14h3.5l16-2.14L915 192.88h-26.5m-8-64.607c1.5 3.804 2 4.909 2 10.045s5.833 35.367 7 39.409m-1 15.153s-3.1-14.083-3.5-19.789m16-39.409c1.667 12.725 7 47.529 7 52.367" stroke="#000"/><path d="M771 125.182h11l.5-.773h5.5l.5-.773h10l3 2.318 2.5 61.818h-12l-1.5-3.09v3.09H775l1.5-8.5-4.5 10.046h-10c2.5-12.364 7.5-38.636 7.5-44.818 0-6.182 1-15.455 1.5-19.318z" fill="#BC9549"/><path d="M798 187.772h6l-2.5-61.818-3-2.318H797m1 64.136h-6l-1.5-3.09v3.09H775l1.5-8.5-4.5 10.046h-10c2.5-12.364 7.5-38.636 7.5-44.818 0-6.182 1-15.455 1.5-19.318h11l.5-.773h5.5l.5-.773h8.5m1 64.136c-.833-11.333-2.4-36.781-2-47.909.4-11.127.833-15.454 1-16.227" stroke="#000"/><path d="M782 198.591h-18l-2-9.273h10l4.5-10.045-1.5 8.5h15.5v-3.091l1.5 3.091h12l.5 9.272H789l-1 .773h-5.5l-.5.773z" fill="#76500D"/><path d="M778.5 187.773h12v-3.091l1.5 3.091h12l.5 9.272H789l-1 .773h-5.5l-.5.773h-18l-2-9.273h7m9.5-1.545H775l1.5-8.5-4.5 10.045h-3m9.5-1.545c1.167-9.273 3.8-29.982 5-38.637M769 189.318l13.5-56.409v-8.5" stroke="#000"/><path d="M804.5 200.909v-12.364l38 3.864v8.5h-24l-2.5 1.546-11.5-1.546zm38-.773v-12.363l36.5 4.636v9.273h-8.5l-12.5 1.545-4-1.545-11.5-1.546zm36.5 1.7v-8.654h36v8.654h-21.205l-1.48 2.164L879 201.836z" fill="#76500D" stroke="#000"/><path d="M804.5 128.273H802l2.5 60.272 2.5 5.409 7.5-.326 28-1.219-8.5-64.136h-17l-4.5-2.319h-8v2.319z" fill="#BC9549"/><path d="M812.5 125.954h-8v2.319H802l2.5 60.272 2.5 5.409 7.5-.326m-2-67.674 4.5 2.319h17l8.5 64.136-28 1.219m-2-67.674c1.5 4.122 4.5 13.755 4.5 19.319 0 5.563 2.333 15.712 3.5 20.09m-6 28.265c-1.333-15.861-4.1-49.128-4.5-55.31m19 0c1.667 13.786 5 42.668 5 47.909" stroke="#000"/><path d="M836.5 125.182H834l8.5 62.591 2.5 5.409 7.5-.327H879l-10.5-69.991-16 2.318H849l-4.5-2.318h-8v2.318z" fill="#BC9549"/><path d="M844.5 122.864h-8v2.318H834l8.5 62.591 2.5 5.409 7.5-.327m-8-69.991 4.5 2.318h3.5l16-2.318 10.5 69.991h-26.5m-8-69.991c1.5 4.121 4.5 13.754 4.5 19.318 0 5.563 8.333 18.03 9.5 22.409m-6 28.264c-1.333-15.861-10.1-51.446-10.5-57.628m19 0c1.667 13.786 11 44.986 11 50.228" stroke="#000"/><path d="M1002.5 126.549h-2.5l8 62.468 3 .301 7.5-.301h26.5l-10.5-64.608-16 2.14h-3.5l-4.5-2.14h-8v2.14z" fill="#BC9549"/><path d="M1010.5 124.409h-8v2.14h-2.5l8 62.468 3 .301 7.5-.301m-8-64.608 4.5 2.14h3.5l16-2.14 10.5 64.608h-26.5m-8-64.608c1.5 3.804 2 4.91 2 10.046 0 5.135 5.83 35.367 7 39.409m-1 15.153s-3.1-14.083-3.5-19.79m16-39.409c1.67 12.725 7 47.529 7 52.367" stroke="#000"/><path d="M901 121.318h11l.5-.772h5.5l.5-.773h10l3 2.318 2.5 61.818h-12l-1.5-3.091v3.091H905l1.5-8.5-4.5 10.046h-10c2.5-12.364 7.5-38.637 7.5-44.819 0-6.181 1-15.454 1.5-19.318z" fill="#BC9549"/><path d="M928 183.909h6l-2.5-61.818-3-2.318H927m1 64.136h-6l-1.5-3.091v3.091H905l1.5-8.5-4.5 10.046h-10c2.5-12.364 7.5-38.637 7.5-44.819 0-6.181 1-15.454 1.5-19.318h11l.5-.772h5.5l.5-.773h8.5m1 64.136c-.833-11.333-2.4-36.782-2-47.909.4-11.127.833-15.454 1-16.227" stroke="#000"/><path d="M912 194.727h-18l-2-9.273h10l4.5-10.045-1.5 8.5h15.5v-3.091l1.5 3.091h12l.5 9.273H919l-1 .772h-5.5l-.5.773z" fill="#76500D"/><path d="M908.5 183.909h12v-3.091l1.5 3.091h12l.5 9.273H919l-1 .772h-5.5l-.5.773h-18l-2-9.273h7m9.5-1.545H905l1.5-8.5-4.5 10.045h-3m9.5-1.545c1.167-9.273 3.8-29.982 5-38.636M899 185.454l13.5-56.409v-8.5" stroke="#000"/><path d="M934.5 197.046v-12.364l38 3.864v8.5h-24l-2.5 1.545-11.5-1.545zm38-.773v-12.364l36.5 4.636v9.273h-8.5l-12.5 1.546-4-1.546-11.5-1.545z" fill="#76500D" stroke="#000"/><path d="M1009 197.973v-8.655h36v8.655h-21.21l-1.47 2.163-13.32-2.163z" fill="#76500D" stroke="#000"/><path d="M934.5 124.409H932l2.5 60.273 2.5 5.409 7.5-.327 28-1.219-8.5-64.136h-17l-4.5-2.318h-8v2.318z" fill="#BC9549"/><path d="M942.5 122.091h-8v2.318H932l2.5 60.273 2.5 5.409 7.5-.327m-2-67.673 4.5 2.318h17l8.5 64.136-28 1.219m-2-67.673c1.5 4.121 4.5 13.754 4.5 19.318 0 5.564 2.333 15.712 3.5 20.091m-6 28.264c-1.333-15.861-4.1-49.128-4.5-55.31m19 0c1.667 13.786 5 42.668 5 47.91" stroke="#000"/><path d="M966.5 121.318H964l8.5 62.591 2.5 5.409 7.5-.326h26.5L998.5 119l-16 2.318H979L974.5 119h-8v2.318z" fill="#BC9549"/><path d="M974.5 119h-8v2.318H964l8.5 62.591 2.5 5.409 7.5-.326m-8-69.992 4.5 2.318h3.5l16-2.318 10.5 69.992h-26.5m-8-69.992c1.5 4.121 4.5 13.755 4.5 19.318 0 5.564 8.333 18.03 9.5 22.409m-6 28.265c-1.333-15.861-10.1-51.447-10.5-57.628m19 0c1.667 13.785 11 44.985 11 50.227" stroke="#000"/><path d="M484.491 124.532c2.019 1.052 7.131 5.021 9.784 7.153.248.198.573.268.88.188l2.158-.563a.428.428 0 0 1 .451.671.429.429 0 0 0 .461.669l4.604-1.315c.313-.09.54.296.31.526-.245.245.026.649.345.514l2.559-1.077c.419-.176.777.35.46.674-.292.299-.012.793.394.696l2.043-.485c.451-.107.764-.52.939-.949.708-1.733 3.5-4.033 6.073-5.832.833-.582.444-1.712-.54-1.46-2.32.596-4.634 1.598-6.244 2.416-.611.31-1.255-.058-1.015-.7.542-1.452 1.918-3.382 3.177-4.937.547-.675.076-1.611-.756-1.36-3.538 1.07-7.35 4.29-9.616 6.607-.488.499-1.31.367-1.343-.33a5.111 5.111 0 0 1 .114-1.273c.211-1.006-.907-2.191-1.774-1.639-1.973 1.257-3.273 2.508-4.009 3.416-.365.45-1.026.623-1.551.378-3.337-1.558-10.298-3.235-7.904-1.988z" fill="#16643C"/><path d="M494.667 132c-2.507-2.028-8.052-6.362-10.176-7.468-2.394-1.247 4.567.43 7.904 1.988.525.245 1.186.072 1.551-.378.736-.908 2.036-2.159 4.009-3.416.867-.552 1.985.633 1.774 1.639a5.111 5.111 0 0 0-.114 1.273c.033.697.855.829 1.343.33 2.266-2.317 6.078-5.537 9.616-6.607.832-.251 1.303.685.756 1.36-1.259 1.555-2.635 3.485-3.177 4.937-.24.642.404 1.01 1.015.7 1.61-.818 3.924-1.82 6.244-2.416.984-.252 1.373.878.54 1.46-2.975 2.08-6.243 4.83-6.243 6.598" stroke="#000" stroke-linecap="round" stroke-linejoin="round"/><path d="M959.865 174 946 179.367l13.865 6.261 12.522-6.261L959.865 174z" fill="#BC9549" stroke="#000" stroke-linejoin="round"/><path d="m967.468 276.028-7.603 4.472v-94.872l12.522-6.261-4.919 96.661z" fill="#76500D" stroke="#000" stroke-linejoin="round"/><path d="m950.367 278.133 9.498 2.367v-94.872L946 179.367l4.367 98.766z" fill="#7A4A12" stroke="#000" stroke-linejoin="round"/><path d="M988.598 199 960 221.475V232.5l41-33.5h-12.402z" fill="#76500D" stroke="#000"/><path d="M917.538 197 948 221.049V231l-44-34h13.538z" fill="#76500D" stroke="#000" stroke-linejoin="round"/><path d="m917 197 31 24v-3.31L921.306 197H917z" fill="#87662A" stroke="#000" stroke-linejoin="round"/><path d="M600.865 175 590 181l10.865 5.628 12.522-6.261L600.865 175z" fill="#BC9549" stroke="#000" stroke-linejoin="round"/><path d="m608.468 277.028-7.603 4.472v-94.872l12.522-6.261-4.919 96.661z" fill="#76500D" stroke="#000" stroke-linejoin="round"/><path d="m591.367 279.133 9.498 2.367v-94.872L590 181l1.367 98.133z" fill="#7A4A12" stroke="#000" stroke-linejoin="round"/><path d="m572 201 18.5 18v12l-31-30H572z" fill="#76500D" stroke="#000"/><path d="m572.5 201.5 18 17.5v-4l-13-13.5h-5z" fill="#87662A" stroke="#000"/><path d="M1064.69 193.462c-1.37 3.18-4.22 5.337-5.47 6.018.77-2.306 2.88-7.747 5.19-11.066 2.88-4.149 7.79-4.963 8-3.143.21 1.82-6.01 4.216-7.72 8.191zm-14.03-2.473c4.28 1.125 7.14 3.656 8.03 4.78-.18-3.193-3.8-6.086-6.74-6.668-2.94-.582-6.66.48-1.29 1.888z" fill="#14653C" stroke="#000"/><path d="M1058.56 197.625c-.43-7.731-2.48-12.14-3.44-13.378.05-1.582.67-3.699 2.72.494 2.55 5.241 1.26 22.546.72 12.884z" fill="#14653C" stroke="#000"/><path d="M1053.48 167.16c8.45-3.767 9.91-1.836 12.59 0 5.25 5.309 2.68 9.662-2.68 11.692-5.36 2.03-3.57 7.957-8.45 9.499-3.89 1.234-6.76-1.164-7.71-2.517-3.38.65-10.16.163-10.23-6.982-.08-8.931 5.93-6.982 16.48-11.692z" fill="#F08A95" stroke="#000"/><path d="M1058.29 167.787c2.99-2.338 5.74.325 6.74 1.949.98 2.841 1.14 5.439-4.55 8.119-5.68 2.679-4.54 5.439-11.77 6.738-7.22 1.299-10.31-9.418-6.25-11.772 4.06-2.355 5.93 3.166 9.58 2.354 3.65-.812 2.52-4.465 6.25-7.388z" fill="#E36974"/><path d="M1049.15 173.662c-2.6 2.355-.4 3.654 2.6 2.761 1.39-.414 2.56-1.303 3.41-2.167-1.3-2.167-3.41-2.948-6.01-.594z" fill="#EBF479"/><path d="M1056.46 172.607a8.802 8.802 0 0 1-1.3 1.649m0 0c-.85.864-2.02 1.753-3.41 2.167-3 .893-5.2-.406-2.6-2.761 2.6-2.354 4.71-1.573 6.01.594z" stroke="#000"/><path d="M586 263.165c-11.162 2.269-19 7.609-19 13.835 0 8.284 13.879 15 31 15 17.121 0 31-6.716 31-15 0-5.552-6.234-10.4-15.5-12.993" stroke="#fff"/><path d="M598 296c22.091 0 40-8.617 40-19.248 0-7.124-8.044-13.344-20-16.672m-60 16.672c0-7.988 10.114-14.84 24.516-17.752M944 263.165c-11.162 2.269-19 7.609-19 13.835 0 8.284 13.879 15 31 15 17.121 0 31-6.716 31-15 0-5.552-6.234-10.4-15.5-12.993" stroke="#fff"/><path d="M996 276.753c0-7.125-8.044-13.345-20-16.673M956 296c-22.091 0-40-8.617-40-19.247" stroke="#fff"/><path d="M1151.86 83 1141 89l10.86 5.628 12.53-6.261L1151.86 83z" fill="#BC9549" stroke="#000" stroke-linejoin="round"/><path d="m1159.47 140.661-7.61 4.472V50.261L1164.39 44l-4.92 96.661z" fill="#76500D" stroke="#000" stroke-linejoin="round"/><path d="m1142.37 142.766 9.49 2.367V50.261L1141 44.633l1.37 98.133z" fill="#7A4A12" stroke="#000" stroke-linejoin="round"/><path d="M1077.46 16.03c.14-1.41 7-4.892 10.55-6.442.62-.269 1.29.158 1.34.827l4.76 63.649c.01.124 0 .25-.04.368l-9.87 32.054a.993.993 0 0 1-1.42.588l-9.89-5.277c-.35-.19-.56-.576-.52-.978l1.17-12.2a1.1 1.1 0 0 1 .08-.31l.99-2.226a.425.425 0 0 0-.35-.59.425.425 0 0 1-.38-.46l1.17-12.194c.03-.264.16-.507.36-.676l2.03-1.677a.997.997 0 0 0 0-1.547l-1.51-1.233a.992.992 0 0 1-.37-.746l-.68-23.455c-.01-.27.1-.532.28-.725l3.57-3.68a1 1 0 0 0 .06-1.333l-2.79-3.382a1.016 1.016 0 0 1-.23-.73l1.69-17.624z" fill="#7A4A12" stroke="#000" stroke-linecap="round" stroke-linejoin="round"/><path d="m1220.39 13.615-133.21-3.8a1.003 1.003 0 0 0-1.03 1l-.01 20.204 4.8 6.832a.983.983 0 0 1-.18 1.347l-3.34 2.759c-.21.175-.34.431-.36.706l-1.9 29.23c-.02.307.1.605.33.81l2.58 2.31a1 1 0 0 1-.01 1.506l-3.39 2.894-1.75 27.045a.995.995 0 0 0 1.02 1.064l139.79-3.532c.56-.014 1-.482.98-1.04l-.92-22.882a.997.997 0 0 0-.38-.75l-4.08-3.174 3.88-5.396c.13-.181.2-.4.19-.624l-1.32-32.815a.935.935 0 0 0-.22-.596l-2.51-3.034 3.1-3.395a.972.972 0 0 0 .25-.763l-1.35-14.996a.994.994 0 0 0-.96-.91z" fill="#BC9549"/><path d="m1219.35 33.679 3.1-3.395a.972.972 0 0 0 .25-.763l-1.35-14.996a.994.994 0 0 0-.96-.91l-133.21-3.8a1.003 1.003 0 0 0-1.03 1l-.01 20.204m133.21 2.66 2.51 3.034c.14.168.22.378.22.596l1.32 32.815a.998.998 0 0 1-.19.624l-3.88 5.396m.02-42.465c-1.09.905-4.89 2.563-11.31 1.949m-121.9-4.61 4.8 6.833a.983.983 0 0 1-.18 1.347l-3.34 2.759c-.21.175-.34.431-.36.706l-1.9 29.23c-.02.307.1.605.33.81l2.58 2.31a1 1 0 0 1-.01 1.506l-3.39 2.894m1.47-48.394c7.14-.664 25.41-1.406 33.35.164m99.84 44.96 4.08 3.176c.23.18.37.455.38.749l.92 22.882c.02.558-.42 1.026-.98 1.04l-139.79 3.532a.995.995 0 0 1-1.02-1.064l1.75-27.045m134.66-3.27-17.23.372m-117.43 2.898c6.17 1.94 19.16 5.476 21.71 4.104m57.54-62.231c12.55-.82 39.25-2.304 45.66-1.69" stroke="#000" stroke-linecap="round" stroke-linejoin="round"/><path d="M1132 32a8 8 0 0 1 8-8h22a8 8 0 0 1 8 8v22a8 8 0 0 1-8 8h-22a8 8 0 0 1-8-8V32z" fill="#131419"/><mask id="b" style="mask-type:luminance" maskUnits="userSpaceOnUse" x="1139" y="31" width="24" height="24"><path d="M1139.6 31.6h22.8v22.8h-22.8V31.6z" fill="#fff"/></mask><g mask="url(#b)"><mask id="c" style="mask-type:luminance" maskUnits="userSpaceOnUse" x="1139" y="31" width="24" height="24"><path d="M1139.6 31.6h22.8v22.8h-22.8V31.6z" fill="#fff"/></mask><g mask="url(#c)"><path d="m1153.26 32.507.61 1.421a11.76 11.76 0 0 0 6.2 6.204l1.43.607c.37.159.67.386.9.657-.71-5.075-4.72-9.089-9.79-9.796.27.233.49.535.65.907zm-12.75 8.232 1.42-.607a11.76 11.76 0 0 0 6.2-6.204l.61-1.42c.15-.35.37-.66.66-.908a11.517 11.517 0 0 0-9.8 9.796c.23-.27.54-.498.91-.657zm20.99 4.522-1.43.607a11.76 11.76 0 0 0-6.2 6.205l-.61 1.42c-.14.35-.37.66-.65.908 5.07-.708 9.08-4.722 9.79-9.797-.25.286-.56.511-.9.657zm-12.76 8.232-.61-1.42a11.76 11.76 0 0 0-6.2-6.205l-1.42-.607a2.476 2.476 0 0 1-.91-.657 11.519 11.519 0 0 0 9.8 9.797 2.468 2.468 0 0 1-.66-.908z" fill="#999"/></g><path d="m1145.83 41.886.7-.299a5.832 5.832 0 0 0 3.06-3.057l.29-.7c.42-.981 1.81-.981 2.23 0l.3.7a5.798 5.798 0 0 0 3.06 3.057l.7.3c.98.418.98 1.808 0 2.227l-.7.3a5.798 5.798 0 0 0-3.06 3.057l-.3.7c-.42.98-1.81.98-2.23 0l-.29-.7a5.832 5.832 0 0 0-3.06-3.058l-.7-.299c-.98-.419-.98-1.81 0-2.228z" fill="#fff"/></g><path d="M1122.89 88.018c-.79 0-1.56-.108-2.29-.324-.72-.228-1.31-.54-1.76-.936-.46-.408-.69-.87-.69-1.386 0-.492.15-.882.45-1.17.3-.288.68-.432 1.14-.432.3 0 .56.042.77.126.23.072.48.18.74.324.19.096.35.174.49.234.14.048.29.072.45.072.39 0 .59-.156.59-.468 0-.12-.08-.222-.25-.306a7.207 7.207 0 0 0-.85-.378c-.71-.276-1.28-.546-1.73-.81-.68-.408-1.15-.852-1.42-1.332-.25-.48-.38-1.08-.38-1.8 0-.696.23-1.35.67-1.962.44-.624 1.05-1.122 1.82-1.494a5.716 5.716 0 0 1 2.52-.558c.89 0 1.7.138 2.43.414.74.264 1.32.636 1.74 1.116.44.468.65.99.65 1.566 0 .66-.2 1.158-.59 1.494-.39.324-.82.486-1.3.486-.39 0-.69-.024-.9-.072a3.575 3.575 0 0 1-.57-.198c-.16-.06-.29-.102-.4-.126a1.498 1.498 0 0 0-.45-.054c-.16 0-.31.054-.45.162a.487.487 0 0 0-.2.414c0 .132.08.246.24.342.15.084.33.162.54.234.2.072.34.126.43.162 1.11.408 1.94.876 2.46 1.404.53.516.8 1.188.8 2.016 0 1.02-.42 1.818-1.25 2.394-.81.564-1.96.846-3.45.846zm14.6-7.812c0 .624-.3 1.05-.89 1.278-.58.216-1.39.33-2.41.342-.01.3-.02.786-.02 1.458 0 .684.05 1.17.15 1.458.06.204.15.336.27.396.13.06.32.102.57.126.09.012.18.03.27.054.11.012.23.03.36.054.28.06.5.21.65.45.16.228.24.522.24.882 0 .408-.21.726-.63.954-.42.228-1 .342-1.73.342-.67 0-1.32-.192-1.93-.576a3.044 3.044 0 0 1-1.26-1.584c-.24-.708-.36-2.046-.36-4.014-.84-.024-1.52-.132-2.03-.324-.51-.204-.76-.564-.76-1.08 0-.648.24-1.08.72-1.296.48-.228 1.17-.348 2.07-.36.04-.96.19-1.758.45-2.394.27-.648.74-.972 1.42-.972.7 0 1.15.3 1.35.9.22.6.32 1.422.29 2.466 1.09-.012 1.9.072 2.41.252.53.18.8.576.8 1.188zm3.42 7.794c-.94 0-1.71-.21-2.31-.63-.6-.432-.9-1.05-.9-1.854 0-.696.31-1.248.92-1.656.61-.408 1.37-.612 2.29-.612.33 0 .64.03.93.09.3.048.51.108.61.18 0-.3-.12-.546-.37-.738-.26-.204-.64-.306-1.16-.306-.22 0-.41.018-.55.054-.15.036-.3.09-.47.162-.17.072-.33.126-.47.162-.13.036-.31.054-.54.054-.38 0-.68-.096-.9-.288-.22-.204-.32-.51-.32-.918 0-.468.16-.864.5-1.188a3.25 3.25 0 0 1 1.3-.72 4.926 4.926 0 0 1 1.54-.252c1.02 0 1.88.192 2.56.576.7.372 1.21.87 1.53 1.494.34.624.5 1.314.5 2.07 0 .408-.03.786-.1 1.134-.06.348-.15.618-.26.81.17.144.3.312.38.504.1.192.15.39.15.594 0 .348-.12.648-.36.9-.23.252-.54.378-.92.378-.29 0-.52-.042-.7-.126a2.417 2.417 0 0 1-.58-.396c-.3.18-.63.312-.99.396-.35.084-.79.126-1.31.126zm.36-1.818c.25 0 .45-.054.59-.162.16-.108.23-.24.23-.396 0-.156-.07-.288-.23-.396-.14-.108-.34-.162-.59-.162-.26 0-.46.054-.62.162a.485.485 0 0 0-.21.396c0 .156.07.288.21.396.16.108.36.162.62.162zm7.15 1.818c-.77 0-1.29-.45-1.55-1.35-.25-.9-.38-2.142-.38-3.726 0-.72.03-1.32.09-1.8.07-.492.23-.906.49-1.242.26-.348.66-.522 1.2-.522.34 0 .63.078.88.234.27.156.44.378.51.666.26-.24.6-.42 1.02-.54.42-.12.87-.18 1.35-.18.39 0 .78.096 1.17.288.41.192.75.456 1.01.792.28.324.42.678.42 1.062s-.14.726-.42 1.026c-.26.288-.62.432-1.06.432-.14 0-.28-.018-.41-.054a6.45 6.45 0 0 1-.33-.108c-.24-.096-.43-.144-.57-.144-.47 0-.89.186-1.25.558-.34.36-.52.828-.52 1.404 0 .636-.02 1.164-.07 1.584-.05.42-.19.798-.43 1.134-.24.324-.63.486-1.15.486zm10.13 3.078c-.69 0-1.26-.132-1.71-.396-.44-.252-.66-.6-.66-1.044 0-.396.15-.72.45-.972.31-.24.7-.36 1.17-.36.08 0 .22.012.41.036.24.036.46.054.67.054.51 0 .96-.09 1.33-.27.38-.168.62-.396.7-.684-.19.108-.46.198-.81.27-.35.072-.72.108-1.12.108-1.02 0-1.86-.198-2.52-.594-.64-.396-1.11-.882-1.4-1.458-.29-.588-.43-1.164-.43-1.728 0-.936.2-1.746.61-2.43.42-.684.96-1.206 1.62-1.566.66-.36 1.35-.54 2.07-.54.24 0 .52.018.83.054.32.036.59.078.81.126.09-.324.26-.576.48-.756.24-.18.6-.27 1.07-.27.78 0 1.34.486 1.69 1.458.36.972.54 2.172.54 3.6 0 .672-.04 1.308-.11 1.908-.18 1.692-.77 3.024-1.78 3.996s-2.31 1.458-3.91 1.458zm.67-5.958c.37 0 .69-.132.97-.396.28-.276.41-.6.41-.972s-.13-.696-.41-.972c-.28-.276-.6-.414-.97-.414s-.7.138-.97.414c-.27.276-.4.6-.4.972s.13.696.4.972c.27.264.6.396.97.396zm9.07 2.88c-.93 0-1.7-.21-2.3-.63-.6-.432-.9-1.05-.9-1.854 0-.696.3-1.248.92-1.656.61-.408 1.37-.612 2.28-.612.34 0 .65.03.94.09.3.048.5.108.61.18 0-.3-.13-.546-.38-.738-.25-.204-.63-.306-1.15-.306-.23 0-.41.018-.56.054-.14.036-.3.09-.47.162-.16.072-.32.126-.46.162-.14.036-.32.054-.54.054-.39 0-.69-.096-.9-.288-.22-.204-.33-.51-.33-.918 0-.468.17-.864.51-1.188.34-.324.78-.564 1.29-.72a4.987 4.987 0 0 1 1.55-.252c1.02 0 1.87.192 2.56.576.69.372 1.2.87 1.53 1.494.33.624.5 1.314.5 2.07 0 .408-.04.786-.11 1.134-.06.348-.14.618-.25.81.17.144.29.312.38.504.09.192.14.39.14.594 0 .348-.12.648-.36.9-.23.252-.53.378-.92.378-.28 0-.52-.042-.7-.126a2.38 2.38 0 0 1-.57-.396c-.3.18-.63.312-.99.396-.35.084-.79.126-1.32.126zm.36-1.818c.25 0 .45-.054.6-.162.15-.108.23-.24.23-.396 0-.156-.08-.288-.23-.396-.15-.108-.35-.162-.6-.162s-.45.054-.61.162c-.14.108-.22.24-.22.396 0 .156.08.288.22.396.16.108.36.162.61.162zm13.47-5.976c0 .624-.3 1.05-.89 1.278-.58.216-1.39.33-2.41.342-.01.3-.02.786-.02 1.458 0 .684.05 1.17.15 1.458.06.204.15.336.27.396.13.06.32.102.57.126.09.012.18.03.27.054.11.012.23.03.36.054.28.06.5.21.65.45.16.228.24.522.24.882 0 .408-.21.726-.63.954-.42.228-1 .342-1.73.342-.67 0-1.32-.192-1.93-.576a3.044 3.044 0 0 1-1.26-1.584c-.24-.708-.36-2.046-.36-4.014-.84-.024-1.52-.132-2.03-.324-.51-.204-.76-.564-.76-1.08 0-.648.24-1.08.72-1.296.48-.228 1.17-.348 2.07-.36.04-.96.19-1.758.45-2.394.27-.648.74-.972 1.42-.972.7 0 1.15.3 1.35.9.22.6.32 1.422.29 2.466 1.09-.012 1.9.072 2.41.252.53.18.8.576.8 1.188zm4.52 7.794c-.89 0-1.67-.174-2.36-.522a3.922 3.922 0 0 1-1.6-1.458 4.184 4.184 0 0 1-.56-2.142c0-.78.19-1.5.56-2.16.38-.66.91-1.188 1.58-1.584.68-.396 1.44-.594 2.29-.594.77 0 1.45.156 2.03.468.59.312 1.04.726 1.35 1.242.32.504.47 1.032.47 1.584 0 .9-.34 1.56-1.02 1.98-.68.408-1.48.612-2.42.612-.62 0-1.15-.078-1.58-.234.36.588.95.882 1.78.882.34 0 .7-.042 1.08-.126.15-.036.28-.054.42-.054.26 0 .47.066.63.198a.67.67 0 0 1 .25.54c0 .372-.23.696-.69.972-.45.264-1.19.396-2.21.396zm-1.21-5.004c.11.168.26.294.44.378.19.072.4.108.63.108.26 0 .49-.06.68-.18.2-.12.31-.276.31-.468a.715.715 0 0 0-.27-.558c-.17-.156-.42-.234-.74-.234-.33 0-.58.102-.78.306a.924.924 0 0 0-.27.648z" fill="#000"/><defs><linearGradient id="a" x1="772" y1="216" x2="772" y2="513" gradientUnits="userSpaceOnUse"><stop stop-color="#DEEBFF"/><stop offset="1" stop-color="#609BFF"/></linearGradient></defs></svg>