<svg width="204" height="103" viewBox="0 0 212 105" fill="none" xmlns="http://www.w3.org/2000/svg">
  <mask id="a" fill="#fff">
    <path
      fill-rule="evenodd"
      clip-rule="evenodd"
      d="M29.353 83.265c-1.871.48-3.832.735-5.853.735C10.521 84 0 73.479 0 60.5S10.521 37 23.5 37a23.41 23.41 0 0 1 15.503 5.839A19.072 19.072 0 0 1 39 42.5C39 32.283 47.283 24 57.5 24c6.138 0 11.578 2.99 14.944 7.592C75.694 13.755 96.419 0 121.5 0c26.612 0 48.32 15.486 49.453 34.903A28.388 28.388 0 0 1 183.5 32c15.74 0 28.5 12.76 28.5 28.5S199.24 89 183.5 89c-3.998 0-7.804-.823-11.258-2.31C159.678 97.53 133.17 105 102.5 105c-33.805 0-62.554-9.076-73.147-21.735z"
    />
  </mask>
  <path
    fill-rule="evenodd"
    clip-rule="evenodd"
    d="M29.353 83.265c-1.871.48-3.832.735-5.853.735C10.521 84 0 73.479 0 60.5S10.521 37 23.5 37a23.41 23.41 0 0 1 15.503 5.839A19.072 19.072 0 0 1 39 42.5C39 32.283 47.283 24 57.5 24c6.138 0 11.578 2.99 14.944 7.592C75.694 13.755 96.419 0 121.5 0c26.612 0 48.32 15.486 49.453 34.903A28.388 28.388 0 0 1 183.5 32c15.74 0 28.5 12.76 28.5 28.5S199.24 89 183.5 89c-3.998 0-7.804-.823-11.258-2.31C159.678 97.53 133.17 105 102.5 105c-33.805 0-62.554-9.076-73.147-21.735z"
    fill="#fff"
  />
  <path
    d="m29.353 83.265.767-.641-.405-.484-.61.157.248.968zm9.65-40.426-.66.751 1.7 1.494-.04-2.263-1 .018zm33.44-11.247-.807.59 1.374 1.879.417-2.29-.983-.179zm98.51 3.311-.998.058.088 1.503 1.351-.663-.441-.898zm1.289 51.787.395-.918-.574-.248-.474.409.653.757zM29.105 82.297A22.551 22.551 0 0 1 23.5 83v2c2.105 0 4.15-.266 6.101-.766l-.496-1.937zM23.5 83C11.074 83 1 72.926 1 60.5h-2C-1 74.031 9.969 85 23.5 85v-2zM1 60.5C1 48.074 11.074 38 23.5 38v-2C9.969 36-1 46.969-1 60.5h2zM23.5 38a22.41 22.41 0 0 1 14.843 5.59l1.32-1.503A24.41 24.41 0 0 0 23.5 36v2zm16.503 4.82A18.015 18.015 0 0 1 40 42.5h-2c0 .12.001.238.003.357l2-.036zM40 42.5C40 32.835 47.835 25 57.5 25v-2C46.73 23 38 31.73 38 42.5h2zM57.5 25c5.806 0 10.951 2.826 14.136 7.182l1.615-1.18C69.705 26.152 63.97 23 57.5 23v2zm15.927 6.771C76.557 14.597 96.681 1 121.5 1v-2C96.157-1 74.832 12.912 71.46 31.413l1.968.358zM121.5 1c13.119 0 24.993 3.818 33.703 9.986 8.713 6.17 14.207 14.642 14.752 23.975l1.997-.116c-.589-10.084-6.515-19.063-15.593-25.491C147.28 2.924 134.993-1 121.5-1v2zm49.894 34.8A27.388 27.388 0 0 1 183.5 33v-2c-4.658 0-9.067 1.08-12.987 3.005l.881 1.796zM183.5 33c15.188 0 27.5 12.312 27.5 27.5h2c0-16.292-13.208-29.5-29.5-29.5v2zM211 60.5c0 15.188-12.312 27.5-27.5 27.5v2c16.292 0 29.5-13.208 29.5-29.5h-2zM183.5 88a27.41 27.41 0 0 1-10.863-2.228l-.79 1.837A29.405 29.405 0 0 0 183.5 90v-2zm-11.911-2.067c-6.124 5.283-15.732 9.809-27.687 13.01C131.964 102.142 117.757 104 102.5 104v2c15.412 0 29.795-1.877 41.92-5.124 12.108-3.244 22.036-7.873 28.475-13.429l-1.306-1.514zM102.5 104c-16.818 0-32.358-2.258-44.988-6.078-12.663-3.828-22.279-9.188-27.392-15.298l-1.534 1.283c5.48 6.548 15.535 12.056 28.347 15.93C69.776 103.72 85.513 106 102.5 106v-2z"
    fill="#000"
    mask="url(#a)"
  />
</svg>