<svg width="114" height="135" viewBox="0 0 114 135" fill="none" xmlns="http://www.w3.org/2000/svg"><path d="M4.71 74.593A3 3 0 0 0 3.5 77v15.544a10 10 0 0 0 4.842 8.567l1.547-2.57-1.547 2.57 47.457 28.574a10.001 10.001 0 0 0 11.013-.46l39.239-28.339a10.002 10.002 0 0 0 4.13-7.552l.814-14.668a2.999 2.999 0 0 0-1.298-2.64l-14.46-9.915a4 4 0 0 1-1.737-3.299V49.768a8.021 8.021 0 0 0-3.738-6.782l-2.945-1.86a5.48 5.48 0 0 0 1.834-2.593l.308-.922a5.166 5.166 0 0 0 2.541-4.45v-2.855a9.786 9.786 0 0 0-4.683-8.35l-5.317-3.25V16.79a7.21 7.21 0 0 0-3.293-6.053L72.81 7.245l-1.63 2.52 1.63-2.52a5.142 5.142 0 0 0-5.646.04l-.183.121a3.834 3.834 0 0 0-.28-.192l-3.78-2.363a10 10 0 0 0-10.846.16L49.4 6.794a5.39 5.39 0 0 0-2.4 4.478 4.198 4.198 0 0 0-1.886.746l-5.937 4.24c-.36.258-.671.57-.924.92a4.325 4.325 0 0 0-2.62.838l-4.047 2.967a10 10 0 0 0-4.086 8.064v6.275a6.846 6.846 0 0 0 3.324 5.871.847.847 0 0 1-.016 1.461l-2.133 1.22a8.286 8.286 0 0 0-4.175 7.194v6.898a4.685 4.685 0 0 0-1.48 3.012L4.71 74.593z" fill="#642" stroke="#fff" stroke-width="6" stroke-linecap="round" stroke-linejoin="round"/><path d="M57.347 127.115 9.889 98.541A7 7 0 0 1 6.5 92.544V77l18.723-13.922c.489-.364.777-.937.777-1.547v-.13c0-.563.281-1.089.75-1.401.469-.312.75-.838.75-1.401v-7.531a5.286 5.286 0 0 1 2.663-4.59l2.134-1.22c2.553-1.458 2.592-5.125.07-6.638a3.846 3.846 0 0 1-1.867-3.298v-6.275a7 7 0 0 1 2.86-5.645l4.047-2.967c.369-.27.851-.332 1.276-.162l.44.176a1.004 1.004 0 0 0 1.377-.932c0-.325.157-.629.42-.817l5.938-4.241c.39-.279.908-.3 1.319-.053A1.204 1.204 0 0 0 50 13.374v-2.095c0-.799.4-1.545 1.064-1.988l2.676-1.784a7 7 0 0 1 7.593-.112l3.779 2.363c.241.15.388.415.388.7a.825.825 0 0 0 1.283.686L68.83 9.78a2.142 2.142 0 0 1 2.351-.016l5.396 3.492A4.21 4.21 0 0 1 78.5 16.79v3.43c0 .43.35.78.78.78a.78.78 0 0 1 .407.114l5.566 3.401a6.786 6.786 0 0 1 3.247 5.79v2.856c0 .82-.464 1.57-1.198 1.938a2.166 2.166 0 0 0-1.086 1.252l-.41 1.234a2.48 2.48 0 0 1-1.15 1.383c-1.646.915-1.712 3.26-.12 4.266l3.624 2.288a5.021 5.021 0 0 1 2.34 4.246v13.044a7 7 0 0 0 3.041 5.773L108 78.5l-.815 14.668a6.998 6.998 0 0 1-2.891 5.286l-39.238 28.339a6.999 6.999 0 0 1-7.71.322z" fill="#642"/><path d="m108 78.5-.815 14.668a6.998 6.998 0 0 1-2.891 5.286l-39.238 28.339a6.999 6.999 0 0 1-7.71.322L9.89 98.541a7 7 0 0 1-3.39-5.997V77M108 78.5 55.648 55.782a7 7 0 0 0-5.852.129L6.5 77M108 78.5l-14.459-9.915a7 7 0 0 1-3.041-5.773V49.768a5.021 5.021 0 0 0-2.34-4.246l-3.623-2.288c-1.593-1.006-1.527-3.35.12-4.266v0a2.48 2.48 0 0 0 1.148-1.383l.411-1.234a2.166 2.166 0 0 1 1.087-1.252v0A2.166 2.166 0 0 0 88.5 33.16v-2.855a6.786 6.786 0 0 0-3.248-5.79l-5.565-3.401A.78.78 0 0 0 79.28 21v0a.78.78 0 0 1-.78-.78v-3.43a4.21 4.21 0 0 0-1.923-3.534l-5.396-3.492a2.142 2.142 0 0 0-2.351.016l-2.047 1.364a.825.825 0 0 1-1.283-.687v0a.825.825 0 0 0-.388-.7l-3.78-2.362a7 7 0 0 0-7.592.112L51.064 9.29A2.39 2.39 0 0 0 50 11.279v2.095c0 .935-1.02 1.513-1.823 1.032v0a1.204 1.204 0 0 0-1.32.053l-5.937 4.24c-.263.19-.42.493-.42.818v0c0 .71-.718 1.196-1.377.932l-.44-.176a1.325 1.325 0 0 0-1.276.162l-4.046 2.967a7 7 0 0 0-2.861 5.645v6.275c0 1.351.709 2.603 1.868 3.298v0c2.52 1.513 2.482 5.18-.071 6.639l-2.134 1.22a5.286 5.286 0 0 0-2.663 4.589v7.53c0 .564-.281 1.09-.75 1.402v0c-.469.312-.75.838-.75 1.401v.13c0 .61-.288 1.183-.777 1.547L6.5 77" stroke="#000" stroke-width="3" stroke-linecap="round" stroke-linejoin="round"/><path d="m56.818 45.182 47.437 30.842c4.172 2.713 4.261 8.791.169 11.624l-39.423 27.295a7 7 0 0 1-7.557.264L9.947 87.02c-4.274-2.536-4.617-8.594-.658-11.597l39.483-29.95a7 7 0 0 1 8.046-.29z" fill="#AEFB43" stroke="#000" stroke-linecap="round" stroke-linejoin="round"/><ellipse cx="60.5" cy="107.5" rx="5.5" ry="3" fill="#AB3"/><ellipse cx="75.5" cy="97" rx="4.5" ry="2.5" fill="#AB3"/><ellipse cx="17.5" cy="80" rx="4.5" ry="2.5" fill="#AB3"/><path d="m42 32.5-.577-6.347c-.098-1.074 1.385-1.548 1.947-.628 1.638 2.676 3.621 5.715 5.13 7.475 1.04 1.212 2.116.656 3.084-.662.69-.94 3.128-.54 3.232.621.227 2.518.598 4.76 1.184 5.541 1.5 2 13.5 1 13.5-6 0-2.684.306-5.475.699-7.911.18-1.122 1.69-1.01 1.845.116.467 3.388 1.25 6.554 2.456 6.795 1.61.322 2.464-1.063 2.823-2.224.138-.446.513-.796.958-.658 2.512.784 7.576 5.168 7.219 8.382-.374 3.365-7.185 3.789-10.386 4.782-.379.118-.62.474-.63.87l-.46 18.872a1 1 0 0 1-1 .976H43.047a1 1 0 0 1-1-1.045l.917-20.16a1.027 1.027 0 0 0-.726-1.021c-3.178-1-8.5-3.325-9.238-6.274a35.61 35.61 0 0 1-.538-2.555c-.182-1.052 1.057-1.397 1.574-.462 1.293 2.333 2.72 4.517 3.464 4.517.554 0 .845-1.206.981-2.783.097-1.116 2.237-1.687 2.959-.83.183.217.37.423.56.613z" fill="#DA9E66"/><path d="m42 32.5-.577-6.347c-.098-1.074 1.385-1.548 1.947-.628 1.638 2.676 3.621 5.715 5.13 7.475 1.04 1.212 2.116.656 3.084-.662.69-.94 3.128-.54 3.232.621.227 2.518.598 4.76 1.184 5.541 1.5 2 13.5 1 13.5-6 0-2.684.306-5.475.699-7.911.18-1.122 1.69-1.01 1.845.116.467 3.388 1.25 6.554 2.456 6.795 1.61.322 2.464-1.063 2.823-2.224.138-.446.513-.796.958-.658 2.512.784 7.576 5.168 7.219 8.382-.374 3.365-7.185 3.789-10.386 4.782-.379.118-.62.474-.63.87l-.46 18.872a1 1 0 0 1-1 .976H43.047a1 1 0 0 1-1-1.045l.917-20.16a1.027 1.027 0 0 0-.726-1.021c-3.178-1-8.5-3.325-9.238-6.274a35.61 35.61 0 0 1-.538-2.555c-.182-1.052 1.057-1.397 1.574-.462 1.293 2.333 2.72 4.517 3.464 4.517.554 0 .845-1.206.981-2.783.097-1.116 2.237-1.687 2.959-.83.183.217.37.423.56.613zm0 0 5.264 5.264a1 1 0 0 1 .283.566L48.5 45" stroke="#000" stroke-linecap="round" stroke-linejoin="round"/><path d="M73 33.614V27.5a1 1 0 0 1 1-1h13a1 1 0 0 1 1 1v6.527a1 1 0 0 1-.542.89l-6.474 3.334a1 1 0 0 1-.956-.022l-6.526-3.748a1 1 0 0 1-.502-.867zm-10-12V15.5a1 1 0 0 1 1-1h13a1 1 0 0 1 1 1v6.527a1 1 0 0 1-.542.89l-6.474 3.334a1 1 0 0 1-.956-.022l-6.526-3.748a1 1 0 0 1-.502-.867z" fill="#4DB231" stroke="#000" stroke-linecap="round" stroke-linejoin="round"/><path d="M51 16.968V11.5a1 1 0 0 1 1-1h12a1 1 0 0 1 1 1v5.844a1 1 0 0 1-.549.893l-5.974 3.022a1 1 0 0 1-.943-.022L51.51 17.84a1 1 0 0 1-.509-.871zm-10 9V20.5a1 1 0 0 1 1-1h12a1 1 0 0 1 1 1v5.844a1 1 0 0 1-.549.893l-5.974 3.022a1 1 0 0 1-.943-.022L41.51 26.84a1 1 0 0 1-.509-.871z" fill="#4DB231" stroke="#000" stroke-linecap="round" stroke-linejoin="round"/><path d="M31 36.614V27a1 1 0 0 1 1-1h13a1 1 0 0 1 1 1v10.027a1 1 0 0 1-.542.89l-6.474 3.334a1 1 0 0 1-.956-.022l-6.526-3.748a1 1 0 0 1-.502-.867z" fill="#4DB231" stroke="#000" stroke-linecap="round" stroke-linejoin="round"/><path d="m80.421 21.861 7.273 4.57a1 1 0 0 1 .024 1.677l-6.049 4.047a1 1 0 0 1-1.053.036l-7.282-4.175a1 1 0 0 1-.094-1.674l6.058-4.44a1 1 0 0 1 1.123-.04zm-10-12 7.273 4.57a1 1 0 0 1 .024 1.677l-6.049 4.047a1 1 0 0 1-1.053.037l-7.282-4.176a1 1 0 0 1-.094-1.674l6.058-4.44a1 1 0 0 1 1.123-.04zM57.946 5.84l6.69 4.06a1 1 0 0 1 .023 1.695l-5.54 3.58a1 1 0 0 1-1.028.035l-6.699-3.71a1 1 0 0 1-.093-1.692l5.55-3.929a1 1 0 0 1 1.097-.039zm-10 9 6.69 4.06a1 1 0 0 1 .023 1.695l-5.54 3.58a1 1 0 0 1-1.028.035l-6.699-3.71a1 1 0 0 1-.093-1.692l5.55-3.929a1 1 0 0 1 1.097-.039zm-9.525 6.021 7.273 4.57a1 1 0 0 1 .024 1.677l-6.049 4.047a1 1 0 0 1-1.053.037l-7.282-4.176a1 1 0 0 1-.094-1.674l6.058-4.44a1 1 0 0 1 1.123-.04z" fill="#E2FB43" stroke="#000" stroke-linecap="round" stroke-linejoin="round"/><path d="M48 31.966V18.5a1 1 0 0 1 1-1h23.5a1 1 0 0 1 1 1v14.05a1 1 0 0 1-.507.87l-11.97 6.783a1 1 0 0 1-1.03-.027l-11.531-7.367a1 1 0 0 1-.462-.843z" fill="#4DB231" stroke="#000" stroke-linecap="round" stroke-linejoin="round"/><path d="m60.05 8.88 12.693 8.217a1 1 0 0 1 .025 1.663l-10.703 7.377a1 1 0 0 1-1.077.038L48.285 18.67a1 1 0 0 1-.094-1.66l10.712-8.088a1 1 0 0 1 1.146-.042z" fill="#E2FB43" stroke="#000" stroke-linecap="round" stroke-linejoin="round"/><path d="M43 36.225V28.5a1 1 0 0 1 1-1h10.5a1 1 0 0 1 1 1v8.076a1 1 0 0 1-.53.883l-5.224 2.777a1 1 0 0 1-.98-.023l-5.276-3.128a1 1 0 0 1-.49-.86z" fill="#4DB231" stroke="#000" stroke-linecap="round" stroke-linejoin="round"/><path d="m49.034 23.857 5.65 3.526a1 1 0 0 1 .023 1.681l-4.655 3.095a1 1 0 0 1-1.049.036l-5.658-3.224a1 1 0 0 1-.094-1.677l4.665-3.397a1 1 0 0 1 1.118-.04z" fill="#E2FB43" stroke="#000" stroke-linecap="round" stroke-linejoin="round"/><path d="M33 34c.789 3.155 6.826 5.597 9.871 6.464a.962.962 0 0 0 .265.036h1.43c1 0 1.38-1.306.537-1.844l-2.14-1.361a1 1 0 0 1-.463-.844v-3.537c0-.265-.106-.518-.288-.711-.154-.163-.31-.334-.465-.512-.739-.842-3.169-.09-3.266 1.026-.136 1.577-.427 2.783-.981 2.783-.745 0-2.17-2.184-3.464-4.517-.517-.935-1.756-.59-1.574.462.138.8.315 1.662.538 2.555z" fill="#DA9E66"/><path d="M43 33a22.268 22.268 0 0 1-1.211-1.334c-.724-.855-3.211-.065-3.308 1.05-.136 1.578-.427 2.784-.981 2.784-.745 0-2.17-2.184-3.464-4.517-.517-.935-1.756-.59-1.574.462.138.8.315 1.662.538 2.555.8 3.2 7 5.667 10 6.5" stroke="#000" stroke-linecap="round" stroke-linejoin="round"/><path d="M70.5 30a18.234 18.234 0 0 1-1.874 5.857c-.3.586-.003 1.313.631 1.486l3.175.866a1 1 0 0 0 1.25-.8l.304-1.827a.92.92 0 0 0 .014-.165V21.5a1 1 0 0 0-1-1h-.18a.97.97 0 0 0-.964.805A405.704 405.704 0 0 0 70.5 30z" fill="#DA9E66"/><path d="M68 37c1.167-2 2.1-4.2 2.5-7a405.704 405.704 0 0 1 1.356-8.695.97.97 0 0 1 .964-.805H73a1 1 0 0 1 1 1v13.917c0 .055-.005.11-.014.165L73.5 38.5" stroke="#000" stroke-linecap="round" stroke-linejoin="round"/><path d="M55.5 36.778c.227.883.627 1.66 1.143 2.369.49.672.162 1.7-.66 1.825l-2.625.398a1 1 0 0 1-1.107-.701l-.209-.695a.999.999 0 0 1-.042-.287V32.5a1 1 0 0 1 1-1h.297c.422 0 .792.265.914.67.324 1.075.905 3.114 1.289 4.608z" fill="#DA9E66"/><path d="M58 40.667c-1.167-1.111-2.1-2.334-2.5-3.89a138.233 138.233 0 0 0-1.289-4.608.944.944 0 0 0-.914-.669H53a1 1 0 0 0-1 1v7.187c0 .097.014.194.042.287l.416 1.385c.028.094.042.19.042.288V53.5" stroke="#000" stroke-linecap="round" stroke-linejoin="round"/><path d="M55 42.548V37.5a1 1 0 0 1 1-1h10.5a1 1 0 0 1 1 1v5.4a1 1 0 0 1-.53.882l-5.224 2.778a1 1 0 0 1-.98-.023l-5.276-3.128a1 1 0 0 1-.49-.86z" fill="#4DB231" stroke="#000" stroke-linecap="round" stroke-linejoin="round"/><path d="m61.034 32.857 5.65 3.526a1 1 0 0 1 .023 1.681l-4.655 3.095a1 1 0 0 1-1.049.036l-5.658-3.224a1 1 0 0 1-.094-1.677l4.665-3.397a1 1 0 0 1 1.118-.04z" fill="#E2FB43" stroke="#000" stroke-linecap="round" stroke-linejoin="round"/><path d="m90.098 83.65 2.698-9.634c.247-.883-.726-1.606-1.5-1.113l-8.42 5.358a1 1 0 0 0-.45.679l-1.54 9.245c-.145.87.824 1.487 1.55.99l7.264-4.97a1 1 0 0 0 .398-.555z" fill="#3BACC8" stroke="#000" stroke-linecap="round" stroke-linejoin="round"/><path d="m71.96 83.037-.795-9.146a1 1 0 0 1 1.488-.957l9.228 5.216a1 1 0 0 1 .492 1.05l-1.593 8.758a1 1 0 0 1-1.56.638l-6.84-4.828a1 1 0 0 1-.42-.73z" fill="#30A4CF" stroke="#000" stroke-linecap="round" stroke-linejoin="round"/><path d="m80.521 65.25 11.36 5.47a1 1 0 0 1 .103 1.745l-8.97 5.708a1 1 0 0 1-1.04.02l-10.109-5.897a1 1 0 0 1-.06-1.689l7.718-5.28a1 1 0 0 1 .998-.076z" fill="#54CBF0" stroke="#000" stroke-linecap="round" stroke-linejoin="round"/><path d="m63 68.792-10.04 5.856a1 1 0 0 0-.01 1.722l13.088 7.852a1 1 0 0 0 .948.044l11.307-5.444a1 1 0 0 0 .065-1.767l-14.356-8.266a1 1 0 0 0-1.003.003z" fill="#406A80" stroke="#000" stroke-linecap="round" stroke-linejoin="round"/><path d="m24.96 83.488-.812-10.558a1 1 0 0 1 1.512-.934l15.354 9.213a1 1 0 0 1 .486.857v10.159a1 1 0 0 1-1.518.855l-14.543-8.814a1 1 0 0 1-.478-.778z" fill="#61AB6D" stroke="#000" stroke-linecap="round" stroke-linejoin="round"/><path d="M89.5 67.923v-7.728a1 1 0 0 0-1.484-.875l-17 9.395a1 1 0 0 0-.516.875v8.176a1 1 0 0 0 1.501.865l17-9.842a1 1 0 0 0 .499-.866z" fill="#EE482C" stroke="#000" stroke-linecap="round" stroke-linejoin="round"/><path d="M59.5 73.382v-7.829a1 1 0 0 1 1.414-.91l9 4.09a1 1 0 0 1 .586.91v8.239a1 1 0 0 1-1.447.894l-9-4.5a1 1 0 0 1-.553-.894z" fill="#A02B10" stroke="#000" stroke-linecap="round" stroke-linejoin="round"/><path d="M79.5 89.403v-9.785a1 1 0 0 0-1.447-.894l-11 5.5a1 1 0 0 0-.553.894v10.208a1 1 0 0 0 1.474.88l11-5.923a1 1 0 0 0 .526-.88z" fill="#278081" stroke="#000" stroke-linecap="round" stroke-linejoin="round"/><path d="m34.013 66.232-8.33 3.967a1 1 0 0 0-.085 1.76l15.397 9.238a1 1 0 0 0 1.015.008l7.53-4.36a1 1 0 0 0 .016-1.72L34.961 66.28a1 1 0 0 0-.948-.048z" fill="#AED18A" stroke="#000" stroke-linecap="round" stroke-linejoin="round"/><path d="m50.49 75.822-7.617 4.81a1 1 0 0 0 .02 1.704l13.136 7.882a1 1 0 0 0 .962.036l8.844-4.422a1 1 0 0 0 .052-1.76L51.523 75.8a1 1 0 0 0-1.033.021z" fill="#D9D9D9" stroke="#000" stroke-linecap="round" stroke-linejoin="round"/><path d="M44 77.438v-7.851a1 1 0 0 1 1.431-.902l9.5 4.543a1 1 0 0 1 .569.902v9.09a1 1 0 0 1-1.52.855l-9.5-5.783a1 1 0 0 1-.48-.854z" fill="#99D4E9" stroke="#000" stroke-linecap="round" stroke-linejoin="round"/><path d="M27.5 68.422V60.73a1 1 0 0 1 1.499-.867l14.5 8.349a1 1 0 0 1 .501.866v7.692a1 1 0 0 1-1.499.867l-14.5-8.349a1 1 0 0 1-.501-.866z" fill="#FDC468" stroke="#000" stroke-linecap="round" stroke-linejoin="round"/><path d="M41.5 93.434V83.266a1 1 0 0 1 1.514-.857l13 7.8a1 1 0 0 1 .486.857v10.168a1 1 0 0 1-1.514.857l-13-7.8a1 1 0 0 1-.486-.857z" fill="#AFCA94" stroke="#000" stroke-linecap="round" stroke-linejoin="round"/><path d="M67.5 77.426v-9.247a1 1 0 0 0-1.476-.88l-10 5.417a1 1 0 0 0-.524.88v9.663a1 1 0 0 0 1.504.864l10-5.834a1 1 0 0 0 .496-.863z" fill="#2C8A8D" stroke="#000" stroke-linecap="round" stroke-linejoin="round"/><path d="m56.984 61.242 8.798 4.4a1 1 0 0 1 .03 1.773l-9.875 5.348a1 1 0 0 1-.89.031L46.26 68.8a1 1 0 0 1-.09-1.774l9.863-5.753a1 1 0 0 1 .95-.031z" fill="#74D8DB" stroke="#000" stroke-linecap="round" stroke-linejoin="round"/><path d="M28.5 58.923v-9.689a1 1 0 0 1 1.501-.865l7.5 4.342a1 1 0 0 1 .499.866v9.689a1 1 0 0 1-1.501.865l-7.5-4.342a1 1 0 0 1-.499-.866z" stroke="#000" stroke-linecap="round" stroke-linejoin="round"/><path d="M28.5 58.923v-9.689a1 1 0 0 1 1.501-.865l7.5 4.342a1 1 0 0 1 .499.866v9.689a1 1 0 0 1-1.501.865l-7.5-4.342a1 1 0 0 1-.499-.866z" fill="#FEE445" stroke="#000" stroke-linecap="round" stroke-linejoin="round"/><path d="m38.005 42.772-7.877 4.332a1 1 0 0 0 .017 1.761l7.401 3.896a1 1 0 0 0 .913.01l7.881-3.941a1 1 0 0 0 .054-1.76l-7.406-4.287a1 1 0 0 0-.983-.011z" fill="#FEF169" stroke="#000" stroke-linecap="round" stroke-linejoin="round"/><path d="M67 96.42v-9.767a1 1 0 0 0-1.464-.886l-8.5 4.452a1 1 0 0 0-.536.886v10.172a1 1 0 0 0 1.496.868l8.5-4.857A1 1 0 0 0 67 96.42z" fill="#75AE84" stroke="#000" stroke-linecap="round" stroke-linejoin="round"/><path d="M37.5 63.923v-9.267a1 1 0 0 1 1.466-.885l7.5 3.948a1 1 0 0 1 .534.885v9.662a1 1 0 0 1-1.501.865l-7.5-4.342a1 1 0 0 1-.499-.866z" fill="#FD6A7D" stroke="#000" stroke-linecap="round" stroke-linejoin="round"/><path d="M56 63.923v-9.267a1 1 0 0 0-1.466-.885l-7.5 3.948a1 1 0 0 0-.534.885v9.662a1 1 0 0 0 1.501.865l7.5-4.342a1 1 0 0 0 .499-.866z" fill="#DF4D76" stroke="#000" stroke-linecap="round" stroke-linejoin="round"/><path d="M89.5 57.923v-9.267a1 1 0 0 0-1.466-.885l-7.5 3.948a1 1 0 0 0-.534.885v9.662a1 1 0 0 0 1.501.865l7.5-4.342a1 1 0 0 0 .499-.866z" fill="#9BD3E9" stroke="#000" stroke-linecap="round" stroke-linejoin="round"/><path d="M79.5 62.923v-9.267a1 1 0 0 0-1.466-.885l-7.5 3.948a1 1 0 0 0-.534.885v9.662a1 1 0 0 0 1.501.865l7.5-4.342a1 1 0 0 0 .499-.866z" fill="#DF4D76" stroke="#000" stroke-linecap="round" stroke-linejoin="round"/><path d="m47.005 47.772-7.877 4.332a1 1 0 0 0 .017 1.761l7.401 3.896a1 1 0 0 0 .913.01l7.881-3.941a1 1 0 0 0 .054-1.76l-7.406-4.287a1 1 0 0 0-.983-.011z" fill="#FD728D" stroke="#000" stroke-linecap="round" stroke-linejoin="round"/><path d="m80.505 41.772-7.877 4.332a1 1 0 0 0 .016 1.761l7.402 3.896a1 1 0 0 0 .913.01l7.881-3.941a1 1 0 0 0 .054-1.76l-7.406-4.287a1 1 0 0 0-.983-.011z" fill="#71DAFB" stroke="#000" stroke-linecap="round" stroke-linejoin="round"/><path d="m70.505 46.772-7.877 4.332a1 1 0 0 0 .017 1.761l7.401 3.896a1 1 0 0 0 .913.01l7.881-3.941a1 1 0 0 0 .054-1.76l-7.406-4.287a1 1 0 0 0-.983-.011z" fill="#FD728D" stroke="#000" stroke-linecap="round" stroke-linejoin="round"/><path d="M51 67.923v-9.267a1 1 0 0 1 1.466-.885l7.5 3.948a1 1 0 0 1 .534.885v9.662a1 1 0 0 1-1.501.865l-7.5-4.342a1 1 0 0 1-.499-.866z" fill="#FD6E42" stroke="#000" stroke-linecap="round" stroke-linejoin="round"/><path d="M69.5 67.923v-9.267a1 1 0 0 0-1.466-.885l-7.5 3.948a1 1 0 0 0-.534.885v9.662a1 1 0 0 0 1.501.865l7.5-4.342a1 1 0 0 0 .499-.866z" fill="#D93A26" stroke="#000" stroke-linecap="round" stroke-linejoin="round"/><path d="m60.505 51.772-7.877 4.332a1 1 0 0 0 .017 1.761l7.401 3.896a1 1 0 0 0 .913.01l7.881-3.941a1 1 0 0 0 .054-1.76l-7.406-4.287a1 1 0 0 0-.983-.011z" fill="#FC9F34" stroke="#000" stroke-linecap="round" stroke-linejoin="round"/><path d="M107 79.5v13.42a6.998 6.998 0 0 1-2.902 5.676l-39.042 28.197a6.999 6.999 0 0 1-7.71.322L9.89 98.541a7 7 0 0 1-3.39-5.997V79.5" stroke="#000" stroke-linecap="round" stroke-linejoin="round"/></svg>