<svg width="124" height="138" viewBox="0 0 124 138" fill="none" xmlns="http://www.w3.org/2000/svg"><path d="m62.41 8.658-1.076 9.757-.227-.296a4 4 0 0 0-6.13-.253l-1.731 1.904C51.522 18.236 48.966 17 45.5 17c-4.393 0-6.688 3.685-7.771 6.382a19.5 19.5 0 0 0-.413 1.129c-1.078-.86-2.42-1.622-3.994-1.937-1.821-.365-3.748-.089-5.6.983-3.066 1.775-4.583 4.362-5.343 7.029-.544 1.908-.724 3.988-.848 5.794a6.162 6.162 0 0 0-2.019.878c-.91.608-1.65 1.451-2.195 2.495-1.744.167-3.67.886-5.373 2.478-1.865 1.743-3.267 4.344-4.019 7.921-1.122.388-2.334 1.081-3.298 2.262-1.395 1.708-1.917 4-1.47 6.683.48 2.878 2.016 5.19 3.642 6.892a19.428 19.428 0 0 0 3.495 2.868C9.63 70.944 9 73.91 9 79v13.874c0 .325.04.71.166 1.125l2.868-.88-2.868.88c.396 1.29 2.343 6.49 9.676 14.085 2.065 2.138 5.62 4.668 9.606 7.207 4.056 2.585 8.8 5.328 13.424 7.889 9.252 5.124 18.144 9.583 20.352 10.682l1.336-2.686-1.336 2.686a3.928 3.928 0 0 0 4.068-.325l-1.747-2.439 1.747 2.439a619.09 619.09 0 0 0 16.068-11.926c3.596-2.77 7.258-5.68 10.348-8.316 3.025-2.582 5.703-5.069 7.166-6.96 5.33-6.897 7.623-14.202 7.965-15.355a3.89 3.89 0 0 0 .161-1.117V72.571c0-.189-.013-.381-.042-.575h0c-1.284-8.787-6.979-15.508-10.458-18.461v-9.051l15.514 2.327a4 4 0 0 0 4.575-3.565l2.802-28.488a4 4 0 0 0-3.464-4.358L97.5 7.866a4 4 0 0 0-3.558-3.946l-7.13-.793a4 4 0 0 0-4.411 3.48l-.014.11-15.594-1.6a4 4 0 0 0-4.384 3.541zm19.734 0 .001-.005v.004l1.984.248-1.985-.248z" fill="#A75" stroke="#fff" stroke-width="6" stroke-linecap="round" stroke-linejoin="round"/><path d="M21 106c-7.033-7.283-8.72-12.08-8.966-12.881a.828.828 0 0 1-.034-.245V79c0-6.112.95-8.79 1.658-10.669.185-.493-.051-1.035-.518-1.28-2.46-1.294-6.324-4.248-7.024-8.447-.672-4.029 1.714-5.478 3.548-5.817.496-.091.922-.46 1.001-.957 1.203-7.503 5.11-9.211 7.674-9.113.577.022 1.138-.33 1.332-.874.735-2.063 2.17-2.637 3.364-2.637.656 0 1.335-.417 1.383-1.072.337-4.56.318-9.382 4.806-11.98C34.142 23.308 38.334 29.5 39 32c.167-4 1.7-12 6.5-12 3.476 0 5.589 1.573 6.68 3.011.462.61 1.455.791 1.969.226l3.047-3.352a1 1 0 0 1 1.533.063l3.256 4.236c.55.714 1.688.395 1.787-.5l1.62-14.697a1 1 0 0 1 1.095-.886l17.54 1.8a1 1 0 0 0 1.094-.872l.257-2.05a1 1 0 0 1 1.102-.87l7.13.792a1 1 0 0 1 .89.994v1.727a1 1 0 0 0 .87.992l21.169 2.76a1 1 0 0 1 .866 1.09l-2.802 28.489a1 1 0 0 1-1.144.89l-17.81-2.67a1 1 0 0 0-1.149.988v12.315c0 .328.16.631.42.83 2.949 2.249 8.836 8.685 10.07 17.123.007.047.01.095.01.142v17.292a.9.9 0 0 1-.037.263c-.299 1.01-2.463 7.906-7.463 14.374-4.997 6.465-29.273 23.961-32.955 26.598a.93.93 0 0 1-.985.078C59.174 128.994 28.174 113.429 21 106z" fill="#A75" stroke="#000" stroke-width="3" stroke-linecap="round" stroke-linejoin="round"/><ellipse cx="58.233" cy="86.359" rx="46.217" ry="32.942" fill="#642" stroke="#000"/><path d="M103.95 76.525c0 8.893-5.056 16.992-13.327 22.887-8.27 5.894-19.72 9.556-32.39 9.556-12.67 0-24.12-3.662-32.39-9.556-8.27-5.895-13.327-13.994-13.327-22.887 0-8.892 5.056-16.99 13.327-22.886 8.27-5.894 19.72-9.556 32.39-9.556 12.67 0 24.12 3.662 32.39 9.556 8.271 5.895 13.327 13.994 13.327 22.886z" fill="#CD4" stroke="#000"/><path d="M59.397 33.188c3.124-1.566 1.47 6.826.14 11.66a.988.988 0 0 1-.629.67L28.184 56.286a1.15 1.15 0 0 1-.474.054c-2.212-.18-3.594 1.435-6.715-7.953-3.018-9.078.77-9.449 3.48-8.36.35.141.545.407.543.029-.01-2.222.35-12.608 5.072-13.961 5.66-1.621 8.962 6.153 9.096 7.093.133.94.808-13.983 8.084-13.173 7.277.81 7.748 13.848 7.075 20.266.336-1.69 1.818-5.472 5.052-7.093z" fill="#AE2" stroke="#000" stroke-linejoin="round"/><path d="M18.909 43.584c6.252 0 3.052 7.128 2.943 12.372a1.037 1.037 0 0 1-.136.498l-5.573 9.672c-.441.764-2.134.945-2.881.475-2.43-1.528-6.607-3.53-7.07-7.219-.636-5.055 2.914-5.793 4.768-5.53 0-3.422 1.59-10.268 7.949-10.268z" fill="#AE2"/><path d="M10.96 53.853c0-3.423 1.59-10.27 7.949-10.27 6.252 0 3.052 7.129 2.943 12.373a1.037 1.037 0 0 1-.136.498l-5.573 9.672c-.441.764-2.134.945-2.881.475-2.43-1.528-6.607-3.53-7.07-7.219-.636-5.055 2.914-5.793 4.768-5.53zm0 0 .795 2.37" stroke="#000" stroke-linecap="round" stroke-linejoin="round"/><ellipse cx="54" cy="93" rx="29" ry="8" fill="#7EA82B"/><ellipse cx="88.5" cy="63.5" rx="9.5" ry="3.5" fill="#7EA82B"/><g stroke="#000"><rect x="86.276" y="7.5" width="6.887" height="57.241" rx="1.5" fill="#A05A5A"/><path d="M91.236 8.82v53.084"/></g><g stroke="#000"><rect x="65.795" y="8.731" width="51" height="28" rx="1.5" transform="rotate(6.645 65.795 8.73)" fill="#E0CEAC"/><path d="m112.686 16.71-2.893 24.833"/></g><rect x="70.699" y="14" width="35.337" height="6" rx="3" transform="rotate(6.69 70.699 14)" fill="#A05A5A"/><rect x="80.699" y="25" width="23.888" height="6" rx="3" transform="rotate(6.69 80.699 25)" fill="#A05A5A"/><rect x="69.699" y="24" width="7.961" height="6" rx="3" transform="rotate(6.69 69.699 24)" fill="#A05A5A"/><path d="m22 57 28.5-13L81 82.5 16 67l6-10z" fill="#7EA82B"/><path d="M57.594 20.47 20 61.353l18.327 5.17 15.038-19.267 4.229 26.785L81.09 82.5 57.594 20.47z" fill="#F1DAC5"/><path d="M57.594 20.47 20 61.353l18.327 5.17 15.038-19.267 4.229 26.785L81.09 82.5 57.594 20.47z" fill="#F1DAC5"/><path d="M57.594 20.47 20 61.353l18.327 5.17 15.038-19.267 4.229 26.785L81.09 82.5 57.594 20.47z" stroke="#000" stroke-linejoin="round"/><path d="M57.594 20 85.32 53.365 81.09 82.5 57.594 20z" fill="#B29071" stroke="#000" stroke-linejoin="round"/><g stroke="#000" stroke-linecap="round" stroke-linejoin="round"><path d="M64.398 75.594c3.334.617 2.932 4.064 2.315 5.71 0 .977-1.327 2.963-6.636 3.086-5.309.123-4.681-4.167-3.704-6.327 1.286-1.08 4.692-3.087 8.025-2.47z" fill="#999"/><path d="M64.398 75.594c3.334.617 2.932 4.064 2.315 5.71-1.15-3.241-4.065-3.241-10.34-3.241 1.286-1.08 4.692-3.087 8.025-2.47z" fill="#D9D9D9"/></g><g stroke="#000" stroke-linecap="round" stroke-linejoin="round"><path d="M70.895 77.667c-3.357.621-7.172 4.44-6.55 6.097 0 .985 5.555 2.635 10.9 2.76 5.346.124 4.714-4.196 3.73-6.371-1.295-1.088-4.724-3.108-8.08-2.486z" fill="#999"/><path d="M70.894 77.667c-3.356.621-3.088 2.645.355 4.372 4.843 3.452 2.988-.2 7.726-1.886-1.295-1.088-4.724-3.108-8.08-2.486z" fill="#D9D9D9"/></g><g stroke="#000" stroke-linecap="round" stroke-linejoin="round"><path d="M45.423 75.656c-5.133.95-4.515 6.258-3.564 8.793 0 1.505 2.044 4.563 10.219 4.753 8.175.19 7.209-6.416 5.704-9.744-1.98-1.663-7.225-4.753-12.358-3.802z" fill="#999"/><path d="M45.423 75.656c-5.133.95-4.515 6.258-3.564 8.793 1.772-4.99 6.26-4.99 15.923-4.99-1.98-1.664-7.225-4.754-12.358-3.803z" fill="#D9D9D9"/></g><g stroke="#000" stroke-linecap="round" stroke-linejoin="round"><path d="M39.21 82.562c-5.134.95-4.516 6.258-3.565 8.793 0 1.505 2.043 4.563 10.219 4.753 8.175.19 7.209-6.416 5.704-9.743-1.981-1.664-7.225-4.753-12.359-3.803z" fill="#999"/><path d="M39.21 82.562c-5.134.95-4.516 6.258-3.565 8.793 3.01.793 10.409.904 15.922-4.99-1.98-1.664-7.224-4.753-12.358-3.803z" fill="#D9D9D9"/></g><rect x="52.957" y="79.899" width="5.346" height="25.727" rx="2.673" transform="rotate(-55.69 52.957 79.899)" fill="#B27D7D" stroke="#000"/><rect x="-.695" y="-.131" width="5.346" height="25.727" rx="2.673" transform="scale(-1 1) rotate(-55.689 37.522 109.359)" fill="#A05A5A" stroke="#000"/><g stroke="#000" stroke-linecap="round" stroke-linejoin="round"><path d="M80.57 83.074c-1.933.553-5.408 3.913-6.904 5.524-1.002 1.036 0 7.595 5.524 7.595 4.419 0 7.825-.69 8.976-1.036.69-1.266 1.864-4.35 1.035-6.56-1.035-2.76-6.214-6.213-8.63-5.523z" fill="#999"/><path d="M80.57 83.074c-1.933.552-5.408 3.913-6.904 5.524l6.904 2.416 8.631-2.416c-1.035-2.762-6.214-6.215-8.63-5.524z" fill="#D9D9D9"/></g><g stroke="#000" stroke-linecap="round" stroke-linejoin="round"><path d="M66.138 87.395c-5.134.95-4.516 6.258-3.565 8.794 0 1.505 2.044 4.562 10.219 4.752 8.175.191 7.209-6.416 5.704-9.743-1.98-1.664-7.225-4.753-12.358-3.803z" fill="#999"/><path d="M66.138 87.395c-5.134.95-4.516 6.258-3.565 8.794 1.772-4.991 6.26-4.991 15.923-4.991-1.98-1.664-7.225-4.753-12.358-3.803z" fill="#D9D9D9"/></g><g stroke="#000" stroke-linecap="round" stroke-linejoin="round"><path d="M50.947 87.395c-5.133.95-4.515 6.258-3.564 8.794 0 1.505 2.043 4.562 10.219 4.752 8.175.191 7.209-6.416 5.704-9.743-1.98-1.664-7.225-4.753-12.358-3.803z" fill="#999"/><path d="M50.947 87.395c-5.133.95-4.515 6.258-3.564 8.794 3.01.792 8.676-2.412 15.922-4.991-1.98-1.664-7.224-4.753-12.358-3.803z" fill="#D9D9D9"/></g><mask id="a" fill="#fff"><path fill-rule="evenodd" clip-rule="evenodd" d="M72.368 58.988c1.176-.666 1.783-1.86 1.736-4.26 5.934 4.69.24 27.854-15.316 23.113a12.22 12.22 0 0 1-8.951-14.712 10.649 10.649 0 0 1 4.894-6.08c-.847 1.95-.61 4.092.417 5.434.487-1.572 1.388-3.018 4.038-3.214-.76 1.563-.459 2.957.052 4.3 2.037-.804 1.877-3.378 1.688-6.42-.268-4.309-.595-9.556 5.174-12.05-.919 5.341 1.88 8.652 4.68 11.964a70.335 70.335 0 0 1 1.588 1.925z"/></mask><path fill-rule="evenodd" clip-rule="evenodd" d="M72.368 58.988c1.176-.666 1.783-1.86 1.736-4.26 5.934 4.69.24 27.854-15.316 23.113a12.22 12.22 0 0 1-8.951-14.712 10.649 10.649 0 0 1 4.894-6.08c-.847 1.95-.61 4.092.417 5.434.487-1.572 1.388-3.018 4.038-3.214-.76 1.563-.459 2.957.052 4.3 2.037-.804 1.877-3.378 1.688-6.42-.268-4.309-.595-9.556 5.174-12.05-.919 5.341 1.88 8.652 4.68 11.964a70.335 70.335 0 0 1 1.588 1.925z" fill="#FF6242"/><path d="m74.104 54.729.62-.785-1.66-1.312.04 2.116 1-.02zm-1.736 4.259-.786.618.531.676.748-.424-.493-.87zm-13.58 18.853.291-.956-.026-.008-.025-.006-.24.97zM51.28 72.33l.854-.52-.854.52zm-1.443-9.2-.955-.299-.01.032-.008.033.973.233zm4.894-6.081.917.398 1.197-2.753-2.609 1.486.495.869zm.417 5.434-.794.608 1.176 1.537.573-1.848-.955-.297zm4.038-3.214.9.437.76-1.563-1.733.128.074.998zm.052 4.3-.935.356.36.947.943-.372-.368-.93zm1.688-6.42-.998.061.998-.062zm5.174-12.05.986.17.313-1.822-1.696.734.397.918zm4.68 11.964-.764.645.764-.645zm2.325-2.315c.021 1.125-.114 1.865-.33 2.366a1.99 1.99 0 0 1-.9 1.004l.986 1.74a3.993 3.993 0 0 0 1.752-1.955c.371-.862.516-1.919.491-3.194l-2 .039zm-14.609 24.05c4.15 1.264 7.716.678 10.597-1.051 2.85-1.711 4.951-4.493 6.322-7.513 1.372-3.021 2.048-6.356 1.987-9.27-.06-2.858-.84-5.567-2.678-7.02l-1.24 1.57c1.13.891 1.863 2.835 1.918 5.492.055 2.6-.553 5.639-1.808 8.402-1.255 2.765-3.123 5.178-5.53 6.624-2.378 1.427-5.356 1.959-8.985.853l-.583 1.913zm-8.07-5.948a13.22 13.22 0 0 0 8.122 5.962l.48-1.941a11.22 11.22 0 0 1-6.894-5.06l-1.708 1.039zm-1.562-9.954a13.22 13.22 0 0 0 1.562 9.954l1.708-1.04a11.22 11.22 0 0 1-1.325-8.448l-1.945-.466zm5.372-6.716a11.649 11.649 0 0 0-5.354 6.651l1.91.596a9.649 9.649 0 0 1 4.434-5.51l-.99-1.737zm1.706 5.696c-.774-1.012-1.019-2.76-.294-4.429l-1.834-.797c-.969 2.23-.74 4.768.54 6.441l1.588-1.215zm.161.904c.221-.713.502-1.28.94-1.693.42-.396 1.075-.737 2.217-.821l-.147-1.995c-1.508.112-2.628.592-3.443 1.362-.798.752-1.21 1.695-1.477 2.554l1.91.593zm2.184-3.949c-.94 1.934-.53 3.655.016 5.094l1.87-.71c-.475-1.25-.668-2.315-.087-3.509l-1.799-.875zm1.64-1.62c.098 1.56.171 2.834.004 3.82-.158.93-.488 1.383-1.06 1.609l.735 1.86c1.464-.579 2.073-1.816 2.297-3.135.214-1.263.113-2.797.02-4.279l-1.995.124zm5.776-13.03c-3.177 1.374-4.734 3.557-5.417 5.993-.66 2.353-.49 4.917-.358 7.036l1.996-.124c-.136-2.188-.264-4.402.288-6.373.53-1.888 1.693-3.575 4.285-4.697l-.794-1.835zm5.84 12.236c-2.824-3.34-5.289-6.316-4.457-11.149l-1.971-.339c-1.007 5.85 2.126 9.497 4.9 12.78l1.528-1.292zm1.611 1.953c-.524-.668-1.074-1.318-1.61-1.953l-1.528 1.291c.54.64 1.067 1.263 1.566 1.898l1.573-1.236z" fill="#000" mask="url(#a)"/><path d="M64.16 71.597a8.448 8.448 0 0 0 3.613-2.785c.896 1.771.496 3.437-.533 4.59-1.176 1.314-3.192 1.978-5.174 1.32a3.574 3.574 0 0 1-1.705-1.285 4.008 4.008 0 0 1-.653-1.427 7.878 7.878 0 0 0 4.452-.413z" fill="#FFE500" stroke="#000"/></svg>