<svg width="270" height="143" viewBox="0 0 270 143" fill="none" xmlns="http://www.w3.org/2000/svg"><path d="M245.419 96.747c-3.578 7.156-10.436 11.761-13.418 13.169 2.071-5.218 7.653-17.492 13.418-24.847 7.205-9.194 18.635-10.436 18.884-6.212.248 4.224-14.412 8.945-18.884 17.89zm-32.054-7.454c9.74 3.18 15.985 9.442 17.89 12.175 0-7.454-7.951-14.66-14.66-16.399-6.708-1.74-15.405.248-3.23 4.224z" fill="#14653C" stroke="#000"/><path d="M230.759 105.692c0-17.89-4.142-28.326-6.212-31.308.331-3.644 2.037-8.448 6.212 1.49 5.218 12.425 0 52.18 0 29.818z" fill="#14653C" stroke="#000"/><path d="M253.866 40.014c-10.137-6.56-34.04.58-44.725 4.97-36.649 7.453-32.301 32.052 13.418 31.555 45.719-.496 43.98-28.326 31.307-36.525z" fill="#F0775C" stroke="#000"/><path d="M246.787 45.74c-7.329-4.742-24.608.418-32.331 3.592-26.493 5.388-23.35 23.17 9.699 22.811 33.05-.36 31.792-20.476 22.632-26.404z" fill="#E35B4B"/><path d="M217.62 61.815c-3.379-1.59 2.402-4.97 5.715-6.46 4.224-1.49 8.448-2.982 9.194.745.745 3.727-10.685 7.703-14.909 5.715z" fill="#F3AD11" stroke="#000"/><path d="M9.362 136.607c6.53 15.151 20.1 25.427 26.068 28.671-3.655-10.985-13.715-36.91-24.718-52.723C-3.042 92.789-26.402 88.911-27.4 97.581c-1 8.671 28.6 20.087 36.763 39.026zm66.868-11.786c-20.434 5.364-34.02 17.42-38.258 22.778.854-15.213 18.064-28.998 32.087-31.772 14.023-2.773 31.715 2.29 6.172 8.994z" fill="#14653C" stroke="#000"/><path d="M38.569 156.438c2.068-36.83 11.8-57.836 16.407-63.735-.26-7.54-3.218-17.627-12.96 2.351-12.179 24.974-6.033 107.422-3.447 61.384z" fill="#14653C" stroke="#000"/><path d="M62.765 11.293c-40.23-17.948-47.193-8.75-59.958 0-25.019 25.291-12.765 46.033 12.765 55.704 25.53 9.67 17.02 37.908 40.23 45.258 18.568 5.88 32.235-5.544 36.748-11.991 16.118 3.094 48.431.773 48.74-33.267.387-42.551-28.238-33.268-78.525-55.703z" fill="#F08A95" stroke="#000"/><path d="M39.846 14.279C25.611 3.139 12.511 15.826 7.74 23.563 3.098 37.102 2.324 49.48 29.402 62.245s21.663 25.917 56.09 32.107c34.427 6.189 49.127-44.872 29.786-56.09C95.936 27.044 87.039 53.348 69.632 49.48 52.225 45.612 57.64 28.205 39.846 14.279z" fill="#E36974"/><path d="M83.391 42.27c12.379 11.22 1.934 17.409-12.378 13.154-6.637-1.974-12.209-6.208-16.247-10.324 6.19-10.323 16.247-14.046 28.625-2.828z" fill="#EBF479"/><path d="M48.577 37.242c1.138 1.951 3.26 4.873 6.19 7.857m0 0c4.037 4.116 9.609 8.35 16.246 10.324C85.325 59.678 95.77 53.489 83.39 42.27c-12.378-11.218-22.436-7.495-28.625 2.828z" stroke="#000"/><path d="M211.571 103.984c-20.613-28.417-29.084-24.843-41.38-23.89-27.344 7.485-27.152 26.682-13.385 43.529 13.766 16.847-3.359 32.945 9.731 47.265 10.471 11.456 24.456 9.018 30.139 6.366 9.891 8.558 33.116 19.832 46.893-3.538 17.222-29.212-6.233-34.211-31.998-69.732z" fill="#F6C5C9" stroke="#000"/><path d="M194.565 96.913c-5.386-13.36-19.482-9.824-25.857-6.386-8.599 7.494-14.065 15.729-.464 35.328 13.602 19.599 4.624 26.518 25.917 44.507 21.294 17.989 51.784-11.393 42.906-26.842-8.879-15.448-25.5-.84-35.972-10.445-10.472-9.606.201-19.461-6.53-36.162z" fill="#EC99A3"/><path d="M213.463 133.582c4.073 12.674-5.602 12.784-13.784 4.144-3.794-4.006-5.952-9.149-7.099-13.598 8.385-4.658 16.81-3.221 20.883 9.454z" fill="#EBF479"/><path d="M191.439 116.239c.009 1.8.309 4.662 1.141 7.889m0 0c1.147 4.449 3.305 9.592 7.099 13.598 8.182 8.64 17.857 8.53 13.784-4.144-4.073-12.675-12.498-14.112-20.883-9.454z" stroke="#000"/><path d="M125.291 131.455c6.53 15.151 20.1 25.427 26.068 28.671-3.654-10.985-13.714-36.909-24.717-52.722-13.754-19.767-37.114-23.645-38.114-14.974-.999 8.67 28.601 20.086 36.763 39.025z" fill="#14653C" stroke="#000"/><path d="M178.168 107.139c5.261 12.998-2.192 35.588-6.576 45.259-6.447 1.676-19.883 1.47-22.049-12.765-2.708-17.794 6.189-17.407 7.35-32.494 1.16-15.086 14.699-16.246 21.275 0z" fill="#407300" stroke="#000"/><path d="m165.638 64.414 13.151 9.944c.826.625.275 1.938-.749 1.787l-4.707-.695a.375.375 0 0 0-.347.605.375.375 0 0 1-.333.607l-4.958-.542c-.185-.02-.276.218-.126.326.16.115.047.366-.145.324l-2.713-.603a.547.547 0 0 0-.638.364.538.538 0 0 1-.499.376c-2.166.055-12.879.311-13.313-.002-.882-.636-4.565-2.98-7.462-5.142-.835-.622-.257-1.606.727-1.263l7.798 2.715c.827.288 1.598-.55 1.243-1.35l-1.764-3.977c-.313-.705.254-1.468 1.012-1.324 3.589.68 8.555 2.26 11.85 3.409.771.268 1.535-.44 1.316-1.225l-.909-3.268c-.257-.922.803-1.643 1.566-1.066z" fill="#16643C"/><path d="m181.909 76.717-16.271-12.303c-.763-.577-1.823.144-1.566 1.066l.909 3.268c.219.786-.545 1.493-1.316 1.225-3.295-1.148-8.261-2.729-11.85-3.41-.758-.143-1.325.62-1.012 1.325l1.764 3.977c.355.8-.416 1.638-1.243 1.35l-7.798-2.715c-.984-.343-1.562.64-.727 1.263 2.897 2.162 6.58 4.506 7.462 5.142" stroke="#000" stroke-linejoin="round"/></svg>