<svg width="505" height="427" viewBox="0 0 505 427" fill="none" xmlns="http://www.w3.org/2000/svg"><path d="M661.708 125.205 577.131 3.626a2.002 2.002 0 0 0-2.757-.535c-69.293 45.782-214.286 50.97-283.614 47.682-1.843-.087-2.795 2.155-1.481 3.45l62.669 61.733c.355.35.828.555 1.326.574l306.715 11.815c1.649.064 2.661-1.785 1.719-3.14z" fill="#A38D73" stroke="#000" stroke-width="2" stroke-linecap="round" stroke-linejoin="round"/><path d="M435.5 33.5c-91.562 7.499-164.368-2.883-190.467-9.244a1.958 1.958 0 0 0-1.831.499L113.5 147.5H469L575.692 4.757c1.055-1.412-.091-3.346-1.817-2.993C549.642 6.725 522.729 26.356 435.5 33.5z" fill="#DEC4A5"/><path d="M435.5 33.5c-91.562 7.499-164.368-2.883-190.467-9.244a1.958 1.958 0 0 0-1.831.499L113.5 147.5m322-114c87.229-7.144 114.142-26.775 138.375-31.736 1.726-.353 2.872 1.581 1.817 2.993L469 147.5m-33.5-114C404 39 336.3 49.8 317.5 49M469 147.5H113.5m355.5 0-112.5 161m-243-161L8.873 246.314c-1.275 1.205-3.373.301-3.373-1.454V235m0 0L1 236m4.5-1 4-1" stroke="#000" stroke-width="2" stroke-linecap="round" stroke-linejoin="round"/><path d="M256.122 91.377c-2.752 0-4.541-.25-5.365-.748-.825-.5-.943-1.297-.354-2.391.589-1.095 1.891-2.802 3.907-5.12 2.043-2.351 3.732-4.098 5.067-5.241a13.418 13.418 0 0 1 4.626-2.56c1.748-.564 3.988-.845 6.718-.845 1.643 0 3.066.29 4.269.87 1.216.563 1.845 1.496 1.884 2.8.04 1.305-.822 2.971-2.585 5a21.411 21.411 0 0 1-5.949 4.782c-2.259 1.223-4.468 2.109-6.629 2.656-2.148.532-4.011.797-5.589.797zm1.711-4.25c.626.064 1.089.096 1.388.096 1.514 0 2.954-.306 4.317-.918a9.848 9.848 0 0 0 3.453-2.535c.84-.966 1.085-1.715.736-2.246-.335-.548-1.238-.822-2.71-.822-.555 0-1.116.033-1.684.097l-5.5 6.328zm16.65 4.25c-1.664 0-2.784-.282-3.361-.845-.563-.58-.375-1.409.563-2.488.811-.933 1.999-1.674 3.563-2.221a14.37 14.37 0 0 1 4.778-.822c.597 0 1.117.04 1.559.121.477.064.77.145.878.242.35-.403.413-.733.189-.99-.21-.274-.774-.411-1.691-.411a6.68 6.68 0 0 0-1.055.072c-.298.049-.639.121-1.021.218-.383.096-.723.169-1.021.217a6.088 6.088 0 0 1-1.023.073c-.683 0-1.104-.13-1.264-.387-.146-.274.018-.684.494-1.232.546-.628 1.307-1.159 2.282-1.594a14.704 14.704 0 0 1 3.144-.966c1.113-.225 2.128-.338 3.046-.338 1.813 0 3.104.258 3.872.773.803.5 1.129 1.167.977 2.005-.13.837-.636 1.763-1.518 2.777a15.715 15.715 0 0 1-1.515 1.522c-.512.466-.976.829-1.392 1.086.13.194.158.419.084.677-.053.257-.199.523-.437.796-.406.467-.969.87-1.69 1.208-.699.338-1.39.507-2.073.507-.512 0-.879-.056-1.101-.169a1.439 1.439 0 0 1-.562-.531 14.04 14.04 0 0 1-2.222.531c-.716.113-1.544.17-2.483.17zm2.761-2.44c.448 0 .863-.072 1.245-.216.403-.145.696-.322.878-.532.182-.209.197-.386.046-.531-.131-.145-.42-.217-.868-.217s-.873.072-1.276.217c-.382.145-.664.322-.846.531-.182.21-.208.387-.078.532.151.144.451.217.899.217zm12.998 2.44c-1.877 0-3.167-.233-3.871-.7-.703-.467-.733-1.07-.089-1.812a4.07 4.07 0 0 1 1.606-1.11 5.497 5.497 0 0 1 2.052-.411c.384 0 .659.04.823.12.165.081.302.194.411.339a.913.913 0 0 0 .206.241c.086.049.214.073.385.073.448 0 .777-.12.987-.362.195-.226.225-.395.088-.508-.122-.128-.395-.281-.817-.459a8.82 8.82 0 0 1-.762-.338c-.673-.354-1.035-.772-1.084-1.255-.05-.483.164-.999.64-1.546.531-.612 1.323-1.192 2.375-1.739 1.087-.563 2.311-1.014 3.672-1.352a17.041 17.041 0 0 1 4.206-.532c1.216 0 2.202.13 2.96.387.778.257 1.26.612 1.444 1.062.198.435.066.918-.396 1.45a4.14 4.14 0 0 1-1.626 1.135 5.23 5.23 0 0 1-2 .386 3.08 3.08 0 0 1-.63-.048 5.423 5.423 0 0 1-.419-.218 1.565 1.565 0 0 0-.333-.169 1.123 1.123 0 0 0-.449-.072c-.171 0-.362.048-.574.145-.198.08-.353.185-.465.314-.21.241-.13.418.242.53.971.307 1.627.693 1.968 1.16.362.467.186 1.111-.527 1.932-.91 1.047-2.275 1.868-4.094 2.464-1.798.595-3.774.893-5.929.893zm12.603 0c-1.046 0-1.58-.306-1.603-.918-.022-.611.412-1.553 1.305-2.825.913-1.272 2.35-3.035 4.309-5.29 1.638-1.883 2.983-3.356 4.034-4.419 1.073-1.062 2.132-1.9 3.176-2.511 1.058-.628 2.13-.942 3.218-.942.939 0 1.447.225 1.525.676.077.45-.114 1.014-.574 1.69-.46.677-1.131 1.522-2.012 2.536l-.945 1.087a14.07 14.07 0 0 1 1.414-.338c.397-.065.927-.097 1.588-.097 1.451 0 2.454.282 3.009.846.57.547.715 1.288.437 2.222-.257.933-.883 1.972-1.877 3.115-1.287 1.481-2.564 2.705-3.831 3.67-1.231.95-2.454 1.426-3.67 1.426-.854 0-1.368-.145-1.542-.435-.154-.29-.078-.684.228-1.183.327-.5.869-1.184 1.625-2.053.826-.95 1.324-1.683 1.494-2.198.192-.515-.043-.773-.704-.773-.661 0-1.372.266-2.133.797-.725.516-1.504 1.24-2.337 2.174-.777.87-1.454 1.561-2.03 2.077a6.713 6.713 0 0 1-1.87 1.231c-.658.29-1.402.435-2.234.435zm22.656 0c-3.882 0-5.612-.893-5.189-2.68.458-1.804 1.492-3.631 3.101-5.483a47.065 47.065 0 0 1 4.007-4.057c1.503-1.336 3.02-2.455 4.55-3.357 1.531-.902 2.893-1.352 4.088-1.352.747 0 1.233.177 1.458.53.225.355.044.87-.544 1.547-.293.338-.63.676-1.009 1.014-.38.338-.871.757-1.476 1.256a36.13 36.13 0 0 0-.886.724 23.79 23.79 0 0 0-1.169 1.087c1.275-.386 2.51-.58 3.704-.58 1.195 0 2.129.202 2.803.604.696.403 1 1.023.912 1.86-.052.82-.597 1.827-1.632 3.019-.882 1.014-2.024 1.972-3.427 2.873a21.003 21.003 0 0 1-4.577 2.174c-1.628.547-3.199.821-4.714.821zm3.125-3.816c.576 0 1.218-.16 1.924-.483.742-.338 1.309-.732 1.701-1.183.392-.45.511-.845.357-1.183-.133-.338-.488-.508-1.064-.508-.576 0-1.224.17-1.944.508-.721.338-1.277.732-1.669 1.183-.392.45-.522.845-.389 1.183.147.322.508.483 1.084.483zm13.451 3.84c-1.55.016-2.716-.225-3.498-.724-.761-.5-1.104-1.184-1.031-2.053.108-.885.61-1.868 1.505-2.946.916-1.08 2.087-2.045 3.511-2.898a20.48 20.48 0 0 1 4.612-2.03c1.671-.498 3.275-.748 4.811-.748 1.493 0 2.627.242 3.402.725.796.483 1.168 1.159 1.116 2.028-.051.87-.525 1.844-1.42 2.923-.888 1.046-2.052 2.004-3.49 2.874a20.974 20.974 0 0 1-4.665 2.052c-1.664.516-3.281.781-4.853.797zm3.162-3.526c.576 0 1.224-.169 1.944-.507.721-.338 1.277-.732 1.669-1.183.392-.451.515-.838.368-1.16-.133-.338-.487-.507-1.063-.507s-1.225.17-1.945.507c-.707.322-1.256.709-1.648 1.16-.392.45-.521.845-.389 1.183.133.338.488.507 1.064.507zm11.619 3.502c-1.664 0-2.784-.282-3.361-.845-.563-.58-.375-1.409.563-2.488.811-.933 1.999-1.674 3.563-2.221a14.37 14.37 0 0 1 4.778-.822c.597 0 1.117.04 1.559.121.477.064.77.145.878.242.35-.403.413-.733.189-.99-.21-.274-.774-.411-1.691-.411a6.68 6.68 0 0 0-1.055.072c-.298.049-.639.121-1.021.218-.383.096-.723.169-1.021.217a6.088 6.088 0 0 1-1.023.073c-.683 0-1.104-.13-1.264-.387-.146-.274.018-.684.494-1.232.546-.628 1.307-1.159 2.282-1.594a14.704 14.704 0 0 1 3.144-.966c1.113-.225 2.128-.338 3.046-.338 1.813 0 3.104.258 3.872.773.803.5 1.129 1.167.977 2.005-.13.837-.636 1.763-1.518 2.777a15.715 15.715 0 0 1-1.515 1.522c-.512.466-.976.829-1.392 1.086.13.194.158.419.084.677-.053.257-.199.523-.437.796-.406.467-.969.87-1.69 1.208-.699.338-1.39.507-2.073.507-.512 0-.879-.056-1.101-.169a1.439 1.439 0 0 1-.562-.531 14.04 14.04 0 0 1-2.222.531c-.716.113-1.544.17-2.483.17zm2.761-2.44c.448 0 .863-.072 1.245-.216.403-.145.696-.322.878-.532.182-.209.197-.386.046-.531-.131-.145-.42-.217-.868-.217s-.873.072-1.276.217c-.382.145-.664.322-.846.531-.182.21-.208.387-.078.532.151.144.451.217.899.217zm10.591 2.44c-1.365 0-1.758-.604-1.177-1.811.601-1.208 1.826-2.874 3.673-5a38.661 38.661 0 0 1 2.26-2.414 10.83 10.83 0 0 1 2.312-1.667 5.77 5.77 0 0 1 2.753-.7c.597 0 1.029.105 1.295.314.287.21.327.507.119.893.75-.322 1.568-.563 2.454-.724a14.597 14.597 0 0 1 2.61-.242c.683 0 1.264.13 1.744.387.502.257.791.612.868 1.062.113.435-.054.91-.502 1.425s-1.092.974-1.933 1.377c-.805.386-1.602.58-2.392.58-.256 0-.48-.025-.673-.073a5.766 5.766 0 0 1-.45-.145 2.284 2.284 0 0 0-.856-.193c-.832 0-1.785.25-2.859.749-1.038.483-1.893 1.11-2.565 1.883a36.78 36.78 0 0 1-1.976 2.126c-.575.563-1.272 1.07-2.09 1.521a5.415 5.415 0 0 1-2.615.652zm18.661 0c-1.515 0-2.621-.273-3.318-.821-.663-.563-.918-1.288-.767-2.174.165-.901.688-1.86 1.57-2.874a15.107 15.107 0 0 1 3.584-3.018c1.39-.837 2.771-1.457 4.145-1.86 1.395-.402 2.69-.604 3.885-.604 1.195 0 2.093.194 2.696.58.251-.338.481-.7.689-1.087.229-.386.364-.628.406-.724.263-.5.499-.918.707-1.256a7.81 7.81 0 0 1 .754-1.014 5.76 5.76 0 0 1 2.144-1.546c.841-.354 1.635-.531 2.381-.531 1.195 0 1.774.45 1.737 1.352-.037.902-.477 2.02-1.318 3.357-.821 1.336-1.826 2.689-3.015 4.057-1.61 1.852-3.764 3.68-6.462 5.482-2.663 1.788-5.936 2.681-9.818 2.681zm3.509-3.816c.576 0 1.217-.16 1.924-.483.72-.338 1.276-.732 1.668-1.183.392-.45.522-.845.389-1.183-.133-.338-.487-.508-1.063-.508s-1.235.17-1.977.508c-.721.338-1.277.732-1.669 1.183-.392.45-.521.845-.388 1.183.168.322.54.483 1.116.483z" fill="#94795A"/><path d="M65.711 205.076c-.194-2.542-.175-8.484 1.452-11.912m0 0c1.627-3.429 10.968-3.197 15.434-2.652m-15.434 2.652c-2.246-.778-6.341-3.249-4.749-6.916 1.593-3.667 6.883-3.551 9.329-3.034" stroke="#000" stroke-width="3" stroke-linecap="round" stroke-linejoin="round"/><path d="m30.401 238.549 43.677 5.324m-43.677-5.324a21.925 21.925 0 0 1 7.783-14.263m-7.783 14.263a21.922 21.922 0 0 0 4.048 15.604m15.129 8.896 5.324-43.676m-5.324 43.676a21.936 21.936 0 0 0 16.822-5.001m-16.822 5.001a21.935 21.935 0 0 1-15.129-8.896m39.63-10.28a21.923 21.923 0 0 1-7.679 14.175m7.678-14.175a21.926 21.926 0 0 0-4.129-15.715m-15.047-8.785a21.938 21.938 0 0 0-16.718 4.913m16.718-4.913a21.938 21.938 0 0 1 15.047 8.785m-31.765-3.872L66.4 258.048m3.55-29.89-35.5 25.995" stroke="#000"/><path d="M53.994 226.818a14.436 14.436 0 0 0-11.019 3.239 14.424 14.424 0 0 0-5.129 9.4 14.422 14.422 0 0 0 2.667 10.283 14.44 14.44 0 0 0 9.972 5.865 14.442 14.442 0 0 0 11.089-3.298 14.422 14.422 0 0 0 5.06-9.341 14.425 14.425 0 0 0-2.721-10.357 14.434 14.434 0 0 0-9.919-5.791zm-19.949 27.63a22.425 22.425 0 0 1-4.14-15.96 22.428 22.428 0 0 1 7.96-14.587 22.44 22.44 0 0 1 17.097-5.025 22.442 22.442 0 0 1 15.39 8.986 22.423 22.423 0 0 1 4.222 16.072 22.423 22.423 0 0 1-7.852 14.497 22.44 22.44 0 0 1-17.205 5.115 22.445 22.445 0 0 1-15.472-9.098z" fill="#858585" stroke="#000"/><path d="m131.652 250.891 43.677 5.324m-43.677-5.324a21.922 21.922 0 0 1 7.783-14.262m-7.783 14.262a21.92 21.92 0 0 0 4.048 15.605m15.128 8.896 5.324-43.677m-5.324 43.677a21.942 21.942 0 0 0 16.823-5.001m-16.823 5.001a21.941 21.941 0 0 1-15.128-8.896m39.629-10.281a21.93 21.93 0 0 1-7.678 14.176m7.678-14.176a21.927 21.927 0 0 0-4.129-15.714m-15.048-8.786a21.934 21.934 0 0 0-16.717 4.914m16.717-4.914a21.94 21.94 0 0 1 15.048 8.786m-31.765-3.872 28.216 33.762m3.549-29.89-35.5 25.995" stroke="#000"/><path d="M139.097 251.799c-.969 7.949 4.689 15.179 12.639 16.148 7.949.969 15.179-4.69 16.148-12.639.969-7.949-4.69-15.179-12.639-16.148-7.95-.969-15.179 4.69-16.148 12.639zm11.671 24.089c-12.335-1.504-21.116-12.722-19.612-25.057 1.503-12.335 12.722-21.116 25.057-19.612 12.335 1.503 21.116 12.722 19.612 25.057-1.504 12.335-12.722 21.116-25.057 19.612z" fill="#858585" stroke="#000"/><path d="M71.133 243.244c1.254-10.293-6.002-19.602-16.149-20.839-3.24-.395-6.38.077-9.2 1.234a3 3 0 1 1-2.276-5.551 24.316 24.316 0 0 1 12.203-1.639c13.483 1.644 23.027 13.986 21.377 27.521a24.954 24.954 0 0 1-1.444 5.856 3 3 0 0 1-5.608-2.133 18.95 18.95 0 0 0 1.097-4.449z" fill="#EBF479" stroke="#000" stroke-linecap="round"/><circle cx="7" cy="7" r="7" transform="scale(-1 1) rotate(-6.95 1916.879 1065.742)" fill="#3D405A" stroke="#1E1E1E" stroke-width="4"/><path d="M172.906 251.863c-.818-8.7-7.684-16.021-16.868-17.14-10.586-1.291-20.143 6.146-21.409 16.531a3 3 0 0 1-5.956-.726c1.675-13.738 14.28-23.445 28.091-21.761 11.997 1.462 21.035 11.04 22.116 22.535a3 3 0 0 1-5.974.561z" fill="#EBF479" stroke="#000" stroke-linecap="round"/><path d="M62.506 205.25c.279-2.291 2.467-3.993 4.868-3.374 5.456 1.406 20.591 5.643 37.286 13.28 16.011 7.324 33.662 17.866 45.515 32.204a6.5 6.5 0 1 1-3.93 7.855c-12.378-1.056-22.958-2.037-32.507-5.02-10.122-3.162-19.048-8.552-27.92-18.488-9.777-10.948-16.226-16.34-20.251-18.75-.903 6.319-2.18 11.979-3.794 16.673-1.346 3.911-2.968 7.271-4.893 9.779a4.764 4.764 0 1 1-2.856-2.863c1.421-1.979 2.767-4.731 3.966-8.218 1.734-5.038 3.092-11.398 3.978-18.672l.538-4.406zm52.425 41.127c9.022 2.819 19.094 3.779 31.456 4.836.173-.479.4-.928.672-1.344-11.281-13.628-28.27-23.852-44.063-31.076-16.304-7.458-31.113-11.621-36.525-13.019l-.355 2.916c4.646 2.363 11.821 8.188 22.685 20.353 8.4 9.407 16.712 14.392 26.13 17.334z" fill="#EBF479" stroke="#000"/><path d="M46.23 216.278a96.798 96.798 0 0 1-6.482-.547m6.481.547 1.078-25.373m-1.078 25.373c2.375.116 4.717.061 6.808-.067m10.565-17.125.68-4.062a3 3 0 0 0-2.826-3.493l-5.381-.238m7.527 7.793-33.444-1.559m33.444 1.559-1.359 8.114m-32.085-9.673-.391-3.968a3 3 0 0 1 3.118-3.292l5.404.239m-8.13 7.021.838 8.499m31.246 1.174-1.012 6.043c-.208 1.244-1.171 2.222-2.42 2.394-1.407.194-3.433.43-5.774.574m9.206-9.011-31.246-1.174m0 0 .62 6.29c.13 1.312 1.1 2.383 2.4 2.601 1.412.237 3.415.544 5.73.814m-1.458-25.225 1.459 25.225m-1.459-25.225 9.018.399m0 0 8.768.388m0 0-3.038 24.918" stroke="#000"/><path d="M143.233 206.067c6.325 1.093 7.404 6.03 3.825 12.409-2.039 3.637-6.639 4.64-10.465 2.982-7.965-3.453-20.573-9.625-21.013-14.256-.57-5.987 11.552-3.916 27.653-1.135z" fill="#858585"/><path d="M119.67 210.255c5.544-.021 17.648.866 21.71 4.586m1.853-8.774c6.325 1.093 7.404 6.03 3.825 12.409-2.039 3.637-6.639 4.64-10.465 2.982-7.965-3.453-20.573-9.625-21.013-14.256-.57-5.987 11.552-3.916 27.653-1.135z" stroke="#000" stroke-linecap="round"/><path fill-rule="evenodd" clip-rule="evenodd" d="M134.021 215.641c.76.802.726 2.068-.075 2.828-4.191 3.974-14.934 15.153-24.085 27.798a2 2 0 0 1-3.241-2.345c9.326-12.887 20.244-24.25 24.574-28.356a2 2 0 0 1 2.827.075z" fill="#EBF479" stroke="#000" stroke-linecap="round" stroke-linejoin="round"/><mask id="a" maskUnits="userSpaceOnUse" x="268.854" y="211.495" width="174" height="129" fill="#000"><path fill="#fff" d="M268.854 211.495h174v129h-174z"/><path fill-rule="evenodd" clip-rule="evenodd" d="M384.904 214.907a6.111 6.111 0 0 0-8.606.792l-56.349 67.783-15.755-11.611a6.111 6.111 0 0 0-7.251 9.84l15.18 11.185-.668.804-34.502.066a6.11 6.11 0 0 0-6.099 6.123 6.11 6.11 0 0 0 6.122 6.099l24.302-.046-12.262 14.749a6.111 6.111 0 0 0 9.399 7.814l18.755-22.561 12.626-.024 16.948 12.489-8.16 9.815a6.11 6.11 0 1 0 9.398 7.814l8.618-10.366 5.523 4.07a6.111 6.111 0 0 0 7.251-9.84l-4.947-3.645 8.716-10.486 38.927 26.565a6.11 6.11 0 1 0 6.889-10.096l-10.567-7.211-7.976-40.29a4.824 4.824 0 0 0-.433-1.253l39.448-47.453a6.111 6.111 0 1 0-9.398-7.813l-.711.855a1.963 1.963 0 0 0-1.355-.525h-40.95a6.082 6.082 0 0 0-2.113-3.643zm12.101 92.351-4.828-24.383-11.185 13.455 16.013 10.928zm-39.836-1.391-6.824.013 4.225 3.114 2.599-3.127z"/></mask><path fill-rule="evenodd" clip-rule="evenodd" d="M384.904 214.907a6.111 6.111 0 0 0-8.606.792l-56.349 67.783-15.755-11.611a6.111 6.111 0 0 0-7.251 9.84l15.18 11.185-.668.804-34.502.066a6.11 6.11 0 0 0-6.099 6.123 6.11 6.11 0 0 0 6.122 6.099l24.302-.046-12.262 14.749a6.111 6.111 0 0 0 9.399 7.814l18.755-22.561 12.626-.024 16.948 12.489-8.16 9.815a6.11 6.11 0 1 0 9.398 7.814l8.618-10.366 5.523 4.07a6.111 6.111 0 0 0 7.251-9.84l-4.947-3.645 8.716-10.486 38.927 26.565a6.11 6.11 0 1 0 6.889-10.096l-10.567-7.211-7.976-40.29a4.824 4.824 0 0 0-.433-1.253l39.448-47.453a6.111 6.111 0 1 0-9.398-7.813l-.711.855a1.963 1.963 0 0 0-1.355-.525h-40.95a6.082 6.082 0 0 0-2.113-3.643zm12.101 92.351-4.828-24.383-11.185 13.455 16.013 10.928zm-39.836-1.391-6.824.013 4.225 3.114 2.599-3.127z" fill="#CED2A0"/><path d="m376.298 215.699 1.538 1.279-1.538-1.279zm8.606-.792 1.279-1.538-1.279 1.538zm-64.955 68.575-1.186 1.61 1.519 1.119 1.205-1.451-1.538-1.278zm-15.755-11.611-1.187 1.61 1.187-1.61zm-7.251 9.84-1.186 1.61 1.186-1.61zm15.18 11.185 1.538 1.279 1.355-1.631-1.707-1.258-1.186 1.61zm-.668.804.004 2 .936-.002.598-.72-1.538-1.278zm-34.502.066.004 2-.004-2zm-6.099 6.123-2 .004 2-.004zm6.122 6.099.004 2-.004-2zm24.302-.046 1.538 1.278 2.732-3.287-4.274.009.004 2zm-12.262 14.749-1.538-1.278 1.538 1.278zm.793 8.606-1.279 1.538 1.279-1.538zm8.606-.792 1.538 1.278-1.538-1.278zm18.755-22.561-.004-2-.936.002-.598.72 1.538 1.278zm12.626-.024 1.186-1.61-.53-.391-.66.001.004 2zm16.948 12.489 1.538 1.278 1.355-1.63-1.707-1.258-1.186 1.61zm-8.16 9.815-1.538-1.278 1.538 1.278zm.792 8.606 1.279-1.538-1.279 1.538zm8.606-.792-1.538-1.279 1.538 1.279zm8.618-10.366 1.186-1.61-1.518-1.119-1.206 1.45 1.538 1.279zm5.523 4.07 1.186-1.61-1.186 1.61zm8.545-1.295 1.61 1.187-1.61-1.187zm-1.294-8.545 1.186-1.61-1.186 1.61zm-4.947-3.645-1.538-1.279-1.356 1.631 1.707 1.258 1.187-1.61zm8.716-10.486 1.128-1.652-1.503-1.025-1.163 1.399 1.538 1.278zm38.927 26.565 1.127-1.652-1.127 1.652zm8.492-1.603-1.652-1.128 1.652 1.128zm-1.603-8.493 1.127-1.652-1.127 1.652zm-10.567-7.211-1.962.389.159.802.676.461 1.127-1.652zm-7.976-40.29-1.962.388 1.962-.388zm-.433-1.253-1.538-1.279-.841 1.012.596 1.173 1.783-.906zm39.448-47.453-1.537-1.278 1.537 1.278zm-.792-8.606-1.279 1.538 1.279-1.538zm-8.606.793-1.538-1.279 1.538 1.279zm-.711.855-1.361 1.466 1.549 1.437 1.35-1.625-1.538-1.278zm-42.305-.525-1.97.345.29 1.655h1.68v-2zm9.988 88.708-1.128 1.652 4.039 2.756-.949-4.796-1.962.388zm-4.828-24.383 1.962-.388-.815-4.119-2.684 3.229 1.537 1.278zm-11.185 13.455-1.538-1.278-1.406 1.691 1.816 1.239 1.128-1.652zm-30.647 9.55-.003-2-6.066.012 4.883 3.599 1.186-1.611zm6.824-.013 1.538 1.279 2.733-3.287-4.274.008.003 2zm-2.599 3.127-1.186 1.61 1.518 1.119 1.206-1.451-1.538-1.278zm23.266-92.016a4.111 4.111 0 0 1 5.79-.533l2.557-3.076a8.111 8.111 0 0 0-11.423 1.052l3.076 2.557zm-56.349 67.782 56.349-67.782-3.076-2.557-56.349 67.782 3.076 2.557zm-18.48-11.279 15.756 11.611 2.373-3.22-15.756-11.611-2.373 3.22zm-5.748.871a4.11 4.11 0 0 1 5.748-.871l2.373-3.22a8.111 8.111 0 0 0-11.341 1.718l3.22 2.373zm.871 5.749a4.112 4.112 0 0 1-.871-5.749l-3.22-2.373a8.11 8.11 0 0 0 1.718 11.342l2.373-3.22zm15.179 11.185-15.179-11.185-2.373 3.22 15.179 11.186 2.373-3.221zm-.316 3.692.668-.803-3.076-2.557-.668.803 3.076 2.557zm-36.036.788 34.502-.066-.008-4-34.502.066.008 4zm-4.103 4.119a4.11 4.11 0 0 1 4.103-4.119l-.008-4a8.11 8.11 0 0 0-8.095 8.127l4-.008zm4.119 4.103a4.11 4.11 0 0 1-4.119-4.103l-4 .008a8.11 8.11 0 0 0 8.126 8.095l-.007-4zm24.301-.046-24.301.046.007 4 24.302-.046-.008-4zm-10.72 18.028 12.262-14.75-3.076-2.557-12.262 14.75 3.076 2.557zm.533 5.789a4.11 4.11 0 0 1-.533-5.789l-3.076-2.557a8.112 8.112 0 0 0 1.052 11.422l2.557-3.076zm5.79-.533a4.111 4.111 0 0 1-5.79.533l-2.557 3.076a8.111 8.111 0 0 0 11.423-1.052l-3.076-2.557zm18.755-22.56-18.755 22.56 3.076 2.557 18.755-22.56-3.076-2.557zm14.16-.746-12.626.024.008 4 12.626-.024-.008-4zm18.138 12.879-16.948-12.489-2.373 3.22 16.948 12.489 2.373-3.22zm-7.808 12.704 8.16-9.816-3.076-2.557-8.16 9.816 3.076 2.557zm.533 5.789a4.11 4.11 0 0 1-.533-5.789l-3.076-2.557a8.11 8.11 0 0 0 1.052 11.422l2.557-3.076zm5.789-.533a4.11 4.11 0 0 1-5.789.533l-2.557 3.076a8.11 8.11 0 0 0 11.422-1.052l-3.076-2.557zm8.618-10.366-8.618 10.366 3.076 2.557 8.618-10.366-3.076-2.557zm8.247 3.739-5.523-4.07-2.373 3.22 5.524 4.07 2.372-3.22zm5.749-.871a4.112 4.112 0 0 1-5.749.871l-2.372 3.22a8.111 8.111 0 0 0 11.341-1.718l-3.22-2.373zm-.871-5.749a4.112 4.112 0 0 1 .871 5.749l3.22 2.373a8.112 8.112 0 0 0-1.718-11.342l-2.373 3.22zm-4.947-3.645 4.947 3.645 2.373-3.22-4.947-3.645-2.373 3.22zm8.365-13.374-8.716 10.485 3.075 2.557 8.717-10.485-3.076-2.557zm41.592 26.191-38.926-26.565-2.255 3.304 38.926 26.565 2.255-3.304zm5.713-1.079a4.11 4.11 0 0 1-5.713 1.079l-2.255 3.304a8.112 8.112 0 0 0 11.272-2.128l-3.304-2.255zm-1.078-5.713a4.111 4.111 0 0 1 1.078 5.713l3.304 2.255a8.112 8.112 0 0 0-2.128-11.272l-2.254 3.304zm-10.567-7.211 10.567 7.211 2.254-3.304-10.567-7.211-2.254 3.304zm-8.811-41.554 7.976 40.291 3.924-.777-7.977-40.291-3.923.777zm-.254-.735c.115.224.201.47.254.735l3.924-.777a6.861 6.861 0 0 0-.612-1.771l-3.566 1.813zm39.694-49.637-39.449 47.452 3.076 2.557 39.448-47.452-3.075-2.557zm-.534-5.79a4.112 4.112 0 0 1 .534 5.79l3.075 2.557a8.111 8.111 0 0 0-1.052-11.423l-2.557 3.076zm-5.789.533a4.11 4.11 0 0 1 5.789-.533l2.557-3.076a8.11 8.11 0 0 0-11.422 1.052l3.076 2.557zm-.711.855.711-.855-3.076-2.557-.711.855 3.076 2.557zm-2.893.197.012.001h.003-.002l-.004-.002-.01-.005-.005-.003 2.722-2.932a3.969 3.969 0 0 0-2.716-1.059v4zm-40.95 0h40.95v-4h-40.95v4zm-3.391-4.105a4.084 4.084 0 0 1 1.421 2.45l3.94-.689a8.082 8.082 0 0 0-2.804-4.837l-2.557 3.076zm15.341 90.425-4.828-24.383-3.923.777 4.827 24.383 3.924-.777zm-8.327-25.273-11.186 13.455 3.076 2.557 11.185-13.455-3.075-2.557zm-10.776 16.385 16.013 10.928 2.255-3.304-16.013-10.928-2.255 3.304zm-29.515 9.898 6.824-.013-.007-4-6.824.013.007 4zm5.408-.496-4.225-3.114-2.373 3.221 4.225 3.113 2.373-3.22zm-.125-2.795-2.6 3.126 3.076 2.557 2.599-3.126-3.075-2.557z" fill="#000" mask="url(#a)"/><rect x="380.27" y="211.704" width="11.222" height="147.756" rx="5.611" transform="rotate(39.737 380.27 211.704)" fill="#CED2A0" stroke="#000"/><rect x="292.723" y="277.98" width="11.222" height="92.188" rx="5.611" transform="rotate(-53.614 292.723 277.98)" fill="#CED2A0" stroke="#000"/><path d="M380.648 219.575a1.502 1.502 0 0 1 1.14-.525h46.179c1.247 0 1.949 1.432 1.187 2.418l-59.756 77.285a1.502 1.502 0 0 1-1.324.576l-48.679-4.473c-1.212-.112-1.794-1.544-1.003-2.469l62.256-72.812z" fill="#DF8365" stroke="#000" stroke-linejoin="round"/><rect x="390.588" y="272.27" width="8.661" height="50.939" rx="4.331" transform="rotate(-11.198 390.588 272.27)" fill="#CED2A0" stroke="#000"/><rect x="434.004" y="214.225" width="11.222" height="154.275" rx="5.611" transform="rotate(39.737 434.004 214.225)" fill="#CED2A0" stroke="#000"/><rect x="271.364" y="305.499" width="11.222" height="69.651" rx="5.611" transform="rotate(-90.11 271.364 305.499)" fill="#CED2A0" stroke="#000"/><rect x="274.5" y="302.5" width="6" height="51" rx="3" transform="rotate(-90 274.5 302.5)" fill="#FFD891" stroke="#000" stroke-linejoin="round"/><rect x="300.507" y="305.476" width="11.222" height="72.508" rx="5.611" transform="rotate(-90.11 300.507 305.476)" fill="#CED2A0" stroke="#000"/><rect x="339.851" y="282.446" width="11.222" height="93.385" rx="5.611" transform="rotate(-55.69 339.851 282.446)" fill="#CED2A0" stroke="#000"/><path d="M352.343 138.902c-4.353-.871-10.009 4.493-10.418 6.127-1.021 4.289 1.35 10.906 9.192 10.416 9.804-.613 10.415-14.705 1.226-16.543zm-51.684-4.807c4.353-.871 10.009 4.494 10.417 6.127 1.021 4.29-1.349 10.907-9.191 10.416-9.804-.612-10.415-14.705-1.226-16.543zm-70.688 123.061c9.971-7.228 28.326-10.228 36.257-10.416 22.093 8.282 15.861 45.173 10.763 45.173-44.146 0-38.851 26.544-47.02 23.152-6.798-2.824-33.425-17.505-28.326-21.458 4.078-3.162 11.707-5.27 14.728-3.952 6.229-2.259 3.628-25.271 13.598-32.499z" fill="#725D41" stroke="#000" stroke-linecap="round" stroke-linejoin="round"/><path d="M218.743 221.005c11.889-10.43 37.86-3.515 75.749-32.094 1.051-.793 2.595-.409 3.018.838 5.667 16.718-.835 37.2-21.759 45.349-21.956 8.551-31.861 8.578-50.721 3.838-1.256 2.902-.764 4.315-3.197 5.965-3.359 2.277-18.222-10.619-3.09-23.896z" fill="#725D41"/><path d="M226.734 233.873c-1.169 2.869-1.704 5.063-1.704 5.063m0 0c-1.256 2.902-.764 4.315-3.197 5.965-3.359 2.277-18.222-10.619-3.09-23.896 11.889-10.43 37.86-3.515 75.749-32.094 1.051-.793 2.595-.409 3.018.838 5.667 16.718-.835 37.2-21.759 45.349-21.956 8.551-31.861 8.578-50.721 3.838z" stroke="#000"/><path d="M373.174 209.364c-2.941-15.195-15.318-30.023-20.221-50.243l-56.982 20.22c0 31.249-41.608 46.762-44.47 69.659-1.5 12 2.5 15.5 2.5 15.5C239.501 279 247.5 306 242.5 306c-2.285 0-11.458.459-14.499 3.5-6.5 6.5 30.499 28 35 22 3.6-4.8 19.61-28.058 32.97-34.5 10.417-5.023 23.194 1.522 56.982-3.5 20.733-3.082 23.897-65.142 20.221-84.136z" fill="#725D41"/><path d="M279.001 253.5c-9 0-19.5 5.5-25 11m0 0C239.501 279 247.5 306 242.5 306c-2.285 0-11.458.459-14.499 3.5-6.5 6.5 30.499 28 35 22 3.6-4.8 19.61-28.058 32.97-34.5 10.417-5.023 23.194 1.522 56.982-3.5 20.733-3.082 23.897-65.142 20.221-84.136-2.941-15.195-15.318-30.023-20.221-50.243l-56.982 20.22c0 31.249-41.608 46.762-44.47 69.659-1.5 12 2.5 15.5 2.5 15.5z" stroke="#000" stroke-linecap="round" stroke-linejoin="round"/><path d="M351.728 170.763c-4.325 5.766-36.874 9.845-54.701 13.274a1.967 1.967 0 0 0-1.459 1.213c-3.324 8.331-9.251 23.44-11.208 30.857-.408 1.547 1.079 2.4 2.384 1.475 25.286-17.937 64.984-36.223 64.984-46.819z" fill="#B5966E" stroke="#000"/><path d="M302.711 139.514c-8.823 3.922-14.092 17.157-15.318 27.573 5.515 18.994 9.804 25.734 42.278 17.156 32.474-8.578 24.508-25.121 17.156-36.763-7.353-11.642-33.087-12.867-44.116-7.966z" fill="#725D41" stroke="#000" stroke-linecap="round" stroke-linejoin="round"/><path d="M317.53 153.688a4.074 4.074 0 1 0 8.145.226c.063-2.249-1.583-.955-3.832-1.018-2.25-.062-4.251-1.458-4.313.792zm-22.058-1.226a4.075 4.075 0 0 0 8.146.227c.062-2.249-1.584-.956-3.833-1.018-2.25-.063-4.25-1.458-4.313.791z" fill="#000"/><circle cx="296.584" cy="152.382" r="8.078" fill="#fff" fill-opacity=".21" stroke="#000"/><path d="M308.913 151.286c-2.91.485-13.856 4.808-24.176 10.833-.22.129-.423.309-.574.515-9.788 13.286 14.416 21.111 24.75 19.288 10.416-1.838 7.965-9.191 7.352-19.607-.613-10.417-3.676-11.642-7.352-11.029z" fill="#B5966E" stroke="#000"/><path d="M284.443 163.491a4.074 4.074 0 1 0 8.146.227c.062-2.25-1.584-.956-3.833-1.018-2.249-.063-4.25-1.458-4.313.791z" fill="#000"/><circle cx="319.867" cy="153.607" r="9.303" fill="#fff" fill-opacity=".21" stroke="#000"/><path d="m210.803 202.624-4.289 2.451 14.706 22.671 37.988-10.417.613-12.867-1.226-3.063-1.225-3.064c-17.646 0-34.312 12.255-36.15 16.544-1.471-5.392-4.289-7.353-10.417-12.255z" fill="#fff"/><path d="M234.699 208.139c3.881-2.655 14.093-7.72 23.896-6.74m0 0-1.225-3.064c-17.646 0-34.312 12.255-36.15 16.544-1.471-5.392-4.289-7.353-10.417-12.255l-4.289 2.451 14.706 22.671 37.988-10.417.613-12.867-1.226-3.063z" stroke="#000"/><path d="m260.045 203.582-35.882 12.352a1.004 1.004 0 0 0-.636.671l-.875 3.063a1 1 0 0 1-.961.725h-3.76a1 1 0 0 1-1-1v-2.942a.999.999 0 0 0-.215-.619l-10.025-12.725c-.74-.939-2.207-.022-1.686 1.055l14.334 29.624a.951.951 0 0 0 .101.164l14.647 19.53h6.127l32.032-6.525c.569-.116.92-.692.763-1.251l-11.676-41.448a1 1 0 0 0-1.288-.674z" fill="#F5C142"/><path d="m240.214 253.48 32.032-6.525c.569-.116.92-.692.763-1.251l-11.676-41.448a1 1 0 0 0-1.288-.674l-35.882 12.352a1.004 1.004 0 0 0-.636.671l-.875 3.063a1 1 0 0 1-.961.725h-3.76a1 1 0 0 1-1-1v-2.942a.999.999 0 0 0-.215-.619l-10.025-12.725c-.74-.939-2.207-.022-1.686 1.055l14.334 29.624a.951.951 0 0 0 .101.164l14.647 19.53m6.127 0h-6.127m6.127 0-14.705-30.023m8.578 30.023-15.931-30.023" stroke="#000" stroke-linejoin="round"/><path d="M290.307 223.803c6.627-1.327 26.79-24.019 45.947-35.742 1.145-.701 2.616-.046 2.909 1.264l8.772 39.132c.077.343.061.697-.101 1.01-.844 1.625-4.636 7.264-19.605 15.911-22.408 12.945-24.869 5.178-51.711 5.178-17.235 0-22.406-3.452-17.235-12.082 5.171-8.63 22.406-12.945 31.024-14.671z" fill="#725D41"/><path d="M338.574 186.694c-19.823 11.219-41.372 35.728-48.267 37.109-8.618 1.726-25.853 6.041-31.024 14.671-5.171 8.63 0 12.082 17.235 12.082 26.842 0 29.303 7.767 51.711-5.178 17.927-10.356 19.823-16.397 19.823-16.397" stroke="#000"/><path d="M253.694 241.838c.612-1.225 4.901-3.063 7.352-3.063l-.612 1.838c-1.471-.491-4.289.408-6.74 1.225zm0 4.289c.612-1.225 4.901-3.063 7.352-3.063l-.612 1.838c-1.471-.491-4.289.408-6.74 1.225zm-27.098-4.166c-.984.847-4.503.937-5.989.079l1.29-1.377c.647.939 2.805 1.148 4.699 1.298zm-1.225 2.451c-.984.847-4.504.937-5.99.079l1.291-1.377c.646.939 2.805 1.147 4.699 1.298zm30.161 4.166c2.451-.081 3.676 0 6.126-1.225l1.226 1.225c-1.837.613-4.901.613-7.352 0z" fill="#000" stroke="#000" stroke-linejoin="round"/><rect x="339.695" y="281.964" width="11.222" height="93.385" rx="5.611" transform="rotate(-55.69 339.695 281.964)" fill="#CED2A0" stroke="#000"/><path d="M467 375.859c-1.01 3.292-2.828 10.898-2.02 14.984.673 3.406.926 8.783.991 12.189a1.966 1.966 0 0 1-1.744 1.984L388.895 414l-34.784-18.077c-1.032-.536-1.52-1.908-1.329-3.055.37-2.224.582-5.775.692-9.517l-19.585-2.053a1.97 1.97 0 0 1-1.77-2.094c.723-9.959 3.323-25.964 9.104-27.523 3.995-1.135 14.478-2.929 24.443-1.022 3.336.639 6.189 1.277 8.753 1.843 6.845-.273 21.748-1.434 26.596-3.886 6.06-3.065 14.813-3.887 19.189 0 3.502 3.109 5.948 10.15 6.734 13.281L467 375.859z" fill="#DEC4A5"/><path d="m353.546 371.432 35.349 14.644m-35.349-14.644c20.873-2.383 64.773-7.628 73.392-9.535m-73.392 9.535c-.337-5.789-2.895-17.844-10.436-19.751a3.678 3.678 0 0 0-1.887 0m12.323 19.751c.05 3.075.056 7.622-.072 11.919m35.421 2.725c1.347 4.903.561 20.659 0 27.924m0-27.924 38.043-4.976M467 375.859c-1.01 3.292-2.828 10.898-2.02 14.984.673 3.406.926 8.783.991 12.189a1.966 1.966 0 0 1-1.744 1.984L388.895 414M467 375.859l-40.062-13.962M467 375.859l-40.062 5.241M388.895 414l-34.784-18.077c-1.032-.536-1.52-1.908-1.329-3.055.37-2.224.582-5.775.692-9.517m109.149 4.087c-1.571 1.702-4.915 5.993-5.723 9.535m-29.962-35.076c.449 5.31 1.077 16.584 0 19.203m0-19.203c-.786-3.131-3.232-10.172-6.734-13.281-4.376-3.887-13.129-3.065-19.189 0-4.848 2.452-19.751 3.613-26.596 3.886m-20.945 30.849-19.585-2.053a1.97 1.97 0 0 1-1.77-2.094c.723-9.959 3.323-25.964 9.104-27.523m0 0c3.995-1.135 14.478-2.929 24.443-1.022 3.336.639 6.189 1.277 8.753 1.843m18.516 1.563c-6.655.997-11.506-.014-18.516-1.563" stroke="#000"/><path d="m388.895 386.076-35.349-14.643c20.873-2.384 64.773-7.629 73.391-9.536L467 375.86l-40.063 5.24-38.042 4.976z" fill="#A38D73"/><path d="M426.937 361.897c-8.618 1.907-52.518 7.152-73.391 9.536l35.349 14.643 38.042-4.976m0-19.203L467 375.86l-40.063 5.24m0-19.203c.449 5.31 1.078 16.584 0 19.203" stroke="#000" stroke-linejoin="round"/><mask id="b" style="mask-type:alpha" maskUnits="userSpaceOnUse" x="359" y="336" width="106" height="50"><path d="m388.518 385.309-27.56-10.936c-1.933-.767-1.648-4.063.345-4.661 22.582-6.783 61.069-29.926 71.042-33.373.711-.246 1.456.027 1.934.608l29.426 35.764c.999 1.214.272 3.052-1.287 3.254l-72.904 9.468c-.337.044-.68.001-.996-.124z" fill="#DEC4A5"/></mask><g mask="url(#b)" stroke="#000"><circle cx="383" cy="377" r="10.5" fill="#C9615F"/><path d="M382 370c.5.167 1.8.4 3 0" stroke-linecap="round" stroke-linejoin="round"/><circle cx="399" cy="382" r="10.5" fill="#C9615F"/><path d="M398 375c.5.167 1.8.4 3 0" stroke-linecap="round" stroke-linejoin="round"/><rect x="413.5" y="358.5" width="31" height="34" rx="8.5" fill="#8ED4D0"/><path d="M440.5 359.5c0 .427-.229.894-.775 1.377-.545.484-1.362.942-2.415 1.337-2.103.788-5.04 1.286-8.31 1.286-3.27 0-6.207-.498-8.31-1.286-1.053-.395-1.87-.853-2.415-1.337-.546-.483-.775-.95-.775-1.377v-8h23v8z" fill="#DD6F37"/><path d="M440.5 351.5c0 .427-.229.894-.775 1.377-.545.484-1.362.942-2.415 1.337-2.103.788-5.04 1.286-8.31 1.286-3.27 0-6.207-.498-8.31-1.286-1.053-.395-1.87-.853-2.415-1.337-.546-.483-.775-.95-.775-1.377 0-.427.229-.894.775-1.377.545-.484 1.362-.942 2.415-1.337 2.103-.788 5.04-1.286 8.31-1.286 3.27 0 6.207.498 8.31 1.286 1.053.395 1.87.853 2.415 1.337.546.483.775.95.775 1.377z" fill="#CF8864"/></g><path d="M359.231 355.641c-3.202-.515-4.393 2.541-4.758 4.807l1.527.649s1.52-.159 2.45-.601c2.807-1.338 2.723-4.542.781-4.855z" fill="#fff" stroke="#000" stroke-linecap="round"/><path d="M349.008 363.458c.25-1.554 1.388-2.433 1.926-2.679 2.912.469 5.981-.032 7.108-.847 1.127-.814 4.854.782 3.822 4.101-1.033 3.32-5.636 4.073-9.519 3.448-3.107-.5-3.164-2.004-3.493-3.053l-1.378-.72 1.534-.25z" fill="#FEEF48" stroke="#000" stroke-linecap="round"/><path d="M349.008 363.458c.25-1.554 1.44-2.757 2.896-2.522 0 0-1.075.49-1.439 2.756-.553 3.433 1.88 3.789 1.88 3.789s-3.477-.062-3.493-3.053l-1.378-.719 1.534-.251z" fill="#000"/><path d="M353.36 361.17c-.396 1.43-1.27 4.178.034 5.982m3.059-6.48c-.396 1.43-.375 5.418 1.799 6.266" stroke="#000" stroke-linecap="round"/><path d="M352.962 355.224c3.232-.276 3.31 4.185 2.945 6.451l-1.654.137s-1.393-.628-2.136-1.34c-2.246-2.151-3.195-4.902.845-5.248z" fill="#fff" stroke="#000" stroke-linecap="round"/><path d="M358.124 361.439c-.219-.699-.335-2.245.955-2.834m1.797 2.281c.084-.517.457-1.599 1.284-1.785" stroke="#000" stroke-linecap="round"/><path d="m409.445 385.766 8.122-1.099 1.359 8c0 1.777-.272 6.866-1.359 13-.527 2.968 1.102 6.838 3.398 10.52 13.862 2.015 23.315-1.285 26.308-3.187-2.544-4.531-5.783-9.607-5.582-14.333.12-2.822-.108-5.876-.469-8.667a75.892 75.892 0 0 0-1.06-6.18c-.25-1.158.507-2.314 1.677-2.499l8.346-1.321c.373 1.831.911 5.11 1.229 8.667.261 2.918.375 6.022.13 8.666-.482 5.201 3.095 11.658 5.57 15.147.509.719.544 1.682.032 2.399-2.164 3.024-5.745 7.727-7.64 9.121-2.175 1.6-14.724 2-20.727 2-3.284-1.111-10.125-3.467-11.212-4-1.36-.667-11.213-14-10.533-17 .543-2.4.679-8.778.679-11.667v-5.585a2 2 0 0 1 1.732-1.982z" fill="#CED2A0"/><path d="m417.567 384.667-8.122 1.099a2 2 0 0 0-1.732 1.982v5.585m9.854-8.666 1.359 8m-1.359-8-9.854 8.666m11.213-.666-11.213.666m11.213-.666-9.514-5.334m9.514 5.334c0 1.777-.272 6.866-1.359 13-.527 2.968 1.102 6.838 3.398 10.52m-13.252-22.854c0 2.889-.136 9.267-.679 11.667-.68 3 9.173 16.333 10.533 17 1.087.533 7.928 2.889 11.212 4m0 0c6.003 0 18.552-.4 20.727-2 1.895-1.394 5.476-6.097 7.64-9.121.512-.717.477-1.68-.032-2.399-2.475-3.489-6.052-9.946-5.57-15.147.245-2.644.131-5.748-.13-8.666M428.779 426c-2.162-2.178-5.367-5.889-7.814-9.813M450.185 380l-8.346 1.321c-1.17.185-1.927 1.341-1.677 2.499a75.892 75.892 0 0 1 1.06 6.18m8.963-10c.373 1.831.911 5.11 1.229 8.667M450.185 380l-7.475 8.667m7.475 32.666c.278-2.318-1.15-5.195-2.912-8.333m0 0c-2.544-4.531-5.783-9.607-5.582-14.333.12-2.822-.108-5.876-.469-8.667m6.051 23c-2.993 1.902-12.446 5.202-26.308 3.187M441.222 390l10.192-1.333m-10.192-6 8.963 4.666" stroke="#000" stroke-linejoin="round"/><path d="M340 383h5a2 2 0 0 1 2 2v2a2 2 0 0 1-2 2h-2.308" stroke="#000" stroke-width="2" stroke-linecap="round" stroke-linejoin="round"/><path d="M326.589 375c-8.706 0-15.589 2.15-15.589 4.803 0 .834.523 1.619 1.752 2.302l2.627 12.195c.525 1.201 3.923 3.259 11.21 3.259 7.286 0 9.984-.858 11.56-2.573l2.941-13.297c.813-.579 1.263-1.217 1.263-1.886 0-2.653-7.058-4.803-15.764-4.803z" fill="#D9D9D9"/><path d="M312.752 382.105c-1.229-.683-1.752-1.468-1.752-2.302 0-2.653 6.883-4.803 15.589-4.803s15.764 2.15 15.764 4.803c0 1.969-3.891 3.662-9.458 4.403m-20.143-2.101 2.627 12.195c.525 1.201 3.923 3.259 11.21 3.259 7.286 0 9.984-.858 11.56-2.573l2.941-13.297m-28.338.416c1.154.643 2.777 1.196 4.729 1.618" stroke="#000" stroke-linecap="round" stroke-linejoin="round"/><path d="M338.735 380.059c0 .129-.122.403-.74.757-.58.332-1.452.648-2.573.92-2.235.542-5.348.882-8.804.882-3.457 0-6.57-.34-8.805-.882-1.121-.272-1.993-.588-2.573-.92-.618-.354-.74-.628-.74-.757s.122-.403.74-.757c.58-.332 1.452-.648 2.573-.92 2.235-.542 5.348-.882 8.805-.882 3.456 0 6.569.34 8.804.882 1.121.272 1.993.588 2.573.92.618.354.74.628.74.757z" fill="#725D41" stroke="#000"/><path d="M321.647 380.059c1.402-.255 4.895-.688 7.648-.383" stroke="#fff" stroke-linecap="round" stroke-linejoin="round"/><path d="M285.734 326.181c-1.228-1.95-3.176-3.583-5.992-3.093-2.871.498-1.697 2.902.283 5.136-1.167-.741-3.6-1.524-4 1.276-.4 2.8 4.166 3.5 6.5 3.5h8.362c.557-1.525-.558-9.404-3.623-9.15-2.06.171-1.97 1.43-1.53 2.331z" fill="#71A20F"/><path d="M287.264 329.95a12.206 12.206 0 0 0-1.254-3.304m0 0c-1.203-2.145-3.231-4.086-6.268-3.558-2.871.498-1.697 2.902.283 5.136-1.167-.741-3.6-1.524-4 1.276-.4 2.8 4.166 3.5 6.5 3.5m3.485-6.354c-.604-.847-1.197-2.593 1.254-2.796 3.065-.254 4.18 7.625 3.623 9.15" stroke="#000" stroke-linecap="round" stroke-linejoin="round"/><path d="M36.734 259.181c-1.228-1.95-3.176-3.583-5.992-3.093-2.87.498-1.697 2.902.283 5.136-1.167-.741-3.6-1.524-4 1.276-.4 2.8 4.166 3.5 6.5 3.5h8.362c.557-1.525-.558-9.404-3.623-9.15-2.06.171-1.97 1.43-1.53 2.331z" fill="#71A20F"/><path d="M38.264 262.95a12.215 12.215 0 0 0-1.254-3.304m0 0c-1.203-2.145-3.231-4.086-6.268-3.558-2.87.498-1.697 2.902.283 5.136-1.167-.741-3.6-1.524-4 1.276-.4 2.8 4.166 3.5 6.5 3.5m3.485-6.354c-.604-.847-1.197-2.593 1.255-2.796 3.064-.254 4.179 7.625 3.622 9.15" stroke="#000" stroke-linecap="round" stroke-linejoin="round"/><path d="M439.515 318.158c7.681 1.463-2.286 12.04-6.858 15.545l-2.744 2.286h-8.686c-.915-2.743.914-16.917 5.943-16.46 3.381.308 3.233 2.573 2.513 4.194 2.013-3.509 5.211-6.446 9.832-5.565z" fill="#71A20F"/><path d="M427.17 330.502a23.296 23.296 0 0 1 2.06-5.943m3.427 9.144c4.572-3.505 14.539-14.082 6.858-15.545-4.984-.95-8.313 2.541-10.285 6.401m0 0c.99-1.524 1.964-4.664-2.06-5.03-5.029-.457-6.858 13.717-5.943 16.46" stroke="#000" stroke-linecap="round"/></svg>