<svg width="117" height="124" viewBox="0 0 117 124" fill="none" xmlns="http://www.w3.org/2000/svg"><path d="M7.937 58.973h0l5.665-3.486a4 4 0 0 1 1.359-.525l2.907-.545-3.788-5.904a4 4 0 0 1 .278-4.703l7.653-9.293 2.316 1.907-2.316-1.907a3.951 3.951 0 0 1 3.561-1.418c3.881.505 12.948 2.81 14.52 3.212l3.76.302-5.58-21.09a4 4 0 0 1 1.554-4.287L50.01 4.023a4 4 0 0 1 3.827-.438L52.7 6.36l1.136-2.776 11.414 4.67a4 4 0 0 1 2.486 3.702v.148l8.254-.986.355 2.975-.355-2.975a4 4 0 0 1 .865-.009l22.886 2.244a4 4 0 0 1 3.583 3.513l1.718 14.598c.014.116.021.233.021.35v21.218l8.42 16.74h0c.459.912.551 1.967.258 2.946l-1.137 3.788a4 4 0 0 1-2.566 2.645l-3.388 1.129-1.577 9.63a3.994 3.994 0 0 1-1.054 2.115l-9.502 9.955-2.17-2.071 2.17 2.071a4.02 4.02 0 0 1-.728.601h0l-26.93 17.345-1.624-2.522 1.624 2.522a4.001 4.001 0 0 1-4.081.148L22.48 98.095a4 4 0 0 1-1.525-1.472L13.77 84.497a4 4 0 0 1-.559-2.04v-.753a4 4 0 0 1-1.31-1.086M7.937 58.973 11.9 80.618M7.937 58.973a4 4 0 0 0-1.482 1.618L3.6 66.302a4 4 0 0 0 .428 4.254l7.874 10.062M7.937 58.973 11.9 80.618m32.182-43.133v-.003.003zM20.785 53.87h-.002.002l.369 1.966-.369-1.966z" fill="#A75" stroke="#fff" stroke-width="6" stroke-linecap="round" stroke-linejoin="round"/><path d="M23.537 95.093 16.35 82.967a1 1 0 0 1-.14-.51v-1.973a1 1 0 0 0-.542-.889l-1.076-.553a1.002 1.002 0 0 1-.33-.273L6.39 68.708a1 1 0 0 1-.107-1.064l2.856-5.712a1 1 0 0 1 .37-.404l5.665-3.486a.997.997 0 0 1 .34-.132l5.824-1.092a1 1 0 0 0 .658-1.523l-5.391-8.402a1 1 0 0 1 .07-1.176l7.652-9.293a.952.952 0 0 1 .858-.35c3.84.5 13.384 2.943 14.333 3.187a.913.913 0 0 0 .163.027l5.665.455a1 1 0 0 0 1.028-.68l.591-1.774a1 1 0 0 0 .018-.572l-5.811-21.961a1 1 0 0 1 .388-1.072l10.184-7.213a1 1 0 0 1 .957-.11l11.414 4.67a1 1 0 0 1 .622.926v2.401a1 1 0 0 0 1.118.993l10.492-1.253a1 1 0 0 1 .216-.002l22.886 2.244a1 1 0 0 1 .896.878l1.719 14.598v21.692c0 .156.036.31.107.45l8.633 17.162a.996.996 0 0 1 .064.737l-1.136 3.787a1 1 0 0 1-.642.662l-4.533 1.511a1 1 0 0 0-.671.787l-1.772 10.822a1.004 1.004 0 0 1-.264.528l-9.502 9.956a1.013 1.013 0 0 1-.182.15l-26.93 17.345a1 1 0 0 1-1.02.037l-40.298-21.98a1 1 0 0 1-.381-.369z" fill="#A75" stroke="#000" stroke-width="3" stroke-linecap="round" stroke-linejoin="round"/><ellipse cx="59.897" cy="78.784" rx="43.393" ry="28.188" transform="rotate(2.582 59.897 78.784)" fill="#642" stroke="#000"/><path d="M102.746 73.19c-.34 7.55-5.364 14.24-13.348 18.93-7.98 4.686-18.86 7.333-30.748 6.797-11.889-.537-22.487-4.152-30.012-9.537-7.53-5.389-11.931-12.504-11.59-20.055.34-7.55 5.363-14.24 13.347-18.93 7.98-4.686 18.86-7.333 30.749-6.797 11.888.536 22.486 4.151 30.012 9.537 7.53 5.388 11.93 12.503 11.59 20.054z" fill="#B8C5CB" stroke="#000"/><path d="m75.912 15.493-7.028.727c-1.136.117-1.218 1.742-.1 1.974l7.104 1.47a1 1 0 0 0 .203.02h18.857a1 1 0 0 0 .332-.057l3.009-1.062c1.032-.364.812-1.885-.282-1.941l-21.941-1.135a.996.996 0 0 0-.154.004z" fill="#838E97"/><path d="M24.27 57.32a.512.512 0 0 0 .157.132l6.065 3.266a.5.5 0 0 0 .359.045l7.465-1.867a.5.5 0 0 0 .367-.376l.933-4.2a.498.498 0 0 0 .004-.198l-2.8-15.397a.5.5 0 0 0-.413-.404l-11.664-1.867a.5.5 0 0 0-.45.16l-8.4 9.331a.5.5 0 0 0-.022.643l8.399 10.731z" fill="#921D64" stroke="#000" stroke-linejoin="round"/><path d="m24.877 48.123 5.673 11.782a.5.5 0 0 0 .58.266l6.155-1.642a.5.5 0 0 0 .363-.57l-2.603-14.752a.5.5 0 0 0-.716-.36l-9.225 4.612a.5.5 0 0 0-.227.664z" fill="#D55AAA"/><path d="m36.283 41.063 2.36 12.587a.5.5 0 0 1 0 .19l-.394 1.966c-.108.543-.887.534-.983-.01l-2.319-13.144a.499.499 0 0 1 .007-.208l.353-1.41c.13-.52.877-.498.976.03z" fill="#AE2A5D"/><path d="M24.664 47.09v-8.84a.5.5 0 0 0-.872-.334l-6.917 7.685a.5.5 0 0 0 .29.828l6.916 1.153a.5.5 0 0 0 .583-.494z" fill="#BD3789"/><path d="M24.664 46.87v-8.646a.5.5 0 0 1 .723-.448l8.647 4.324a.5.5 0 0 1 0 .894l-8.647 4.324a.5.5 0 0 1-.723-.447z" fill="#F37EC6"/><path d="m35.309 38.739-7.045-.96c-.55-.076-.794.666-.309.933l6.405 3.522a.5.5 0 0 0 .726-.317l.64-2.561a.5.5 0 0 0-.417-.617z" fill="#C73F93"/><path d="m25.13 47.213 8.15-4.075a1 1 0 0 1 1.43.708l1.618 8.5" stroke="url(#a)" stroke-width="1.2" stroke-linecap="round" stroke-linejoin="round"/><path d="M48.443 41.274a.5.5 0 0 0 .794.265l12.334-9.793a.5.5 0 0 0 .146-.189l1.74-3.934a.501.501 0 0 0 .043-.193l.282-15.647a.5.5 0 0 0-.326-.478l-11.07-4.123a.5.5 0 0 0-.473.068l-10.07 7.499a.5.5 0 0 0-.184.527l6.784 25.998z" fill="#921D64" stroke="#000" stroke-linejoin="round"/><path d="m50.224 18.65 3.246 12.667a.5.5 0 0 0 .516.375l6.358-.4a.5.5 0 0 0 .469-.488l.347-14.976a.5.5 0 0 0-.631-.494l-9.952 2.71a.5.5 0 0 0-.353.606z" fill="#D55AAA"/><path d="m62.796 13.97-.16 12.805a.5.5 0 0 1-.039.186l-.772 1.85c-.213.51-.974.349-.961-.204l.31-13.342a.5.5 0 0 1 .047-.203l.623-1.313c.23-.485.959-.316.952.22z" fill="#AE2A5D"/><path d="m50.218 17.594 1.737-8.666a.5.5 0 0 0-.789-.499l-8.292 6.176a.5.5 0 0 0 .12.868l6.556 2.49a.5.5 0 0 0 .668-.369z" fill="#BD3789"/><path d="m50.261 17.38 1.7-8.478a.5.5 0 0 1 .797-.297l7.628 5.94a.5.5 0 0 1-.175.876l-9.328 2.54a.5.5 0 0 1-.622-.581z" fill="#F37EC6"/><path d="m62.297 11.5-6.719-2.327c-.524-.182-.91.497-.486.854l5.587 4.713a.5.5 0 0 0 .775-.168l1.131-2.386a.5.5 0 0 0-.288-.687z" fill="#C73F93"/><path d="m50.651 17.807 8.792-2.393a1 1 0 0 1 1.262.974l-.083 8.653" stroke="url(#b)" stroke-width="1.2" stroke-linecap="round" stroke-linejoin="round"/><path d="m67.86 45.828-.11.488.11-.488a1.5 1.5 0 0 0-.485-.029l-13.263 1.372a1.54 1.54 0 0 0-.307.065l-29.747 9.61a1.5 1.5 0 0 0-.962.954l-5.04 15.119a1.5 1.5 0 0 0 1.289 1.968l70.891 6.403c.17.015.342.001.508-.041l17.453-4.475a1.502 1.502 0 0 0 1.083-1.09l.712-2.847c.074-.3.055-.615-.056-.903l-6.693-17.403-.467.18.467-.18a1.501 1.501 0 0 0-1.069-.925l-34.313-7.778z" fill="#9AABBB" stroke="#000" stroke-linejoin="round"/><path d="m67.426 46.297-10.238 1.059c-.97.1-1.237 1.388-.387 1.866l4.567 2.57a1 1 0 0 0 .333.115l31.785 5.067a1 1 0 0 0 .458-.034l5.118-1.616c.973-.307.915-1.703-.08-1.929L67.75 46.316a1.002 1.002 0 0 0-.324-.02z" fill="#838E97"/><path d="m107.485 76.41-15.469 3.57a1 1 0 0 1-1.199-1.201l2.777-11.9a1 1 0 0 1 .644-.717l7.931-2.776a1 1 0 0 1 1.25.55l4.76 11.106a1 1 0 0 1-.694 1.369z" fill="#B8C5CB"/><path d="m102.963 62.286-.759-6.83a1 1 0 0 0-.862-.88l-47.977-6.398a1 1 0 0 0-.467.05l-23.319 8.3c-.994.353-.834 1.805.213 1.934l63.695 7.853a1 1 0 0 0 .453-.049l8.359-2.926a1 1 0 0 0 .664-1.054z" fill="#838D95"/><path d="m75.856 14.996-12.779 1.322a1.5 1.5 0 0 0-1.287 1.076l-6.55 22.71a1.5 1.5 0 0 0 .94 1.83L98.8 57.027a1.5 1.5 0 0 0 2-1.36l.881-24.683-.5-.018.5.018a1.513 1.513 0 0 0-.012-.252l-1.746-13.098a1.5 1.5 0 0 0-1.397-1.299L76.1 14.991a1.497 1.497 0 0 0-.244.005z" fill="#9AABBB" stroke="#000" stroke-linejoin="round"/><path d="M101.185 30.956v11.775c0 1.23-1.79 1.375-1.988.16l-3.505-21.618a1 1 0 0 1 .457-1.008l1.874-1.171a1 1 0 0 1 1.519.701l1.632 11.014c.007.049.011.098.011.147z" fill="#78818E"/><path d="M61.776 31.335 49.14 32.642a1.5 1.5 0 0 0-1.316 1.198l-4.309 21.542a1.5 1.5 0 0 0 1.299 1.785L87.8 62.144a1.5 1.5 0 0 0 .757-.109l11.141-4.714a1.5 1.5 0 0 0 .888-1.667L97.6 40.292a1.5 1.5 0 0 0-1.14-1.176l-34.198-7.752a1.5 1.5 0 0 0-.486-.029z" fill="#9AABBB" stroke="#000" stroke-linejoin="round"/><path d="M61.827 32.3 51.59 33.357c-.97.1-1.237 1.388-.387 1.867l4.567 2.569a.998.998 0 0 0 .333.116l31.785 5.067a1 1 0 0 0 .458-.034l5.118-1.616c.973-.308.915-1.704-.08-1.93L62.15 32.32a1 1 0 0 0-.324-.02z" fill="#838E97"/><path d="m99.5 55.959-9.782 4.514a1 1 0 0 1-1.414-1.012l1.62-15.397a1 1 0 0 1 .601-.815l4.914-2.105a1 1 0 0 1 1.364.676l3.247 12.988a1 1 0 0 1-.55 1.15z" fill="#B8C5CB"/><path d="m44.26 55.612 22.863 2.8-3.266 21.929-22.863-2.8 3.267-21.93z" fill="#000"/><path d="m81.502 45.856-1.986-.349a1 1 0 0 0-1.142.74l-2.245 8.859a1 1 0 0 0 .267.957l2.021 1.995a1 1 0 0 0 1.681-.506l2.21-10.506a1 1 0 0 0-.806-1.19zm-6.332 9.219-31.082-6.217a1 1 0 0 0-1.196 1.006l.135 5.442a1 1 0 0 0 .83.96l25.958 4.46a.997.997 0 0 0 .217.013l7.705-.367a1 1 0 0 0 .726-1.632l-2.714-3.318a1 1 0 0 0-.578-.347z" fill="#532" stroke="#000" stroke-linejoin="round"/><path d="m63.457 69.464 2.492-13.82a1 1 0 0 1 1.143-.81l6.081.978a1 1 0 0 1 .834 1.107L70.91 82.614a1 1 0 0 1-1.112.873l-8.537-1.029a1 1 0 0 1-.849-1.243l3.046-11.75zm-30.795-5.599 2.492-13.82a1 1 0 0 1 1.143-.81l6.081.977a1 1 0 0 1 .834 1.107l-3.098 25.696a1 1 0 0 1-1.112.873l-8.537-1.029a1 1 0 0 1-.849-1.244l3.046-11.75z" fill="#DA4" stroke="#000" stroke-linejoin="round"/><path d="m75.122 81.171 2.653-22.547a1 1 0 0 0-.525-1l-1.841-.977a1 1 0 0 0-1.462.764L71 81.87a1 1 0 0 0 1.393 1.036l2.138-.936a1 1 0 0 0 .592-.799zm-30.795-5.599 2.653-22.547a1 1 0 0 0-.524-1l-1.842-.977a1 1 0 0 0-1.461.764l-2.95 24.459a1 1 0 0 0 1.394 1.036l2.138-.936a1 1 0 0 0 .592-.799z" fill="#A62" stroke="#000" stroke-linejoin="round"/><path d="M77.943 45.4 36.95 38.964a1 1 0 0 0-1.136.793L34.73 45.2a1 1 0 0 0 .085.64l.105.21a.932.932 0 0 1-.419 1.245.914.914 0 0 0 .264 1.721l40.38 6.442a1 1 0 0 0 1.142-.81l1.112-6.145a.306.306 0 0 0-.226-.35c-.35-.089-.286-.603.074-.603h1.099a.442.442 0 0 0 .441-.442v-.718a1 1 0 0 0-.845-.988z" fill="#DA4" stroke="#000" stroke-linecap="round" stroke-linejoin="round"/><path d="m75.522 47.68-19.13-2.8m-19.597 1.867 9.332 1.4" stroke="#000" stroke-linecap="round" stroke-linejoin="round"/><path d="M6.501 67.491a.5.5 0 0 0 .038.56l8.4 10.732a.5.5 0 0 0 .156.132l6.065 3.266a.5.5 0 0 0 .359.045l7.465-1.867a.5.5 0 0 0 .367-.376l.933-4.2a.501.501 0 0 0 .004-.197l-2.8-15.398a.5.5 0 0 0-.268-.358l-5.599-2.8a.5.5 0 0 0-.3-.046l-6.065.933a.5.5 0 0 0-.218.09L9.905 61.74a.5.5 0 0 0-.138.152l-3.266 5.6z" fill="#A91C57" stroke="#000" stroke-linejoin="round"/><path d="m15.546 69.587 5.672 11.78a.5.5 0 0 0 .58.267l6.155-1.641a.5.5 0 0 0 .364-.57L25.713 64.67a.5.5 0 0 0-.716-.36l-9.224 4.612a.5.5 0 0 0-.227.665z" fill="#E02D72"/><path d="m26.952 62.526 2.36 12.587a.499.499 0 0 1-.001.19l-.394 1.966c-.108.543-.886.534-.982-.01l-2.32-13.144a.5.5 0 0 1 .008-.208l.352-1.41c.13-.52.878-.498.977.03z" fill="#AE2A5D"/><path d="m15.249 68.477-.782-6.255a.5.5 0 0 0-.605-.425l-3.46.769a.5.5 0 0 0-.314.22l-2.75 4.32a.5.5 0 0 0 .34.761l6.992 1.165a.5.5 0 0 0 .579-.555z" fill="#D71243"/><path d="m15.244 68.442-.799-6.391a.5.5 0 0 1 .3-.522l5.859-2.51a.5.5 0 0 1 .567.123l3.982 4.38a.5.5 0 0 1-.146.784l-9.043 4.52a.5.5 0 0 1-.72-.384z" fill="#FC8AA7"/><path d="m12.546 62.089 1.807-.402a.502.502 0 0 0 .089-.028l6.186-2.651a.5.5 0 0 0 .303-.46v-.013a.5.5 0 0 0-.582-.493l-4.9.816a.499.499 0 0 0-.213.09l-3.092 2.248c-.439.32-.127 1.01.402.893z" fill="#BF1131"/><path d="m26.133 60.112-4.517-1.882a.495.495 0 0 0-.556.79l3.909 4.299a.5.5 0 0 0 .854-.215l.603-2.41a.5.5 0 0 0-.293-.582z" fill="#AF1043"/><path d="m15.799 68.676 8.15-4.075a1 1 0 0 1 1.429.708l1.619 8.5" stroke="url(#c)" stroke-width="1.2" stroke-linecap="round" stroke-linejoin="round"/><path d="M61.901 42.572a.5.5 0 0 0 .506-.214l2.651-3.977h3.465a.5.5 0 0 0 .485-.379l2.333-9.331a.5.5 0 0 0-.08-.416l-3.733-5.132a.5.5 0 0 0-.35-.203l-12.597-1.4a.5.5 0 0 0-.425.16l-4.666 5.133a.5.5 0 0 0-.125.407l1.866 13.065a.5.5 0 0 0 .405.421l10.265 1.866z" fill="#921D64" stroke="#000" stroke-linejoin="round"/><path d="m70.018 29.124-9.772.85a1 1 0 0 1-.309-.021l-9.353-2.126a1 1 0 0 1-.518-1.648l3.918-4.31m16.034 7.255L53.984 21.87m16.034 7.255a1 1 0 0 0 .722-1.584L67.658 23.3a1 1 0 0 0-.699-.405l-12.125-1.348a1 1 0 0 0-.85.322m16.034 7.254L53.984 21.87" fill="#F896CB" stroke="#000" stroke-linejoin="round"/><path d="M60.124 23.374v5.482a.5.5 0 0 1-.61.488l-8.819-2.005a.5.5 0 0 1-.26-.823l3.907-4.297a.5.5 0 0 1 .452-.157l4.913.819a.5.5 0 0 1 .417.493z" fill="#C53382"/><path d="m61.657 42.006-3.391-.753a.5.5 0 0 1-.383-.583l2.167-11.266a.5.5 0 0 1 .47-.405l9.667-.42a.5.5 0 0 1 .507.62l-2.076 8.303a.5.5 0 0 1-.485.38h-3.075a.5.5 0 0 0-.416.222l-2.461 3.691a.5.5 0 0 1-.524.211z" fill="#D5429C"/><path d="m52.092 40.27 5.224.804a.5.5 0 0 0 .567-.4l2.146-11.162a.5.5 0 0 0-.401-.586l-9.086-1.652a.5.5 0 0 0-.584.562l1.715 12.011a.5.5 0 0 0 .42.424z" fill="#921D64"/><path d="M69.923 28.517h-9.92m0 0-2.211 12.164m2.21-12.163v-5.101" stroke="url(#d)" stroke-width="1.2" stroke-linecap="round" stroke-linejoin="round"/><path d="M55.252 81.302c.042.055.095.1.156.132l4.853 2.614a.5.5 0 0 0 .358.044l5.972-1.493a.5.5 0 0 0 .367-.376l.747-3.36a.5.5 0 0 0 .004-.198l-2.24-12.318a.5.5 0 0 0-.413-.404l-9.332-1.493a.5.5 0 0 0-.45.16l-6.72 7.465a.5.5 0 0 0-.021.642l6.718 8.585z" fill="#921D64" stroke="#000" stroke-linejoin="round"/><path d="m55.86 73.973 4.459 9.261a.5.5 0 0 0 .579.267l4.756-1.269a.5.5 0 0 0 .363-.57l-2.043-11.58a.5.5 0 0 0-.716-.36l-7.172 3.587a.5.5 0 0 0-.227.664z" fill="#D55AAA"/><path d="m65.025 68.685 1.8 9.601a.499.499 0 0 1 0 .19l-.207 1.033c-.108.542-.887.534-.983-.01l-1.76-9.971a.5.5 0 0 1 .008-.208l.166-.664c.13-.52.878-.498.976.03z" fill="#AE2A5D"/><path d="M55.645 72.939v-6.692a.5.5 0 0 0-.871-.335l-5.238 5.82a.5.5 0 0 0 .29.827l5.237.873a.5.5 0 0 0 .582-.493z" fill="#BD3789"/><path d="M55.645 72.72v-6.594a.5.5 0 0 1 .724-.448l6.594 3.297a.5.5 0 0 1 0 .895l-6.594 3.297a.5.5 0 0 1-.724-.447z" fill="#F37EC6"/><path d="m64.051 66.361-4.992-.68c-.55-.075-.794.666-.308.933l4.538 2.496a.5.5 0 0 0 .726-.317l.454-1.815a.5.5 0 0 0-.418-.617z" fill="#C73F93"/><path d="m56.019 73.156 6.283-3.142a1 1 0 0 1 1.43.707l1.245 6.54" stroke="url(#e)" stroke-width="1.2" stroke-linecap="round" stroke-linejoin="round"/><path d="M61.81 78.009a.5.5 0 0 0-.32.466v6.065a.5.5 0 0 0 .277.447l4.666 2.334a.5.5 0 0 0 .224.052h9.332a.5.5 0 0 0 .373-.168l3.733-4.199a.5.5 0 0 0 .082-.539l-2.333-5.132a.5.5 0 0 0-.297-.268l-7-2.333a.5.5 0 0 0-.339.009l-8.398 3.266z" fill="#F57EC3" stroke="#000" stroke-linejoin="round"/><path d="m62.734 84.912 3.384 1.692a.5.5 0 0 0 .704-.31l.663-2.318a.5.5 0 0 0-.224-.566l-1.723-1.034a.5.5 0 0 0-.548.022l-2.323 1.66a.5.5 0 0 0 .067.854z" fill="#EA2978"/><path d="M75.23 86.873h-7.91a.5.5 0 0 1-.481-.637l.648-2.266a.5.5 0 0 1 .48-.363h6.292c.2 0 .381.12.46.303l.971 2.266a.5.5 0 0 1-.46.697z" fill="#FAC7EA"/><path d="m76.512 86.285 2.896-3.259a.5.5 0 0 0-.02-.685l-1.206-1.206a.5.5 0 0 0-.678-.026l-2.636 2.26a.5.5 0 0 0-.134.576l.945 2.205a.5.5 0 0 0 .833.135z" fill="#F178C2"/><path d="m77.504 77.795 1.761 3.875c.092.203-.166.382-.323.224l-1.019-1.018a.499.499 0 0 1-.106-.157l-1.104-2.575a.432.432 0 0 1 .79-.35z" fill="#DF399A"/><path d="M61.991 83.569v-4.684a.5.5 0 0 1 .402-.49l1.451-.29a.5.5 0 0 1 .586.38l.755 3.4a.5.5 0 0 1-.197.515l-2.206 1.576a.5.5 0 0 1-.791-.407z" fill="#D52C6B"/><path d="m65.257 82.207 2.333 1.4m0 0h6.999m-6.999 0-.933 3.266m7.932-3.266 3.266-2.8m-3.266 2.8 1.4 3.266" stroke="url(#f)" stroke-width="1.2" stroke-linecap="round" stroke-linejoin="round"/><path d="M36.614 77.763a.5.5 0 0 0-.319.466v7.343a.5.5 0 0 0 .276.447l5.649 2.824a.5.5 0 0 0 .223.053H53.74a.5.5 0 0 0 .373-.168l4.519-5.083a.5.5 0 0 0 .081-.54l-2.824-6.212a.5.5 0 0 0-.297-.268l-8.472-2.824a.5.5 0 0 0-.34.008l-10.166 3.954z" fill="#F57EC3" stroke="#000" stroke-linejoin="round"/><path d="m37.538 85.943 4.366 2.183a.5.5 0 0 0 .705-.31l.859-3.005a.5.5 0 0 0-.224-.566l-2.214-1.329a.5.5 0 0 0-.548.022l-3.011 2.151a.5.5 0 0 0 .067.854z" fill="#EA2978"/><path d="M52.981 88.396h-9.875a.5.5 0 0 1-.48-.638l.843-2.953a.5.5 0 0 1 .481-.363h7.766c.2 0 .38.12.46.303L53.44 87.7a.5.5 0 0 1-.46.697z" fill="#FAC7EA"/><path d="m54.263 87.807 3.682-4.142a.5.5 0 0 0-.02-.686l-1.598-1.598a.5.5 0 0 0-.68-.026l-3.323 2.848a.5.5 0 0 0-.134.577l1.24 2.892a.5.5 0 0 0 .833.135z" fill="#F178C2"/><path d="m55.567 77.392 2.235 4.916c.092.203-.166.382-.324.224l-1.41-1.41a.5.5 0 0 1-.107-.157l-1.358-3.169a.5.5 0 0 1 .46-.697h.05a.5.5 0 0 1 .454.293z" fill="#DF399A"/><path d="M36.795 84.6v-5.96a.5.5 0 0 1 .402-.49l1.942-.389a.5.5 0 0 1 .586.382l.952 4.283a.5.5 0 0 1-.197.515l-2.894 2.067a.5.5 0 0 1-.79-.407z" fill="#D52C6B"/><path d="m40.749 82.748 2.824 1.694m0 0h8.472m-8.472 0-1.13 3.954m9.602-3.954L56 81.053m-3.954 3.39 1.695 3.953" stroke="url(#g)" stroke-width="1.2" stroke-linecap="round" stroke-linejoin="round"/><path d="m77.23 89.365 5.167-5.168a1 1 0 0 1 1.277-.115l4.037 2.796a1 1 0 0 1-.095 1.702l-4.407 2.373a1 1 0 0 1-.474.12h-4.799c-.89 0-1.337-1.077-.707-1.707zm-8.772 1.678 1.979-1.13a1 1 0 0 1 .867-.06l2.231.892a1 1 0 0 1 .103 1.809l-3.323 1.789a1 1 0 0 1-1.343-.384l-.886-1.552a1 1 0 0 1 .372-1.364z" fill="#838D95"/><defs><linearGradient id="a" x1="30.729" y1="42.547" x2="30.729" y2="52.346" gradientUnits="userSpaceOnUse"><stop stop-color="#fff"/><stop offset="1" stop-color="#fff" stop-opacity="0"/></linearGradient><linearGradient id="b" x1="57.058" y1="14.333" x2="55.132" y2="23.94" gradientUnits="userSpaceOnUse"><stop stop-color="#fff"/><stop offset="1" stop-color="#fff" stop-opacity="0"/></linearGradient><linearGradient id="c" x1="21.398" y1="64.01" x2="21.398" y2="73.809" gradientUnits="userSpaceOnUse"><stop stop-color="#fff"/><stop offset="1" stop-color="#fff" stop-opacity="0"/></linearGradient><linearGradient id="d" x1="56.342" y1="27.784" x2="54.416" y2="37.391" gradientUnits="userSpaceOnUse"><stop stop-color="#fff"/><stop offset="1" stop-color="#fff" stop-opacity="0"/></linearGradient><linearGradient id="e" x1="60.498" y1="69.423" x2="60.498" y2="77.262" gradientUnits="userSpaceOnUse"><stop stop-color="#fff"/><stop offset="1" stop-color="#fff" stop-opacity="0"/></linearGradient><linearGradient id="f" x1="71.556" y1="80.808" x2="71.556" y2="86.873" gradientUnits="userSpaceOnUse"><stop stop-color="#fff"/><stop offset="1" stop-color="#fff" stop-opacity="0"/></linearGradient><linearGradient id="g" x1="48.374" y1="81.053" x2="48.374" y2="88.396" gradientUnits="userSpaceOnUse"><stop stop-color="#fff"/><stop offset="1" stop-color="#fff" stop-opacity="0"/></linearGradient></defs></svg>