<svg width="335" height="185" viewBox="0 0 335 185" fill="none" xmlns="http://www.w3.org/2000/svg"><path d="M29.413 124.759c4.625 9.25 13.49 15.202 17.343 17.022-2.676-6.744-9.892-22.61-17.343-32.117-9.314-11.883-24.088-13.489-24.409-8.029-.321 5.46 18.628 11.562 24.409 23.124zm41.431-9.634c-12.59 4.111-20.662 12.204-23.124 15.737 0-9.635 10.277-18.949 18.949-21.197 8.671-2.248 19.912.321 4.175 5.46z" fill="#14653C" stroke="#000"/><path d="M48.362 136.322c0-23.125 5.353-36.614 8.03-40.468-.429-4.71-2.634-10.92-8.03 1.927-6.745 16.059 0 67.446 0 38.541z" fill="#14653C" stroke="#000"/><path d="M18.493 51.428c13.104-8.48 44 .75 57.81 6.423 47.372 9.635 41.753 41.431-17.342 40.789-59.095-.643-56.847-36.614-40.468-47.212z" fill="#F0775C" stroke="#000"/><path d="M27.644 58.828c9.473-6.13 31.807.542 41.79 4.643 34.244 6.965 30.182 29.95-12.537 29.486-42.718-.465-41.093-26.467-29.253-34.129z" fill="#E35B4B"/><path d="M65.344 79.608c4.368-2.056-3.105-6.424-7.387-8.35-5.46-1.928-10.92-3.855-11.883.963-.964 4.817 13.81 9.956 19.27 7.387z" fill="#F3AD11" stroke="#000"/><path d="M334.532 176.282c-8.44 19.584-25.98 32.866-33.695 37.059 4.724-14.199 17.727-47.708 31.949-68.148 17.779-25.549 47.973-30.562 49.265-19.354 1.292 11.207-36.968 25.963-47.519 50.443zm-86.433-15.234c26.413 6.933 43.973 22.516 49.452 29.441-1.104-19.663-23.349-37.482-41.475-41.067-18.125-3.585-40.993 2.96-7.977 11.626z" fill="#14653C" stroke="#000"/><path d="M296.781 201.915c-2.673-47.606-15.253-74.757-21.208-82.382.337-9.747 4.159-22.785 16.752 3.039 15.742 32.28 7.797 138.85 4.456 79.343z" fill="#14653C" stroke="#000"/><path d="M265.505 14.305c52-23.2 61-11.31 77.5 0 32.338 32.69 16.5 59.5-16.5 72s-22 49-52 58.5c-24 7.6-41.667-7.166-47.5-15.5-20.833 4-62.6 1-63-43-.5-55 36.5-43 101.5-72z" fill="#F08A95" stroke="#000"/><path d="M295.128 18.164c18.4-14.4 35.333 2 41.5 12 6 17.5 7 33.5-28 50s-28 33.5-72.5 41.5-63.5-58-38.5-72.5 36.5 19.5 59 14.5 15.5-27.5 38.5-45.5z" fill="#E36974"/><path d="M238.843 54.345c-16 14.5-2.5 22.5 16 17 8.579-2.55 15.781-8.024 21-13.343-8-13.344-21-18.157-37-3.657z" fill="#EBF479"/><path d="M283.843 47.845c-1.471 2.522-4.214 6.299-8 10.157m0 0c-5.219 5.32-12.421 10.793-21 13.343-18.5 5.5-32-2.5-16-17s29-9.687 37 3.657z" stroke="#000"/><path d="M71.002 241.451c-45.132-4.708-46.605-16.5-53.486-30.88-9.293-35.446 12.32-47.638 40.076-43.116 27.755 4.522 34.707-25.051 59.197-19.654 19.591 4.318 25.9 21.548 26.606 29.624 15.971 5.54 43.601 24.253 26.345 54.779-21.57 38.157-42.324 15.132-98.738 9.247z" fill="#F6C5C9" stroke="#000"/><path d="M52.095 226.985c-18.436 2.606-23.588-15.459-23.86-24.818 2.833-14.468 8.518-25.909 39.247-23.35 30.73 2.558 32.672-11.963 66.571.247 33.899 12.21 20.714 65.33-2.317 65.376-23.031.045-17.421-28.002-34.941-33.516-17.52-5.515-21.655 12.803-44.7 16.061z" fill="#EC99A3"/><path d="M184.685 169.622c-8.441 19.584-25.98 32.867-33.695 37.06 4.723-14.2 17.726-47.709 31.949-68.148 17.778-25.55 47.973-30.563 49.264-19.355 1.292 11.207-36.968 25.963-47.518 50.443z" fill="#14653C" stroke="#000"/><path d="M116.339 138.193c-6.8 16.8 2.833 46 8.5 58.5 8.333 2.166 25.7 1.9 28.5-16.5 3.5-23-8-22.5-9.5-42s-19-21-27.5 0z" fill="#407300" stroke="#000"/><path d="m84.52 120.352-14.148 18.539c-.628.823.255 1.941 1.201 1.521l6.667-2.963a.485.485 0 0 1 .642.634.484.484 0 0 0 .625.64l5.986-2.394c.223-.089.419.176.269.363-.159.199.068.472.292.353l3.17-1.691a.707.707 0 0 1 .92.232.698.698 0 0 0 .753.295c2.715-.682 16.144-4.077 16.577-4.618.952-1.191 5.317-6.033 8.218-9.922.623-.835-.233-1.651-1.089-1.057l-10.287 7.138c-.719.499-1.687-.101-1.559-.967l.99-6.736c.112-.762-.639-1.349-1.335-1.017-4.455 2.129-10.689 6.236-14.503 8.903-.668.468-1.593-.008-1.593-.824v-5.822c0-.957-1.215-1.368-1.795-.607z" fill="#16643C"/><path d="m68 142 16.52-21.648c.581-.761 1.796-.35 1.796.607v5.822c0 .816.925 1.292 1.593.824 3.814-2.667 10.048-6.774 14.503-8.903.696-.332 1.447.255 1.335 1.017l-.99 6.736c-.128.866.84 1.466 1.559.967l10.287-7.138c.856-.594 1.712.222 1.089 1.057-2.901 3.889-7.266 8.731-8.218 9.922" stroke="#000" stroke-linejoin="round"/></svg>