<svg width="102" height="133" viewBox="0 0 102 133" fill="none" xmlns="http://www.w3.org/2000/svg"><path d="M35.956 22.251a5.97 5.97 0 0 0-.13-.166C34.758 20.768 33.159 20 31.223 20c-2.106 0-3.732.962-4.741 2.388A6.773 6.773 0 0 0 25.5 24.5h-2.206c-.168 0-.393.01-.654.055-2.232.388-5.375 2.363-6.984 6.669-2.186 1.842-5.099 4.783-7.547 8.317C5.525 43.27 3.222 48.001 3.222 53c0 6.858 2.396 11.587 4.816 14.317-1.6 2.175-3.454 5.415-3.801 8.885-.411 4.109-.375 12.05-.308 15.67a3.99 3.99 0 0 0 .557 1.963l2.578-1.528-2.578 1.528 7.192 12.135a4.003 4.003 0 0 0 1.525 1.472l40.298 21.98a4.001 4.001 0 0 0 4.081-.148l-1.624-2.522 1.624 2.522 26.93-17.345c.265-.171.51-.373.727-.601l-2.17-2.071 2.17 2.071 9.47-9.92h0a4 4 0 0 0 1.095-2.462l1.392-18.493a4 4 0 0 0-.263-1.758s0 0 0 0l-4.211-10.76v-2.172c3.083-3.306 7.184-10.473 5.977-20.135-.816-6.522-3.855-12.486-7.22-17.323-3.14-4.514-6.674-8.205-9.291-10.654-.161-1.618-.753-3.578-2.142-5.304-1.71-2.125-4.396-3.607-8.137-3.841-1.55-.097-2.787-.159-3.768-.193a7.346 7.346 0 0 0-.962-2.449C66.076 4.118 64.196 3 61.722 3c-2.485 0-4.355 1.118-5.516 2.751-.627.882-1.004 1.847-1.224 2.75h-3.654a3.92 3.92 0 0 0-.878.097l.67 2.925-.67-2.925c-1.493.343-3.561 1.161-5.323 2.648-1.63 1.377-3.09 3.422-3.378 6.171-1.595 1.156-3.821 2.905-5.793 4.834zM68.33 10.432a.23.23 0 0 1 0 0z" fill="#A75" stroke="#fff" stroke-width="6" stroke-linecap="round" stroke-linejoin="round"/><path d="m14.258 104.44-7.19-12.135a.988.988 0 0 1-.14-.487c-.067-3.649-.097-11.414.294-15.318.333-3.327 2.533-6.654 4.127-8.543.423-.5.324-1.293-.168-1.727-2.093-1.85-4.96-6.119-4.96-13.23 0-8.234 7.687-16.5 11.759-19.806.159-.129.273-.3.337-.495 1.214-3.692 3.668-4.985 4.836-5.188a.811.811 0 0 1 .14-.011h3.812c.596 0 1.056-.521 1.101-1.115.115-1.524.81-3.385 3.016-3.385 2.18 0 2.885 1.616 3.011 2.962.052.55.477 1.038 1.03 1.038a.95.95 0 0 0 .74-.363c2.272-2.857 6.138-5.852 8.233-7.306.299-.207.46-.558.461-.922.004-4.325 4.162-6.368 6.423-6.886a.923.923 0 0 1 .208-.023h5.299c.588 0 1.046-.506 1.087-1.093C57.844 8.503 58.748 6 61.722 6c2.947 0 3.638 2.457 3.609 4.354-.01.608.104.942.712.93.932-.02 2.66.027 5.679.216 5.98.374 7.479 4.561 7.513 7.012.005.309.118.606.346.814C84.685 23.992 94.257 34.28 95.72 46c1.15 9.186-3.105 15.747-5.664 18.195-.21.2-.335.472-.335.762v3.355a1 1 0 0 0 .069.364l4.348 11.112a1 1 0 0 1 .066.44L92.813 98.72a1 1 0 0 1-.274.615l-9.47 9.921a1.012 1.012 0 0 1-.182.15l-26.93 17.345a1 1 0 0 1-1.02.037l-40.297-21.98a.997.997 0 0 1-.382-.368z" fill="#A75" stroke="#000" stroke-width="3" stroke-linecap="round" stroke-linejoin="round"/><ellipse cx="50.618" cy="88.284" rx="43.393" ry="28.188" transform="rotate(2.582 50.618 88.284)" fill="#642" stroke="#000"/><path d="M93.468 82.689c-.34 7.55-5.364 14.24-13.348 18.93-7.98 4.686-18.86 7.333-30.749 6.797-11.888-.536-22.486-4.151-30.012-9.536-7.53-5.39-11.93-12.504-11.59-20.055.34-7.55 5.364-14.241 13.348-18.93 7.98-4.687 18.86-7.334 30.749-6.798 11.888.536 22.486 4.152 30.012 9.537 7.53 5.389 11.93 12.504 11.59 20.055z" fill="#ADDA54" stroke="#000"/><ellipse cx="83.722" cy="79" rx="6" ry="2.5" fill="#7EA82B"/><ellipse cx="15.722" cy="78.5" rx="6" ry="2" fill="#7EA82B"/><ellipse cx="32.722" cy="97" rx="14" ry="2.5" fill="#7EA82B"/><ellipse cx="61.722" cy="88.5" rx="10" ry="3" fill="#7EA82B"/><ellipse cx="48.722" cy="78.5" rx="32" ry="5" fill="#7EA82B"/><g stroke="#000" stroke-linecap="round"><path d="M20.883 31.542C12.482 36.326 6.639 46.438 6.639 54.978c0 6.976 3.898 11.32 9.904 13.683h28.71c6.007-2.362 9.905-6.707 9.905-13.683 0-8.54-5.843-18.652-14.244-23.436H20.883z" fill="#DCA450"/><path d="M8.85 45.118c-1.42 3.21-2.211 6.55-2.211 9.68 0 2.525.516 4.704 1.461 6.567h45.597c.945-1.863 1.46-4.042 1.46-6.568 0-3.128-.79-6.469-2.21-9.679H8.85z" fill="#EBD783"/><path d="M30.898 23.975c-1.598 0-2.893 1.225-2.893 2.736 0 1.022.593 1.913 1.471 2.383h2.844c.879-.47 1.472-1.36 1.472-2.383 0-1.511-1.296-2.736-2.894-2.736z" fill="#A77148"/><path d="M18.435 33.1a5.342 5.342 0 0 1 5.341-5.341h14.467a5.342 5.342 0 0 1 5.341 5.341h-25.15z" fill="#A77148"/></g><rect x="18.969" y="65.068" width="14.642" height="3.853" rx="1.927" transform="rotate(90 18.97 65.068)" fill="#76500D" stroke="#000" stroke-linecap="round"/><rect x="51.721" y="65.068" width="14.642" height="3.853" rx="1.927" transform="rotate(90 51.72 65.068)" fill="#76500D" stroke="#000" stroke-linecap="round"/><rect x="88.711" y="65.068" width="14.642" height="3.853" rx="1.927" transform="rotate(90 88.71 65.068)" fill="#76500D" stroke="#000" stroke-linecap="round"/><path d="M47.677 17.043c-11.705 6.665-19.846 20.753-19.846 32.652 0 9.72 5.431 15.773 13.8 19.065h40c8.37-3.292 13.8-9.346 13.8-19.065 0-11.899-8.14-25.987-19.846-32.652H47.677z" fill="#DCA450" stroke="#000" stroke-linecap="round"/><path d="M30.911 35.959c-1.977 4.472-3.08 9.126-3.08 13.485 0 3.519.719 6.555 2.036 9.151h63.528c1.317-2.596 2.036-5.632 2.036-9.15 0-4.36-1.103-9.014-3.08-13.486H30.91z" fill="#EBD783" stroke="#000" stroke-linecap="round"/><path d="M61.631 30.997c-11.132 0-20.156 8.978-20.156 20.054 0 7.492 4.13 14.025 10.249 17.467h19.814c6.119-3.442 10.249-9.975 10.249-17.467 0-11.076-9.024-20.054-20.156-20.054z" fill="#A77148"/><path d="M61.631 30.997c-11.132 0-20.156 8.978-20.156 20.054 0 7.492 4.13 14.025 10.249 17.467h19.814c6.119-3.442 10.249-9.975 10.249-17.467 0-11.076-9.024-20.054-20.156-20.054z" fill="#A77148"/><path d="M61.631 30.997c-11.132 0-20.156 8.978-20.156 20.054 0 7.492 4.13 14.025 10.249 17.467h19.814c6.119-3.442 10.249-9.975 10.249-17.467 0-11.076-9.024-20.054-20.156-20.054z" stroke="#000" stroke-linecap="round"/><path d="M61.63 34.408c-9.247 0-16.744 7.346-16.744 16.407 0 6.13 3.431 11.475 8.514 14.292h16.462c5.083-2.817 8.514-8.162 8.514-14.292 0-9.061-7.497-16.407-16.745-16.407z" fill="#C09344" stroke="#000" stroke-linecap="round"/><path d="M61.631 6.5c-2.226 0-4.031 1.707-4.031 3.812 0 1.424.826 2.666 2.05 3.32h3.962c1.224-.654 2.05-1.896 2.05-3.32 0-2.105-1.805-3.812-4.031-3.812z" fill="#A77148" stroke="#000" stroke-linecap="round"/><path d="M44.266 19.214a7.442 7.442 0 0 1 7.442-7.442h20.156a7.442 7.442 0 0 1 7.442 7.442h-35.04z" fill="#A77148" stroke="#000" stroke-linecap="round"/><path d="M55.694 73.992A4 4 0 0 1 59.4 71.5h12.876c2.84 0 4.776 2.877 3.705 5.508l-4.73 11.624a4 4 0 0 1-3.706 2.492H54.669c-2.84 0-4.775-2.877-3.704-5.508l4.73-11.624z" fill="#76500D" stroke="#000" stroke-linecap="round"/><rect x="16.272" y="68.536" width="67.045" height="4.624" rx="2.312" fill="#C09344" stroke="#000" stroke-linecap="round"/><rect x="48.722" y="74.5" width="31" height="5" rx="2.5" fill="#C09344" stroke="#000" stroke-linecap="round"/><rect x="43.722" y="88.5" width="31" height="5" rx="2.5" fill="#C09344" stroke="#000" stroke-linecap="round"/><rect x="45.722" y="81.5" width="32" height="5" rx="2.5" fill="#C09344" stroke="#000" stroke-linecap="round"/><rect x="44.785" y="23.075" width="29.669" height="11.174" rx="4" transform="rotate(-3.735 44.785 23.075)" fill="#C09344" stroke="#000" stroke-linecap="round"/><path d="M68.319 28.518a.367.367 0 0 1-.231.386c-.166.073-.396.121-.69.144.002.087.009.228.022.422.013.198.035.337.069.418.02.058.05.095.085.11.04.015.096.023.169.025a.79.79 0 0 1 .08.01c.03.002.066.005.104.01a.29.29 0 0 1 .196.117c.05.063.077.147.084.25.008.119-.047.215-.164.288-.117.074-.281.118-.493.132a1.034 1.034 0 0 1-.567-.13.876.876 0 0 1-.394-.434c-.083-.2-.143-.585-.18-1.153a1.88 1.88 0 0 1-.594-.056c-.15-.049-.229-.148-.239-.297-.012-.188.05-.317.184-.389.134-.074.331-.122.591-.143-.007-.278.02-.511.085-.7a.413.413 0 0 1 .393-.308c.2-.013.337.066.407.235.074.17.117.405.13.707.315-.024.549-.015.701.027.156.043.24.152.252.329zm-3.636 2.499a1.487 1.487 0 0 1-.691-.106 1.137 1.137 0 0 1-.49-.392 1.205 1.205 0 0 1-.202-.608 1.251 1.251 0 0 1 .12-.635 1.262 1.262 0 0 1 1.077-.702c.222-.015.421.018.597.097s.314.19.413.333c.1.14.155.29.166.45.017.26-.07.456-.26.59a1.32 1.32 0 0 1-.685.223c-.18.012-.334 0-.462-.038.115.163.292.237.531.222.098-.007.2-.026.31-.057a.486.486 0 0 1 .119-.024.273.273 0 0 1 .186.046.188.188 0 0 1 .083.151c.007.107-.053.205-.18.294-.126.085-.337.137-.632.156zm-.443-1.423c.035.046.079.08.132.1a.515.515 0 0 0 .184.02.366.366 0 0 0 .194-.065c.057-.038.084-.085.08-.14a.207.207 0 0 0-.088-.157c-.052-.042-.125-.06-.218-.054a.293.293 0 0 0-.218.103.268.268 0 0 0-.066.193zm-1.554.258c.056.062.148.18.274.353.15.206.229.384.238.533.008.121-.026.215-.101.283a.46.46 0 0 1-.275.107.495.495 0 0 1-.315-.105 2.19 2.19 0 0 1-.34-.317 3.936 3.936 0 0 1-.256-.318c-.044.02-.093.041-.147.062-.007.262-.044.454-.109.576a.365.365 0 0 1-.321.199.427.427 0 0 1-.376-.164c-.099-.118-.177-.308-.236-.57a7.623 7.623 0 0 1-.126-1.04 10.768 10.768 0 0 1-.028-.997c.011-.255.057-.458.138-.61a.444.444 0 0 1 .391-.25c.15-.01.264.035.343.135.083.099.141.24.174.422.036.179.064.42.084.726l.021.327.015-.011c.192-.148.362-.266.51-.352a.979.979 0 0 1 .414-.142.408.408 0 0 1 .342.124c.09.088.138.191.146.31a.538.538 0 0 1-.103.35c-.076.11-.195.233-.357.369zm-3.923 1.552c-.222.014-.38-.106-.473-.361-.09-.256-.15-.612-.18-1.07a4.315 4.315 0 0 1-.007-.522.775.775 0 0 1 .117-.368c.07-.105.182-.163.338-.173a.476.476 0 0 1 .26.05c.079.04.132.102.158.183a.733.733 0 0 1 .286-.175c.12-.043.248-.068.387-.077a.771.771 0 0 1 .343.06.795.795 0 0 1 .306.21.464.464 0 0 1 .14.3.427.427 0 0 1-.1.304.397.397 0 0 1-.299.145.455.455 0 0 1-.12-.008 1.453 1.453 0 0 1-.096-.025.48.48 0 0 0-.17-.03.487.487 0 0 0-.348.184.56.56 0 0 0-.124.415c.012.184.015.337.009.46a.69.69 0 0 1-.103.335c-.064.099-.172.152-.324.163zm-2.17.141c-.27.018-.497-.029-.678-.139a.622.622 0 0 1-.295-.518.55.55 0 0 1 .234-.496c.17-.13.385-.203.649-.22.097-.007.188-.004.272.008a.49.49 0 0 1 .18.04.257.257 0 0 0-.123-.205c-.076-.055-.19-.077-.338-.067a.688.688 0 0 0-.293.081.62.62 0 0 1-.287.082.379.379 0 0 1-.266-.066c-.066-.055-.103-.142-.11-.26a.46.46 0 0 1 .123-.352.942.942 0 0 1 .36-.233c.147-.058.294-.092.443-.102.295-.019.545.02.75.119.208.094.365.228.47.402.109.174.17.37.185.589.007.118.004.228-.01.33a.75.75 0 0 1-.058.238.412.412 0 0 1 .12.14.379.379 0 0 1-.035.435.34.34 0 0 1-.258.126.484.484 0 0 1-.206-.023.717.717 0 0 1-.173-.103.994.994 0 0 1-.28.133c-.098.03-.224.051-.376.061zm.07-.532a.28.28 0 0 0 .168-.058c.043-.034.063-.074.06-.119-.003-.045-.028-.082-.075-.11a.281.281 0 0 0-.175-.036.305.305 0 0 0-.173.059c-.04.034-.058.073-.055.118a.138.138 0 0 0 .07.11c.047.029.107.04.18.036zm-3.205.737a.486.486 0 0 1-.302-.07.5.5 0 0 1-.177-.239 1.481 1.481 0 0 1-.073-.313 18.773 18.773 0 0 1-.037-.484 2.586 2.586 0 0 0-.054-.43c-.02-.093-.06-.137-.118-.133a.148.148 0 0 0-.14.103.619.619 0 0 0-.025.258c.007.1.03.257.073.47.006.041.017.107.033.196.017.09.027.164.03.223.011.166-.02.287-.09.361-.07.074-.174.116-.317.125-.17.011-.323-.07-.46-.247a2.01 2.01 0 0 1-.325-.668 3.72 3.72 0 0 1-.147-.81 2.84 2.84 0 0 1 .077-.899c.076-.28.2-.509.373-.687a.985.985 0 0 1 .66-.294.699.699 0 0 1 .544.173c.14.127.24.286.297.477a.985.985 0 0 1 .223-.51.71.71 0 0 1 .517-.243.97.97 0 0 1 .682.2c.197.148.354.362.47.644.12.281.191.61.216.989.016.246-.002.503-.054.771a1.98 1.98 0 0 1-.249.67c-.113.18-.25.277-.41.287-.145.01-.258-.02-.34-.087-.08-.068-.126-.185-.137-.352-.005-.076 0-.22.014-.429.013-.224.016-.384.01-.481-.015-.226-.083-.334-.204-.327-.063.005-.1.058-.11.16-.007.1-.005.264.006.49.01.17.017.312.017.427 0 .111-.008.215-.026.31a.446.446 0 0 1-.151.255.476.476 0 0 1-.296.114zm11.14-5.55c-.222.015-.38-.105-.472-.36-.09-.256-.15-.612-.18-1.07a4.313 4.313 0 0 1-.008-.522.776.776 0 0 1 .117-.368c.07-.105.183-.163.339-.173a.476.476 0 0 1 .259.05.3.3 0 0 1 .158.184.733.733 0 0 1 .286-.176c.12-.042.249-.068.387-.077a.772.772 0 0 1 .344.06.796.796 0 0 1 .306.21.464.464 0 0 1 .14.3.427.427 0 0 1-.1.304.397.397 0 0 1-.3.145.454.454 0 0 1-.12-.008 1.44 1.44 0 0 1-.096-.025.48.48 0 0 0-.169-.03.487.487 0 0 0-.348.184.56.56 0 0 0-.125.416c.012.183.015.336.01.459a.69.69 0 0 1-.104.335c-.063.099-.171.153-.324.163zm-1.851.122a1.486 1.486 0 0 1-.692-.107 1.138 1.138 0 0 1-.49-.39 1.205 1.205 0 0 1-.202-.61 1.251 1.251 0 0 1 .12-.634 1.262 1.262 0 0 1 1.078-.702c.222-.015.42.017.597.096.175.08.313.19.413.334.1.14.155.29.165.449.017.26-.07.457-.259.591a1.32 1.32 0 0 1-.685.223 1.349 1.349 0 0 1-.462-.038c.115.163.292.237.531.221.097-.006.2-.025.31-.056a.491.491 0 0 1 .118-.024.274.274 0 0 1 .186.045.188.188 0 0 1 .083.152c.007.107-.053.205-.18.293-.126.085-.337.137-.631.157zm-.443-1.424c.034.047.078.08.132.102a.518.518 0 0 0 .184.019.366.366 0 0 0 .194-.065c.057-.039.083-.086.08-.141a.207.207 0 0 0-.089-.156c-.051-.042-.124-.06-.218-.054a.293.293 0 0 0-.218.103.268.268 0 0 0-.065.192zm-3.301 2.415c-.17.01-.299-.068-.386-.236a1.757 1.757 0 0 1-.179-.574 14.294 14.294 0 0 1-.077-.862 7.41 7.41 0 0 1-.016-.725c.01-.21.053-.393.126-.551a.407.407 0 0 1 .365-.254c.177-.012.31.05.398.183a.947.947 0 0 1 .288-.16 1.27 1.27 0 0 1 .375-.082c.222-.014.43.028.625.127.195.098.353.238.477.418.123.18.192.38.206.603.015.222-.027.431-.126.63a1.26 1.26 0 0 1-.418.476c-.18.123-.381.192-.603.206a1.34 1.34 0 0 1-.383-.027 1.027 1.027 0 0 1-.312-.13c.015.221.02.393.013.515a.557.557 0 0 1-.095.304c-.054.084-.146.13-.278.139zm.973-1.662a.32.32 0 0 0 .227-.114.33.33 0 0 0 .089-.246.313.313 0 0 0-.12-.228.313.313 0 0 0-.24-.088.33.33 0 0 0-.233.12.321.321 0 0 0-.084.24.338.338 0 0 0 .36.316zm-2.986 1.046a1.192 1.192 0 0 1-.678-.143 1.262 1.262 0 0 1-.476-.502 1.952 1.952 0 0 1-.203-.781c-.019-.291.013-.523.096-.696.083-.172.207-.264.373-.275.295-.02.453.122.472.424a2.347 2.347 0 0 1 .003.287c-.005.14-.004.25.001.334.01.153.049.267.116.343a.282.282 0 0 0 .459-.025c.057-.084.08-.204.07-.36a2.814 2.814 0 0 0-.035-.306 2.8 2.8 0 0 1-.036-.306c-.02-.305.117-.467.412-.486.167-.011.3.064.401.224.105.157.166.383.186.678.03.46-.054.835-.25 1.123-.198.285-.502.44-.91.467zm-2.73.183a2.325 2.325 0 0 1-.666-.05 1.424 1.424 0 0 1-.528-.237.529.529 0 0 1-.224-.387.448.448 0 0 1 .108-.347.456.456 0 0 1 .32-.146.62.62 0 0 1 .226.021c.067.017.14.044.22.08l.144.059a.412.412 0 0 0 .132.012c.114-.008.168-.056.163-.146-.003-.035-.029-.063-.08-.084a2.08 2.08 0 0 0-.25-.093 3.439 3.439 0 0 1-.515-.202c-.206-.105-.351-.224-.436-.358a1.114 1.114 0 0 1-.144-.513.95.95 0 0 1 .156-.58c.116-.188.282-.343.497-.465.215-.122.454-.192.718-.21.256-.016.493.009.71.074.22.063.395.16.525.29a.653.653 0 0 1 .217.44c.013.191-.035.339-.143.443a.567.567 0 0 1-.366.165 1.219 1.219 0 0 1-.261-.004 1.052 1.052 0 0 1-.17-.046.837.837 0 0 0-.117-.029.425.425 0 0 0-.131-.007.214.214 0 0 0-.127.055.14.14 0 0 0-.05.124c.003.038.028.07.075.094.046.021.1.04.16.058.06.016.103.03.128.038.33.097.576.217.739.36a.78.78 0 0 1 .267.567.798.798 0 0 1-.314.715c-.225.179-.553.282-.983.31z" fill="#0C0C0C"/><path d="M25.845 94.622c-.378-1.87-.103-6.181 4.014-8.474 4.118-2.293 8.441-1.703 10.088-1.121.858.623 2.553 2.716 2.47 6.106-.077 3.22-1.94 4.93-4.323 5.18-7.823 2.55-11.426-.065-12.25-1.691z" fill="#B6B6B6"/><path d="M39.947 85.027c-1.647-.582-5.97-1.172-10.088 1.121-4.117 2.293-4.392 6.605-4.014 8.474.823 1.626 4.426 4.24 12.25 1.691m1.852-11.286c.858.623 2.553 2.716 2.47 6.106-.077 3.22-1.94 4.93-4.323 5.18m1.853-11.286c-2.882 1.246-6.279 4.112-7.308 6.106-1.03 1.993-.31 4.112 3.088 4.984a6.72 6.72 0 0 0 2.367.196" stroke="#000" stroke-linecap="round" stroke-linejoin="round"/><path d="M39.947 85.027c.858.623 2.553 2.716 2.47 6.106-.077 3.22-1.94 4.93-4.323 5.18-7.823 2.55-11.426-.065-12.25-1.691 1.442-.083 4.738-.499 6.384-1.496-.083-.644.066-1.326.41-1.993 1.03-1.994 4.427-4.86 7.31-6.106z" fill="#7C7C7C"/><path d="M38.094 96.313c2.382-.25 4.246-1.96 4.324-5.18.082-3.39-1.613-5.483-2.47-6.106-2.883 1.246-6.28 4.112-7.31 6.106-.344.667-.493 1.35-.41 1.993m5.866 3.187a6.722 6.722 0 0 1-2.367-.196c-2.26-.58-3.335-1.711-3.499-2.99m5.866 3.186c-7.823 2.55-11.426-.065-12.25-1.691 1.442-.083 4.738-.499 6.384-1.496" stroke="#000" stroke-linecap="round" stroke-linejoin="round"/><path d="M42.418 91.133c.082-3.39-1.613-5.483-2.47-6.106-2.883 1.246-6.28 4.112-7.31 6.106-1.029 1.993-.308 4.112 3.089 4.984.814.21 1.617.275 2.367.196 2.382-.25 4.246-1.96 4.324-5.18z" fill="#818181" stroke="#000" stroke-linecap="round" stroke-linejoin="round"/><g stroke="#000" stroke-linecap="round" stroke-linejoin="round"><path d="M40.777 90.207c-2.224.498-1.956 3.281-1.544 4.61 0 .79.885 2.393 4.426 2.492 3.541.1 3.123-3.364 2.47-5.109-.857-.872-3.129-2.492-5.352-1.993z" fill="#999"/><path d="M40.777 90.207c-2.224.498-1.956 3.281-1.544 4.61 1.304.416 4.509.474 6.897-2.617-.858-.872-3.13-2.492-5.353-1.993z" fill="#B6B6B6"/></g><circle cx="72.222" cy="52" r="2.5" fill="#A77148"/><circle cx="72.222" cy="52" r="2.5" fill="#A77148"/><circle cx="72.222" cy="52" r="2.5" stroke="#000" stroke-linecap="round"/></svg>