<svg width="252" height="623" viewBox="0 0 252 623" fill="none" xmlns="http://www.w3.org/2000/svg"><rect x="32" y="253" width="131" height="131" rx="31" fill="#B2E946" stroke="#000" stroke-width="2" stroke-linejoin="round"/><rect x="33" y="264.75" width="127.838" height="118.25" rx="30" fill="#9ACA3B"/><path d="M79 308h18m-33-12h18" stroke="#7EA82B" stroke-width="6" stroke-linecap="round"/><rect x="151" y="507" width="100" height="100" rx="31" fill="#B2E946" stroke="#000" stroke-width="2" stroke-linejoin="round"/><rect x="152" y="516.167" width="97.117" height="89.833" rx="30" fill="#9ACA3B"/><path d="M212 539h18m-58 35h18" stroke="#7EA82B" stroke-width="6" stroke-linecap="round"/><path fill-rule="evenodd" clip-rule="evenodd" d="M-63.5 163a7 7 0 0 1 7 7v36a3 3 0 0 0 3 3H28a7 7 0 1 1 0 14h-81.5c-9.389 0-17-7.611-17-17v-36a7 7 0 0 1 7-7zM123 531a7 7 0 0 0-7 7v36a3 3 0 0 1-3 3H23a7 7 0 1 0 0 14h90c9.389 0 17-7.611 17-17v-6h26.5a7 7 0 1 0 0-14H130v-16a7 7 0 0 0-7-7z" fill="#906925" stroke="#000" stroke-linecap="round"/><path d="M-16 942.709S-7.366 327.367-8.273 135h65.546L64 942.709h-80z" fill="#906925"/><path d="M2.62 715.379h38.093M23.5 500.209h26m-15.5-14h15.5m-46.88-133.5H28.5m-25.88-12H15m8.5-121h33.773M-8.273 135C-7.366 327.367-16 942.709-16 942.709h80L57.273 135H-8.273z" stroke="#000" stroke-width="2" stroke-linecap="round"/><rect width="174" height="112" rx="30" transform="matrix(1 0 0 -1 -67 162)" fill="#527213" stroke="#000" stroke-width="2" stroke-linejoin="round"/><path d="M77 106h18" stroke="#7EA82B" stroke-width="6" stroke-linecap="round"/><rect x="-6" y="1" width="86" height="86" rx="31" fill="#B2E946" stroke="#000" stroke-width="2" stroke-linejoin="round"/><rect x="-5" y="9" width="83.243" height="77" rx="30" fill="#9ACA3B"/><path d="M21.571 38H37m-6.857 15.429H45.57" stroke="#7EA82B" stroke-width="6" stroke-linecap="round"/><rect x="-85" y="288" width="112" height="72.092" rx="30" fill="#527213" stroke="#000" stroke-width="2" stroke-linejoin="round"/><path d="M7.69 324.046h11.586" stroke="#7EA82B" stroke-width="6" stroke-linecap="round"/><rect x="-20" y="436" width="174" height="112" rx="30" fill="#527213" stroke="#000" stroke-width="2" stroke-linejoin="round"/><path d="M14 512h18m-33-12h18m107-8h18" stroke="#7EA82B" stroke-width="6" stroke-linecap="round"/></svg>