<svg width="21" height="28" viewBox="0 0 21 28" fill="none" xmlns="http://www.w3.org/2000/svg">
<path d="M7.38325 1H7.3834H15.0322C16.3891 1 17.2184 2.38752 16.7496 3.57597C16.7496 3.57599 16.7496 3.57602 16.7496 3.57604L14.6495 8.90102H18.1486C19.7955 8.90102 20.5414 10.8379 19.5493 12.0055L7.36783 26.344C7.36781 26.344 7.36778 26.344 7.36776 26.3441C6.72807 27.0971 5.77076 27.1458 5.08523 26.7687C4.40589 26.3949 3.93753 25.578 4.17667 24.6449C4.17667 24.6449 4.17667 24.6449 4.17668 24.6449L6.124 17.0462H2.85093C1.5126 17.0462 0.681967 15.6927 1.11824 14.5098L7.38325 1ZM7.38325 1C7.00076 1.00006 6.63033 1.12034 6.32114 1.34049M7.38325 1L6.32114 1.34049M6.32114 1.34049C6.01241 1.56031 5.78057 1.86812 5.651 2.21944C5.651 2.21945 5.65099 2.21945 5.65099 2.21946L1.11827 14.5098L6.32114 1.34049Z" fill="#9CD1FF" stroke="#4B371F" stroke-width="2"/>
</svg>
